<?xml version="1.0" encoding="utf-8" standalone="no"?>
<!DOCTYPE svg PUBLIC "-//W3C//DTD SVG 1.1//EN"
  "http://www.w3.org/Graphics/SVG/1.1/DTD/svg11.dtd">
<!-- Created with matplotlib (https://matplotlib.org/) -->
<svg height="288pt" version="1.1" viewBox="0 0 288 288" width="288pt" xmlns="http://www.w3.org/2000/svg" xmlns:xlink="http://www.w3.org/1999/xlink">
 <defs>
  <style type="text/css">
*{stroke-linecap:butt;stroke-linejoin:round;}
  </style>
 </defs>
 <g id="figure_1">
  <g id="patch_1">
   <path d="M 0 288 
L 288 288 
L 288 0 
L 0 0 
z
" style="fill:#ffffff;"/>
  </g>
  <g id="axes_1">
   <g id="patch_2">
    <path d="M 43.2 244.8 
L 244.8 244.8 
L 244.8 2.88 
L 43.2 2.88 
z
" style="fill:none;"/>
   </g>
   <g id="matplotlib.axis_1"/>
  </g>
  <g id="axes_2">
   <g id="patch_3">
    <path d="M 43.2 244.8 
L 244.8 244.8 
L 244.8 2.88 
L 43.2 2.88 
z
" style="fill:#ffffff;"/>
   </g>
   <g id="matplotlib.axis_2">
    <g id="xtick_1">
     <path d="M 48 244.8 
L 48 249.8 
" style="stroke:#000000;stroke-width:0.5;"/>
     <g id="text_1">
      <text style="font-family:DejaVu Sans;font-size:12px;font-style:normal;font-weight:normal;text-anchor:middle;" transform="rotate(-0, 48, 262.918125)" x="48" y="262.918125">0</text>
     </g>
    </g>
    <g id="xtick_2">
     <path d="M 86.4 244.8 
L 86.4 249.8 
" style="stroke:#000000;stroke-width:0.5;"/>
     <g id="text_2">
      <text style="font-family:DejaVu Sans;font-size:12px;font-style:normal;font-weight:normal;text-anchor:middle;" transform="rotate(-0, 86.4, 262.918125)" x="86.4" y="262.918125">2</text>
     </g>
    </g>
    <g id="xtick_3">
     <path d="M 124.8 244.8 
L 124.8 249.8 
" style="stroke:#000000;stroke-width:0.5;"/>
     <g id="text_3">
      <text style="font-family:DejaVu Sans;font-size:12px;font-style:normal;font-weight:normal;text-anchor:middle;" transform="rotate(-0, 124.8, 262.918125)" x="124.8" y="262.918125">4</text>
     </g>
    </g>
    <g id="xtick_4">
     <path d="M 163.2 244.8 
L 163.2 249.8 
" style="stroke:#000000;stroke-width:0.5;"/>
     <g id="text_4">
      <text style="font-family:DejaVu Sans;font-size:12px;font-style:normal;font-weight:normal;text-anchor:middle;" transform="rotate(-0, 163.2, 262.918125)" x="163.2" y="262.918125">6</text>
     </g>
    </g>
    <g id="xtick_5">
     <path d="M 201.6 244.8 
L 201.6 249.8 
" style="stroke:#000000;stroke-width:0.5;"/>
     <g id="text_5">
      <text style="font-family:DejaVu Sans;font-size:12px;font-style:normal;font-weight:normal;text-anchor:middle;" transform="rotate(-0, 201.6, 262.918125)" x="201.6" y="262.918125">8</text>
     </g>
    </g>
    <g id="xtick_6">
     <path d="M 240 244.8 
L 240 249.8 
" style="stroke:#000000;stroke-width:0.5;"/>
     <g id="text_6">
      <text style="font-family:DejaVu Sans;font-size:12px;font-style:normal;font-weight:normal;text-anchor:middle;" transform="rotate(-0, 240, 262.918125)" x="240" y="262.918125">10</text>
     </g>
    </g>
    <g id="xtick_7">
     <path d="M 67.2 244.8 
L 67.2 247.3 
" style="stroke:#000000;stroke-width:0.5;"/>
    </g>
    <g id="xtick_8">
     <path d="M 105.6 244.8 
L 105.6 247.3 
" style="stroke:#000000;stroke-width:0.5;"/>
    </g>
    <g id="xtick_9">
     <path d="M 144 244.8 
L 144 247.3 
" style="stroke:#000000;stroke-width:0.5;"/>
    </g>
    <g id="xtick_10">
     <path d="M 182.4 244.8 
L 182.4 247.3 
" style="stroke:#000000;stroke-width:0.5;"/>
    </g>
    <g id="xtick_11">
     <path d="M 220.8 244.8 
L 220.8 247.3 
" style="stroke:#000000;stroke-width:0.5;"/>
    </g>
    <g id="text_7">
     <text style="font-family:DejaVu Sans;font-size:14px;font-style:normal;font-weight:normal;text-anchor:middle;" transform="rotate(-0, 144, 280.051562)" x="144" y="280.051562">Denaturant [M]</text>
    </g>
   </g>
   <g id="matplotlib.axis_3">
    <g id="ytick_1">
     <path d="M 244.8 236.718241 
L 249.8 236.718241 
" style="fill:#0055ff;stroke:#0055ff;stroke-width:0.5;"/>
     <g id="text_8">
      <text style="fill:#0055ff;font-family:DejaVu Sans;font-size:12px;font-style:normal;font-weight:normal;text-anchor:start;" transform="rotate(-0, 253.8, 240.029491)" x="253.8" y="240.029491">4</text>
     </g>
    </g>
    <g id="ytick_2">
     <path d="M 244.8 194.914086 
L 249.8 194.914086 
" style="fill:#0055ff;stroke:#0055ff;stroke-width:0.5;"/>
     <g id="text_9">
      <text style="fill:#0055ff;font-family:DejaVu Sans;font-size:12px;font-style:normal;font-weight:normal;text-anchor:start;" transform="rotate(-0, 253.8, 198.225336)" x="253.8" y="198.225336">6</text>
     </g>
    </g>
    <g id="ytick_3">
     <path d="M 244.8 153.10993 
L 249.8 153.10993 
" style="fill:#0055ff;stroke:#0055ff;stroke-width:0.5;"/>
     <g id="text_10">
      <text style="fill:#0055ff;font-family:DejaVu Sans;font-size:12px;font-style:normal;font-weight:normal;text-anchor:start;" transform="rotate(-0, 253.8, 156.42118)" x="253.8" y="156.42118">8</text>
     </g>
    </g>
    <g id="ytick_4">
     <path d="M 244.8 111.305775 
L 249.8 111.305775 
" style="fill:#0055ff;stroke:#0055ff;stroke-width:0.5;"/>
     <g id="text_11">
      <text style="fill:#0055ff;font-family:DejaVu Sans;font-size:12px;font-style:normal;font-weight:normal;text-anchor:start;" transform="rotate(-0, 253.8, 114.617025)" x="253.8" y="114.617025">10</text>
     </g>
    </g>
    <g id="ytick_5">
     <path d="M 244.8 69.501619 
L 249.8 69.501619 
" style="fill:#0055ff;stroke:#0055ff;stroke-width:0.5;"/>
     <g id="text_12">
      <text style="fill:#0055ff;font-family:DejaVu Sans;font-size:12px;font-style:normal;font-weight:normal;text-anchor:start;" transform="rotate(-0, 253.8, 72.812869)" x="253.8" y="72.812869">12</text>
     </g>
    </g>
    <g id="ytick_6">
     <path d="M 244.8 27.697464 
L 249.8 27.697464 
" style="fill:#0055ff;stroke:#0055ff;stroke-width:0.5;"/>
     <g id="text_13">
      <text style="fill:#0055ff;font-family:DejaVu Sans;font-size:12px;font-style:normal;font-weight:normal;text-anchor:start;" transform="rotate(-0, 253.8, 31.008714)" x="253.8" y="31.008714">14</text>
     </g>
    </g>
    <g id="ytick_7">
     <path d="M 244.8 215.816163 
L 247.3 215.816163 
" style="fill:#0055ff;stroke:#0055ff;stroke-width:0.5;"/>
    </g>
    <g id="ytick_8">
     <path d="M 244.8 174.012008 
L 247.3 174.012008 
" style="fill:#0055ff;stroke:#0055ff;stroke-width:0.5;"/>
    </g>
    <g id="ytick_9">
     <path d="M 244.8 132.207853 
L 247.3 132.207853 
" style="fill:#0055ff;stroke:#0055ff;stroke-width:0.5;"/>
    </g>
    <g id="ytick_10">
     <path d="M 244.8 90.403697 
L 247.3 90.403697 
" style="fill:#0055ff;stroke:#0055ff;stroke-width:0.5;"/>
    </g>
    <g id="ytick_11">
     <path d="M 244.8 48.599542 
L 247.3 48.599542 
" style="fill:#0055ff;stroke:#0055ff;stroke-width:0.5;"/>
    </g>
    <g id="ytick_12">
     <path d="M 244.8 6.795386 
L 247.3 6.795386 
" style="fill:#0055ff;stroke:#0055ff;stroke-width:0.5;"/>
    </g>
    <g id="text_14">
     <text style="fill:#0055ff;font-family:DejaVu Sans;font-size:14px;font-style:normal;font-weight:normal;text-anchor:middle;" transform="rotate(-90, 283.707812, 123.84)" x="283.707812" y="123.84">Kinetics</text>
    </g>
   </g>
   <g id="patch_4">
    <path d="M 244.8 244.8 
L 244.8 2.88 
" style="fill:none;stroke:#0055ff;stroke-linecap:square;stroke-linejoin:miter;"/>
    <g id="patch_5">
     <path d="M 43.2 244.8 
L 244.8 244.8 
" style="fill:none;stroke:#000000;stroke-linecap:square;stroke-linejoin:miter;"/>
     <g id="patch_6">
      <path d="M 43.2 2.88 
L 244.8 2.88 
" style="fill:none;stroke:#000000;stroke-linecap:square;stroke-linejoin:miter;"/>
      <path clip-path="url(#p20afcbcffc)" d="M 43.2 142.607925 
L 85.85973 202.217443 
L 93.322661 212.273704 
L 97.961781 218.175174 
L 101.390695 222.191183 
L 104.113657 225.047613 
L 106.332366 227.072043 
L 108.248524 228.541371 
L 109.962981 229.593532 
L 111.576588 230.324329 
L 113.089345 230.756702 
L 114.501251 230.923425 
L 115.812306 230.8644 
L 117.123362 230.595257 
L 118.535268 230.070684 
L 119.947174 229.308212 
L 121.45993 228.239447 
L 123.174387 226.736193 
L 124.989695 224.841344 
L 127.107554 222.292173 
L 129.527964 219.014493 
L 132.452626 214.659402 
L 136.083242 208.836043 
L 141.024912 200.461259 
L 148.689545 186.983017 
L 164.724762 158.234529 
L 244.8 14.00866 
L 244.8 14.00866 
" style="fill:none;stroke:#0055ff;stroke-width:2;"/>
      <g id="PolyCollection_1">
       <defs>
        <path d="M 48 -152.050053 
L 48 -134.490377 
L 52.802401 -130.676694 
L 57.604802 -111.077022 
L 62.407204 -115.906992 
L 67.209605 -110.29972 
L 72.012006 -100.887674 
L 76.814407 -88.786838 
L 81.616808 -83.551001 
L 86.41921 -79.253453 
L 91.221611 -66.021872 
L 96.024012 -63.701491 
L 100.826413 -60.424861 
L 105.628814 -56.639798 
L 110.431216 -54.943989 
L 115.233617 -48.96 
L 120.036018 -65.850011 
L 124.838419 -63.874435 
L 129.64082 -58.324792 
L 134.443222 -72.914598 
L 139.245623 -73.236355 
L 144.048024 -88.025252 
L 148.850425 -93.498962 
L 153.652826 -108.644358 
L 158.455228 -116.091224 
L 163.257629 -116.897403 
L 168.06003 -120.878846 
L 172.862431 -142.585954 
L 177.664832 -146.536689 
L 182.467234 -151.686452 
L 187.269635 -161.96253 
L 192.072036 -161.693097 
L 196.874437 -183.313283 
L 201.676838 -182.843162 
L 206.47924 -191.191529 
L 211.281641 -199.403389 
L 216.084042 -200.596226 
L 220.886443 -221.338144 
L 225.688844 -230.232386 
L 230.491246 -236.042193 
L 235.293647 -243.656994 
L 240 -249.675566 
L 240 -279.36 
L 240 -279.36 
L 235.293647 -272.707894 
L 230.491246 -264.291535 
L 225.688844 -257.870169 
L 220.886443 -248.039691 
L 216.084042 -225.114413 
L 211.281641 -223.796014 
L 206.47924 -214.719748 
L 201.676838 -205.492606 
L 196.874437 -206.012213 
L 192.072036 -182.116218 
L 187.269635 -182.414013 
L 182.467234 -171.056242 
L 177.664832 -165.364398 
L 172.862431 -160.997796 
L 168.06003 -137.00573 
L 163.257629 -132.605188 
L 158.455228 -131.714148 
L 153.652826 -123.483401 
L 148.850425 -106.743753 
L 144.048024 -100.693863 
L 139.245623 -84.34824 
L 134.443222 -83.992614 
L 129.64082 -67.867038 
L 124.838419 -74.000855 
L 120.036018 -76.184386 
L 115.233617 -57.516479 
L 110.431216 -64.130362 
L 105.628814 -66.004677 
L 100.826413 -70.188167 
L 96.024012 -73.809706 
L 91.221611 -76.374337 
L 86.41921 -90.998717 
L 81.616808 -95.748638 
L 76.814407 -101.535616 
L 72.012006 -114.910224 
L 67.209605 -125.313012 
L 62.407204 -131.510523 
L 57.604802 -126.172135 
L 52.802401 -147.83493 
L 48 -152.050053 
z
" id="m3fc51e452e"/>
       </defs>
       <g clip-path="url(#p20afcbcffc)">
        <use style="fill:#9093b1;fill-opacity:0.498039;" x="0" xlink:href="#m3fc51e452e" y="288"/>
       </g>
      </g>
      <path clip-path="url(#p20afcbcffc)" d="M 48 148.729785 
C 49.060812 148.729785 50.078319 148.30832 50.828427 147.558212 
C 51.578535 146.808104 52 145.790597 52 144.729785 
C 52 143.668972 51.578535 142.651465 50.828427 141.901358 
C 50.078319 141.15125 49.060812 140.729785 48 140.729785 
C 46.939188 140.729785 45.921681 141.15125 45.171573 141.901358 
C 44.421465 142.651465 44 143.668972 44 144.729785 
C 44 145.790597 44.421465 146.808104 45.171573 147.558212 
C 45.921681 148.30832 46.939188 148.729785 48 148.729785 
z
" style="fill:#ffffff;stroke:#000000;"/>
      <path clip-path="url(#p20afcbcffc)" d="M 52.802401 152.744188 
C 53.863214 152.744188 54.880721 152.322723 55.630828 151.572615 
C 56.380936 150.822507 56.802401 149.805 56.802401 148.744188 
C 56.802401 147.683375 56.380936 146.665868 55.630828 145.915761 
C 54.880721 145.165653 53.863214 144.744188 52.802401 144.744188 
C 51.741589 144.744188 50.724082 145.165653 49.973974 145.915761 
C 49.223866 146.665868 48.802401 147.683375 48.802401 148.744188 
C 48.802401 149.805 49.223866 150.822507 49.973974 151.572615 
C 50.724082 152.322723 51.741589 152.744188 52.802401 152.744188 
z
" style="fill:#ffffff;stroke:#000000;"/>
      <path clip-path="url(#p20afcbcffc)" d="M 57.604802 173.375421 
C 58.665615 173.375421 59.683122 172.953956 60.43323 172.203848 
C 61.183337 171.453741 61.604802 170.436234 61.604802 169.375421 
C 61.604802 168.314609 61.183337 167.297102 60.43323 166.546994 
C 59.683122 165.796887 58.665615 165.375421 57.604802 165.375421 
C 56.54399 165.375421 55.526483 165.796887 54.776375 166.546994 
C 54.026268 167.297102 53.604802 168.314609 53.604802 169.375421 
C 53.604802 170.436234 54.026268 171.453741 54.776375 172.203848 
C 55.526483 172.953956 56.54399 173.375421 57.604802 173.375421 
z
" style="fill:#ffffff;stroke:#000000;"/>
      <path clip-path="url(#p20afcbcffc)" d="M 62.407204 168.291242 
C 63.468016 168.291242 64.485523 167.869777 65.235631 167.119669 
C 65.985738 166.369562 66.407204 165.352055 66.407204 164.291242 
C 66.407204 163.23043 65.985738 162.212923 65.235631 161.462815 
C 64.485523 160.712707 63.468016 160.291242 62.407204 160.291242 
C 61.346391 160.291242 60.328884 160.712707 59.578776 161.462815 
C 58.828669 162.212923 58.407204 163.23043 58.407204 164.291242 
C 58.407204 165.352055 58.828669 166.369562 59.578776 167.119669 
C 60.328884 167.869777 61.346391 168.291242 62.407204 168.291242 
z
" style="fill:#ffffff;stroke:#000000;"/>
      <path clip-path="url(#p20afcbcffc)" d="M 67.209605 174.193634 
C 68.270417 174.193634 69.287924 173.772169 70.038032 173.022061 
C 70.78814 172.271954 71.209605 171.254446 71.209605 170.193634 
C 71.209605 169.132822 70.78814 168.115315 70.038032 167.365207 
C 69.287924 166.615099 68.270417 166.193634 67.209605 166.193634 
C 66.148792 166.193634 65.131285 166.615099 64.381178 167.365207 
C 63.63107 168.115315 63.209605 169.132822 63.209605 170.193634 
C 63.209605 171.254446 63.63107 172.271954 64.381178 173.022061 
C 65.131285 173.772169 66.148792 174.193634 67.209605 174.193634 
z
" style="fill:#ffffff;stroke:#000000;"/>
      <path clip-path="url(#p20afcbcffc)" d="M 72.012006 184.101051 
C 73.072818 184.101051 74.090325 183.679586 74.840433 182.929478 
C 75.590541 182.17937 76.012006 181.161863 76.012006 180.101051 
C 76.012006 179.040239 75.590541 178.022732 74.840433 177.272624 
C 74.090325 176.522516 73.072818 176.101051 72.012006 176.101051 
C 70.951194 176.101051 69.933687 176.522516 69.183579 177.272624 
C 68.433471 178.022732 68.012006 179.040239 68.012006 180.101051 
C 68.012006 181.161863 68.433471 182.17937 69.183579 182.929478 
C 69.933687 183.679586 70.951194 184.101051 72.012006 184.101051 
z
" style="fill:#ffffff;stroke:#000000;"/>
      <path clip-path="url(#p20afcbcffc)" d="M 76.814407 196.838773 
C 77.87522 196.838773 78.892727 196.417307 79.642834 195.6672 
C 80.392942 194.917092 80.814407 193.899585 80.814407 192.838773 
C 80.814407 191.77796 80.392942 190.760453 79.642834 190.010345 
C 78.892727 189.260238 77.87522 188.838773 76.814407 188.838773 
C 75.753595 188.838773 74.736088 189.260238 73.98598 190.010345 
C 73.235872 190.760453 72.814407 191.77796 72.814407 192.838773 
C 72.814407 193.899585 73.235872 194.917092 73.98598 195.6672 
C 74.736088 196.417307 75.753595 196.838773 76.814407 196.838773 
z
" style="fill:#ffffff;stroke:#000000;"/>
      <path clip-path="url(#p20afcbcffc)" d="M 81.616808 202.350181 
C 82.677621 202.350181 83.695128 201.928716 84.445236 201.178608 
C 85.195343 200.4285 85.616808 199.410993 85.616808 198.350181 
C 85.616808 197.289368 85.195343 196.271861 84.445236 195.521754 
C 83.695128 194.771646 82.677621 194.350181 81.616808 194.350181 
C 80.555996 194.350181 79.538489 194.771646 78.788381 195.521754 
C 78.038274 196.271861 77.616808 197.289368 77.616808 198.350181 
C 77.616808 199.410993 78.038274 200.4285 78.788381 201.178608 
C 79.538489 201.928716 80.555996 202.350181 81.616808 202.350181 
z
" style="fill:#ffffff;stroke:#000000;"/>
      <path clip-path="url(#p20afcbcffc)" d="M 86.41921 206.873915 
C 87.480022 206.873915 88.497529 206.45245 89.247637 205.702342 
C 89.997744 204.952235 90.41921 203.934728 90.41921 202.873915 
C 90.41921 201.813103 89.997744 200.795596 89.247637 200.045488 
C 88.497529 199.29538 87.480022 198.873915 86.41921 198.873915 
C 85.358397 198.873915 84.34089 199.29538 83.590782 200.045488 
C 82.840675 200.795596 82.41921 201.813103 82.41921 202.873915 
C 82.41921 203.934728 82.840675 204.952235 83.590782 205.702342 
C 84.34089 206.45245 85.358397 206.873915 86.41921 206.873915 
z
" style="fill:#ffffff;stroke:#000000;"/>
      <path clip-path="url(#p20afcbcffc)" d="M 91.221611 220.801896 
C 92.282423 220.801896 93.29993 220.38043 94.050038 219.630323 
C 94.800146 218.880215 95.221611 217.862708 95.221611 216.801896 
C 95.221611 215.741083 94.800146 214.723576 94.050038 213.973469 
C 93.29993 213.223361 92.282423 212.801896 91.221611 212.801896 
C 90.160798 212.801896 89.143291 213.223361 88.393184 213.973469 
C 87.643076 214.723576 87.221611 215.741083 87.221611 216.801896 
C 87.221611 217.862708 87.643076 218.880215 88.393184 219.630323 
C 89.143291 220.38043 90.160798 220.801896 91.221611 220.801896 
z
" style="fill:#ffffff;stroke:#000000;"/>
      <path clip-path="url(#p20afcbcffc)" d="M 96.024012 223.244401 
C 97.084824 223.244401 98.102331 222.822936 98.852439 222.072828 
C 99.602547 221.322721 100.024012 220.305214 100.024012 219.244401 
C 100.024012 218.183589 99.602547 217.166082 98.852439 216.415974 
C 98.102331 215.665867 97.084824 215.244401 96.024012 215.244401 
C 94.9632 215.244401 93.945693 215.665867 93.195585 216.415974 
C 92.445477 217.166082 92.024012 218.183589 92.024012 219.244401 
C 92.024012 220.305214 92.445477 221.322721 93.195585 222.072828 
C 93.945693 222.822936 94.9632 223.244401 96.024012 223.244401 
z
" style="fill:#ffffff;stroke:#000000;"/>
      <path clip-path="url(#p20afcbcffc)" d="M 100.826413 226.693486 
C 101.887226 226.693486 102.904733 226.272021 103.65484 225.521913 
C 104.404948 224.771805 104.826413 223.754298 104.826413 222.693486 
C 104.826413 221.632674 104.404948 220.615166 103.65484 219.865059 
C 102.904733 219.114951 101.887226 218.693486 100.826413 218.693486 
C 99.765601 218.693486 98.748094 219.114951 97.997986 219.865059 
C 97.247878 220.615166 96.826413 221.632674 96.826413 222.693486 
C 96.826413 223.754298 97.247878 224.771805 97.997986 225.521913 
C 98.748094 226.272021 99.765601 226.693486 100.826413 226.693486 
z
" style="fill:#ffffff;stroke:#000000;"/>
      <path clip-path="url(#p20afcbcffc)" d="M 105.628814 230.677762 
C 106.689627 230.677762 107.707134 230.256297 108.457242 229.506189 
C 109.207349 228.756082 109.628814 227.738575 109.628814 226.677762 
C 109.628814 225.61695 109.207349 224.599443 108.457242 223.849335 
C 107.707134 223.099227 106.689627 222.677762 105.628814 222.677762 
C 104.568002 222.677762 103.550495 223.099227 102.800387 223.849335 
C 102.05028 224.599443 101.628814 225.61695 101.628814 226.677762 
C 101.628814 227.738575 102.05028 228.756082 102.800387 229.506189 
C 103.550495 230.256297 104.568002 230.677762 105.628814 230.677762 
z
" style="fill:#ffffff;stroke:#000000;"/>
      <path clip-path="url(#p20afcbcffc)" d="M 110.431216 232.462825 
C 111.492028 232.462825 112.509535 232.041359 113.259643 231.291252 
C 114.00975 230.541144 114.431216 229.523637 114.431216 228.462825 
C 114.431216 227.402012 114.00975 226.384505 113.259643 225.634398 
C 112.509535 224.88429 111.492028 224.462825 110.431216 224.462825 
C 109.370403 224.462825 108.352896 224.88429 107.602788 225.634398 
C 106.852681 226.384505 106.431216 227.402012 106.431216 228.462825 
C 106.431216 229.523637 106.852681 230.541144 107.602788 231.291252 
C 108.352896 232.041359 109.370403 232.462825 110.431216 232.462825 
z
" style="fill:#ffffff;stroke:#000000;"/>
      <path clip-path="url(#p20afcbcffc)" d="M 115.233617 238.76176 
C 116.294429 238.76176 117.311936 238.340295 118.062044 237.590188 
C 118.812152 236.84008 119.233617 235.822573 119.233617 234.76176 
C 119.233617 233.700948 118.812152 232.683441 118.062044 231.933333 
C 117.311936 231.183226 116.294429 230.76176 115.233617 230.76176 
C 114.172804 230.76176 113.155297 231.183226 112.40519 231.933333 
C 111.655082 232.683441 111.233617 233.700948 111.233617 234.76176 
C 111.233617 235.822573 111.655082 236.84008 112.40519 237.590188 
C 113.155297 238.340295 114.172804 238.76176 115.233617 238.76176 
z
" style="fill:#ffffff;stroke:#000000;"/>
      <path clip-path="url(#p20afcbcffc)" d="M 120.036018 220.982801 
C 121.09683 220.982801 122.114337 220.561336 122.864445 219.811229 
C 123.614553 219.061121 124.036018 218.043614 124.036018 216.982801 
C 124.036018 215.921989 123.614553 214.904482 122.864445 214.154374 
C 122.114337 213.404267 121.09683 212.982801 120.036018 212.982801 
C 118.975206 212.982801 117.957699 213.404267 117.207591 214.154374 
C 116.457483 214.904482 116.036018 215.921989 116.036018 216.982801 
C 116.036018 218.043614 116.457483 219.061121 117.207591 219.811229 
C 117.957699 220.561336 118.975206 220.982801 120.036018 220.982801 
z
" style="fill:#ffffff;stroke:#000000;"/>
      <path clip-path="url(#p20afcbcffc)" d="M 124.838419 223.062355 
C 125.899232 223.062355 126.916739 222.64089 127.666846 221.890782 
C 128.416954 221.140675 128.838419 220.123168 128.838419 219.062355 
C 128.838419 218.001543 128.416954 216.984036 127.666846 216.233928 
C 126.916739 215.48382 125.899232 215.062355 124.838419 215.062355 
C 123.777607 215.062355 122.7601 215.48382 122.009992 216.233928 
C 121.259884 216.984036 120.838419 218.001543 120.838419 219.062355 
C 120.838419 220.123168 121.259884 221.140675 122.009992 221.890782 
C 122.7601 222.64089 123.777607 223.062355 124.838419 223.062355 
z
" style="fill:#ffffff;stroke:#000000;"/>
      <path clip-path="url(#p20afcbcffc)" d="M 129.64082 228.904085 
C 130.701633 228.904085 131.71914 228.48262 132.469248 227.732512 
C 133.219355 226.982404 133.64082 225.964897 133.64082 224.904085 
C 133.64082 223.843273 133.219355 222.825766 132.469248 222.075658 
C 131.71914 221.32555 130.701633 220.904085 129.64082 220.904085 
C 128.580008 220.904085 127.562501 221.32555 126.812393 222.075658 
C 126.062286 222.825766 125.64082 223.843273 125.64082 224.904085 
C 125.64082 225.964897 126.062286 226.982404 126.812393 227.732512 
C 127.562501 228.48262 128.580008 228.904085 129.64082 228.904085 
z
" style="fill:#ffffff;stroke:#000000;"/>
      <path clip-path="url(#p20afcbcffc)" d="M 134.443222 213.546394 
C 135.504034 213.546394 136.521541 213.124928 137.271649 212.374821 
C 138.021756 211.624713 138.443222 210.607206 138.443222 209.546394 
C 138.443222 208.485581 138.021756 207.468074 137.271649 206.717967 
C 136.521541 205.967859 135.504034 205.546394 134.443222 205.546394 
C 133.382409 205.546394 132.364902 205.967859 131.614794 206.717967 
C 130.864687 207.468074 130.443222 208.485581 130.443222 209.546394 
C 130.443222 210.607206 130.864687 211.624713 131.614794 212.374821 
C 132.364902 213.124928 133.382409 213.546394 134.443222 213.546394 
z
" style="fill:#ffffff;stroke:#000000;"/>
      <path clip-path="url(#p20afcbcffc)" d="M 139.245623 213.207702 
C 140.306435 213.207702 141.323942 212.786237 142.07405 212.036129 
C 142.824158 211.286022 143.245623 210.268514 143.245623 209.207702 
C 143.245623 208.14689 142.824158 207.129383 142.07405 206.379275 
C 141.323942 205.629167 140.306435 205.207702 139.245623 205.207702 
C 138.18481 205.207702 137.167303 205.629167 136.417196 206.379275 
C 135.667088 207.129383 135.245623 208.14689 135.245623 209.207702 
C 135.245623 210.268514 135.667088 211.286022 136.417196 212.036129 
C 137.167303 212.786237 138.18481 213.207702 139.245623 213.207702 
z
" style="fill:#ffffff;stroke:#000000;"/>
      <path clip-path="url(#p20afcbcffc)" d="M 144.048024 197.640442 
C 145.108836 197.640442 146.126343 197.218977 146.876451 196.468869 
C 147.626559 195.718762 148.048024 194.701254 148.048024 193.640442 
C 148.048024 192.57963 147.626559 191.562123 146.876451 190.812015 
C 146.126343 190.061907 145.108836 189.640442 144.048024 189.640442 
C 142.987212 189.640442 141.969705 190.061907 141.219597 190.812015 
C 140.469489 191.562123 140.048024 192.57963 140.048024 193.640442 
C 140.048024 194.701254 140.469489 195.718762 141.219597 196.468869 
C 141.969705 197.218977 142.987212 197.640442 144.048024 197.640442 
z
" style="fill:#ffffff;stroke:#000000;"/>
      <path clip-path="url(#p20afcbcffc)" d="M 148.850425 191.878642 
C 149.911238 191.878642 150.928745 191.457177 151.678852 190.707069 
C 152.42896 189.956962 152.850425 188.939455 152.850425 187.878642 
C 152.850425 186.81783 152.42896 185.800323 151.678852 185.050215 
C 150.928745 184.300108 149.911238 183.878642 148.850425 183.878642 
C 147.789613 183.878642 146.772106 184.300108 146.021998 185.050215 
C 145.27189 185.800323 144.850425 186.81783 144.850425 187.878642 
C 144.850425 188.939455 145.27189 189.956962 146.021998 190.707069 
C 146.772106 191.457177 147.789613 191.878642 148.850425 191.878642 
z
" style="fill:#ffffff;stroke:#000000;"/>
      <path clip-path="url(#p20afcbcffc)" d="M 153.652826 175.93612 
C 154.713639 175.93612 155.731146 175.514655 156.481254 174.764547 
C 157.231361 174.01444 157.652826 172.996933 157.652826 171.93612 
C 157.652826 170.875308 157.231361 169.857801 156.481254 169.107693 
C 155.731146 168.357586 154.713639 167.93612 153.652826 167.93612 
C 152.592014 167.93612 151.574507 168.357586 150.824399 169.107693 
C 150.074292 169.857801 149.652826 170.875308 149.652826 171.93612 
C 149.652826 172.996933 150.074292 174.01444 150.824399 174.764547 
C 151.574507 175.514655 152.592014 175.93612 153.652826 175.93612 
z
" style="fill:#ffffff;stroke:#000000;"/>
      <path clip-path="url(#p20afcbcffc)" d="M 158.455228 168.097314 
C 159.51604 168.097314 160.533547 167.675849 161.283655 166.925741 
C 162.033762 166.175633 162.455228 165.158126 162.455228 164.097314 
C 162.455228 163.036502 162.033762 162.018995 161.283655 161.268887 
C 160.533547 160.518779 159.51604 160.097314 158.455228 160.097314 
C 157.394415 160.097314 156.376908 160.518779 155.6268 161.268887 
C 154.876693 162.018995 154.455228 163.036502 154.455228 164.097314 
C 154.455228 165.158126 154.876693 166.175633 155.6268 166.925741 
C 156.376908 167.675849 157.394415 168.097314 158.455228 168.097314 
z
" style="fill:#ffffff;stroke:#000000;"/>
      <path clip-path="url(#p20afcbcffc)" d="M 163.257629 167.248705 
C 164.318441 167.248705 165.335948 166.827239 166.086056 166.077132 
C 166.836164 165.327024 167.257629 164.309517 167.257629 163.248705 
C 167.257629 162.187892 166.836164 161.170385 166.086056 160.420278 
C 165.335948 159.67017 164.318441 159.248705 163.257629 159.248705 
C 162.196816 159.248705 161.179309 159.67017 160.429202 160.420278 
C 159.679094 161.170385 159.257629 162.187892 159.257629 163.248705 
C 159.257629 164.309517 159.679094 165.327024 160.429202 166.077132 
C 161.179309 166.827239 162.196816 167.248705 163.257629 167.248705 
z
" style="fill:#ffffff;stroke:#000000;"/>
      <path clip-path="url(#p20afcbcffc)" d="M 168.06003 163.057712 
C 169.120842 163.057712 170.138349 162.636246 170.888457 161.886139 
C 171.638565 161.136031 172.06003 160.118524 172.06003 159.057712 
C 172.06003 157.996899 171.638565 156.979392 170.888457 156.229284 
C 170.138349 155.479177 169.120842 155.057712 168.06003 155.057712 
C 166.999218 155.057712 165.981711 155.479177 165.231603 156.229284 
C 164.481495 156.979392 164.06003 157.996899 164.06003 159.057712 
C 164.06003 160.118524 164.481495 161.136031 165.231603 161.886139 
C 165.981711 162.636246 166.999218 163.057712 168.06003 163.057712 
z
" style="fill:#ffffff;stroke:#000000;"/>
      <path clip-path="url(#p20afcbcffc)" d="M 172.862431 140.208125 
C 173.923244 140.208125 174.940751 139.78666 175.690858 139.036552 
C 176.440966 138.286444 176.862431 137.268937 176.862431 136.208125 
C 176.862431 135.147313 176.440966 134.129805 175.690858 133.379698 
C 174.940751 132.62959 173.923244 132.208125 172.862431 132.208125 
C 171.801619 132.208125 170.784112 132.62959 170.034004 133.379698 
C 169.283896 134.129805 168.862431 135.147313 168.862431 136.208125 
C 168.862431 137.268937 169.283896 138.286444 170.034004 139.036552 
C 170.784112 139.78666 171.801619 140.208125 172.862431 140.208125 
z
" style="fill:#ffffff;stroke:#000000;"/>
      <path clip-path="url(#p20afcbcffc)" d="M 177.664832 136.049457 
C 178.725645 136.049457 179.743152 135.627991 180.49326 134.877884 
C 181.243367 134.127776 181.664832 133.110269 181.664832 132.049457 
C 181.664832 130.988644 181.243367 129.971137 180.49326 129.221029 
C 179.743152 128.470922 178.725645 128.049457 177.664832 128.049457 
C 176.60402 128.049457 175.586513 128.470922 174.836405 129.221029 
C 174.086298 129.971137 173.664832 130.988644 173.664832 132.049457 
C 173.664832 133.110269 174.086298 134.127776 174.836405 134.877884 
C 175.586513 135.627991 176.60402 136.049457 177.664832 136.049457 
z
" style="fill:#ffffff;stroke:#000000;"/>
      <path clip-path="url(#p20afcbcffc)" d="M 182.467234 130.628653 
C 183.528046 130.628653 184.545553 130.207188 185.295661 129.457081 
C 186.045768 128.706973 186.467234 127.689466 186.467234 126.628653 
C 186.467234 125.567841 186.045768 124.550334 185.295661 123.800226 
C 184.545553 123.050119 183.528046 122.628653 182.467234 122.628653 
C 181.406421 122.628653 180.388914 123.050119 179.638806 123.800226 
C 178.888699 124.550334 178.467234 125.567841 178.467234 126.628653 
C 178.467234 127.689466 178.888699 128.706973 179.638806 129.457081 
C 180.388914 130.207188 181.406421 130.628653 182.467234 130.628653 
z
" style="fill:#ffffff;stroke:#000000;"/>
      <path clip-path="url(#p20afcbcffc)" d="M 187.269635 119.811729 
C 188.330447 119.811729 189.347954 119.390263 190.098062 118.640156 
C 190.84817 117.890048 191.269635 116.872541 191.269635 115.811729 
C 191.269635 114.750916 190.84817 113.733409 190.098062 112.983301 
C 189.347954 112.233194 188.330447 111.811729 187.269635 111.811729 
C 186.208822 111.811729 185.191315 112.233194 184.441208 112.983301 
C 183.6911 113.733409 183.269635 114.750916 183.269635 115.811729 
C 183.269635 116.872541 183.6911 117.890048 184.441208 118.640156 
C 185.191315 119.390263 186.208822 119.811729 187.269635 119.811729 
z
" style="fill:#ffffff;stroke:#000000;"/>
      <path clip-path="url(#p20afcbcffc)" d="M 192.072036 120.095342 
C 193.132848 120.095342 194.150356 119.673877 194.900463 118.923769 
C 195.650571 118.173662 196.072036 117.156155 196.072036 116.095342 
C 196.072036 115.03453 195.650571 114.017023 194.900463 113.266915 
C 194.150356 112.516807 193.132848 112.095342 192.072036 112.095342 
C 191.011224 112.095342 189.993717 112.516807 189.243609 113.266915 
C 188.493501 114.017023 188.072036 115.03453 188.072036 116.095342 
C 188.072036 117.156155 188.493501 118.173662 189.243609 118.923769 
C 189.993717 119.673877 191.011224 120.095342 192.072036 120.095342 
z
" style="fill:#ffffff;stroke:#000000;"/>
      <path clip-path="url(#p20afcbcffc)" d="M 196.874437 97.337252 
C 197.93525 97.337252 198.952757 96.915786 199.702864 96.165679 
C 200.452972 95.415571 200.874437 94.398064 200.874437 93.337252 
C 200.874437 92.276439 200.452972 91.258932 199.702864 90.508824 
C 198.952757 89.758717 197.93525 89.337252 196.874437 89.337252 
C 195.813625 89.337252 194.796118 89.758717 194.04601 90.508824 
C 193.295902 91.258932 192.874437 92.276439 192.874437 93.337252 
C 192.874437 94.398064 193.295902 95.415571 194.04601 96.165679 
C 194.796118 96.915786 195.813625 97.337252 196.874437 97.337252 
z
" style="fill:#ffffff;stroke:#000000;"/>
      <path clip-path="url(#p20afcbcffc)" d="M 201.676838 97.832116 
C 202.737651 97.832116 203.755158 97.410651 204.505266 96.660543 
C 205.255373 95.910436 205.676838 94.892928 205.676838 93.832116 
C 205.676838 92.771304 205.255373 91.753797 204.505266 91.003689 
C 203.755158 90.253581 202.737651 89.832116 201.676838 89.832116 
C 200.616026 89.832116 199.598519 90.253581 198.848411 91.003689 
C 198.098304 91.753797 197.676838 92.771304 197.676838 93.832116 
C 197.676838 94.892928 198.098304 95.910436 198.848411 96.660543 
C 199.598519 97.410651 200.616026 97.832116 201.676838 97.832116 
z
" style="fill:#ffffff;stroke:#000000;"/>
      <path clip-path="url(#p20afcbcffc)" d="M 206.47924 89.044361 
C 207.540052 89.044361 208.557559 88.622896 209.307667 87.872788 
C 210.057774 87.122681 210.47924 86.105173 210.47924 85.044361 
C 210.47924 83.983549 210.057774 82.966042 209.307667 82.215934 
C 208.557559 81.465826 207.540052 81.044361 206.47924 81.044361 
C 205.418427 81.044361 204.40092 81.465826 203.650812 82.215934 
C 202.900705 82.966042 202.47924 83.983549 202.47924 85.044361 
C 202.47924 86.105173 202.900705 87.122681 203.650812 87.872788 
C 204.40092 88.622896 205.418427 89.044361 206.47924 89.044361 
z
" style="fill:#ffffff;stroke:#000000;"/>
      <path clip-path="url(#p20afcbcffc)" d="M 211.281641 80.400299 
C 212.342453 80.400299 213.35996 79.978833 214.110068 79.228726 
C 214.860176 78.478618 215.281641 77.461111 215.281641 76.400299 
C 215.281641 75.339486 214.860176 74.321979 214.110068 73.571872 
C 213.35996 72.821764 212.342453 72.400299 211.281641 72.400299 
C 210.220828 72.400299 209.203321 72.821764 208.453214 73.571872 
C 207.703106 74.321979 207.281641 75.339486 207.281641 76.400299 
C 207.281641 77.461111 207.703106 78.478618 208.453214 79.228726 
C 209.203321 79.978833 210.220828 80.400299 211.281641 80.400299 
z
" style="fill:#ffffff;stroke:#000000;"/>
      <path clip-path="url(#p20afcbcffc)" d="M 216.084042 79.14468 
C 217.144854 79.14468 218.162362 78.723215 218.912469 77.973108 
C 219.662577 77.223 220.084042 76.205493 220.084042 75.14468 
C 220.084042 74.083868 219.662577 73.066361 218.912469 72.316253 
C 218.162362 71.566146 217.144854 71.14468 216.084042 71.14468 
C 215.02323 71.14468 214.005723 71.566146 213.255615 72.316253 
C 212.505507 73.066361 212.084042 74.083868 212.084042 75.14468 
C 212.084042 76.205493 212.505507 77.223 213.255615 77.973108 
C 214.005723 78.723215 215.02323 79.14468 216.084042 79.14468 
z
" style="fill:#ffffff;stroke:#000000;"/>
      <path clip-path="url(#p20afcbcffc)" d="M 220.886443 57.311083 
C 221.947256 57.311083 222.964763 56.889617 223.71487 56.13951 
C 224.464978 55.389402 224.886443 54.371895 224.886443 53.311083 
C 224.886443 52.25027 224.464978 51.232763 223.71487 50.482655 
C 222.964763 49.732548 221.947256 49.311083 220.886443 49.311083 
C 219.825631 49.311083 218.808124 49.732548 218.058016 50.482655 
C 217.307908 51.232763 216.886443 52.25027 216.886443 53.311083 
C 216.886443 54.371895 217.307908 55.389402 218.058016 56.13951 
C 218.808124 56.889617 219.825631 57.311083 220.886443 57.311083 
z
" style="fill:#ffffff;stroke:#000000;"/>
      <path clip-path="url(#p20afcbcffc)" d="M 225.688844 47.948723 
C 226.749657 47.948723 227.767164 47.527258 228.517272 46.77715 
C 229.267379 46.027042 229.688844 45.009535 229.688844 43.948723 
C 229.688844 42.88791 229.267379 41.870403 228.517272 41.120296 
C 227.767164 40.370188 226.749657 39.948723 225.688844 39.948723 
C 224.628032 39.948723 223.610525 40.370188 222.860417 41.120296 
C 222.11031 41.870403 221.688844 42.88791 221.688844 43.948723 
C 221.688844 45.009535 222.11031 46.027042 222.860417 46.77715 
C 223.610525 47.527258 224.628032 47.948723 225.688844 47.948723 
z
" style="fill:#ffffff;stroke:#000000;"/>
      <path clip-path="url(#p20afcbcffc)" d="M 230.491246 41.833136 
C 231.552058 41.833136 232.569565 41.411671 233.319673 40.661563 
C 234.06978 39.911456 234.491246 38.893949 234.491246 37.833136 
C 234.491246 36.772324 234.06978 35.754817 233.319673 35.004709 
C 232.569565 34.254601 231.552058 33.833136 230.491246 33.833136 
C 229.430433 33.833136 228.412926 34.254601 227.662818 35.004709 
C 226.912711 35.754817 226.491246 36.772324 226.491246 37.833136 
C 226.491246 38.893949 226.912711 39.911456 227.662818 40.661563 
C 228.412926 41.411671 229.430433 41.833136 230.491246 41.833136 
z
" style="fill:#ffffff;stroke:#000000;"/>
      <path clip-path="url(#p20afcbcffc)" d="M 235.293647 33.817556 
C 236.354459 33.817556 237.371966 33.396091 238.122074 32.645983 
C 238.872182 31.895876 239.293647 30.878369 239.293647 29.817556 
C 239.293647 28.756744 238.872182 27.739237 238.122074 26.989129 
C 237.371966 26.239022 236.354459 25.817556 235.293647 25.817556 
C 234.232834 25.817556 233.215327 26.239022 232.46522 26.989129 
C 231.715112 27.739237 231.293647 28.756744 231.293647 29.817556 
C 231.293647 30.878369 231.715112 31.895876 232.46522 32.645983 
C 233.215327 33.396091 234.232834 33.817556 235.293647 33.817556 
z
" style="fill:#ffffff;stroke:#000000;"/>
      <path clip-path="url(#p20afcbcffc)" d="M 240 27.482217 
C 241.060812 27.482217 242.078319 27.060752 242.828427 26.310644 
C 243.578535 25.560536 244 24.543029 244 23.482217 
C 244 22.421404 243.578535 21.403897 242.828427 20.65379 
C 242.078319 19.903682 241.060812 19.482217 240 19.482217 
C 238.939188 19.482217 237.921681 19.903682 237.171573 20.65379 
C 236.421465 21.403897 236 22.421404 236 23.482217 
C 236 24.543029 236.421465 25.560536 237.171573 26.310644 
C 237.921681 27.060752 238.939188 27.482217 240 27.482217 
z
" style="fill:#ffffff;stroke:#000000;"/>
     </g>
     <g id="axes_3">
      <g id="matplotlib.axis_4">
       <g id="ytick_13">
        <path d="M 43.2 206.369052 
L 38.2 206.369052 
" style="fill:#fc000b;stroke:#fc000b;stroke-width:0.5;"/>
        <g id="text_15">
         <text style="fill:#fc000b;font-family:DejaVu Sans;font-size:12px;font-style:normal;font-weight:normal;text-anchor:end;" transform="rotate(-0, 34.2, 209.680302)" x="34.2" y="209.680302">0.0</text>
        </g>
       </g>
       <g id="ytick_14">
        <path d="M 43.2 123.604541 
L 38.2 123.604541 
" style="fill:#fc000b;stroke:#fc000b;stroke-width:0.5;"/>
        <g id="text_16">
         <text style="fill:#fc000b;font-family:DejaVu Sans;font-size:12px;font-style:normal;font-weight:normal;text-anchor:end;" transform="rotate(-0, 34.2, 126.915791)" x="34.2" y="126.915791">0.5</text>
        </g>
       </g>
       <g id="ytick_15">
        <path d="M 43.2 40.840031 
L 38.2 40.840031 
" style="fill:#fc000b;stroke:#fc000b;stroke-width:0.5;"/>
        <g id="text_17">
         <text style="fill:#fc000b;font-family:DejaVu Sans;font-size:12px;font-style:normal;font-weight:normal;text-anchor:end;" transform="rotate(-0, 34.2, 44.151281)" x="34.2" y="44.151281">1.0</text>
        </g>
       </g>
       <g id="ytick_16">
        <path d="M 43.2 164.986796 
L 40.7 164.986796 
" style="fill:#fc000b;stroke:#fc000b;stroke-width:0.5;"/>
       </g>
       <g id="ytick_17">
        <path d="M 43.2 82.222286 
L 40.7 82.222286 
" style="fill:#fc000b;stroke:#fc000b;stroke-width:0.5;"/>
       </g>
       <g id="text_18">
        <text style="fill:#fc000b;font-family:DejaVu Sans;font-size:14px;font-style:normal;font-weight:normal;text-anchor:middle;" transform="rotate(-90, 11.11625, 123.84)" x="11.11625" y="123.84">Equilibrium</text>
       </g>
      </g>
      <g id="patch_7">
       <path d="M 43.2 244.8 
L 43.2 2.88 
" style="fill:none;stroke:#fc000b;stroke-linecap:square;stroke-linejoin:miter;"/>
       <g id="patch_8">
        <path d="M 244.8 244.8 
L 244.8 2.88 
" style="fill:none;stroke:#0055ff;stroke-linecap:square;stroke-linejoin:miter;"/>
        <path clip-path="url(#p20afcbcffc)" d="M 43.2 40.842248 
L 69.32026 40.961303 
L 76.48064 41.202834 
L 81.018909 41.56572 
L 84.346973 42.045007 
L 86.969085 42.634463 
L 89.187794 43.350104 
L 91.103952 44.189458 
L 92.818409 45.169555 
L 94.432016 46.343741 
L 95.944772 47.719945 
L 97.356678 49.296928 
L 98.768584 51.211749 
L 100.18049 53.525113 
L 101.592396 56.303039 
L 103.004302 59.614582 
L 104.416208 63.5281 
L 105.828114 68.10582 
L 107.34087 73.802747 
L 108.954477 80.816593 
L 110.668934 89.311164 
L 112.685943 100.535716 
L 115.308054 116.554276 
L 120.653127 149.531527 
L 122.670135 160.451827 
L 124.485443 169.091339 
L 126.09905 175.747162 
L 127.611806 181.11659 
L 129.124562 185.688837 
L 130.536468 189.297408 
L 131.948374 192.337303 
L 133.36028 194.877793 
L 134.772186 196.986805 
L 136.284942 198.8398 
L 137.797699 200.340957 
L 139.411306 201.623699 
L 141.125763 202.695786 
L 142.941071 203.572744 
L 145.058929 204.338223 
L 147.47934 204.96222 
L 150.303152 205.453659 
L 153.832916 205.834862 
L 158.572886 206.110254 
L 165.733267 206.282581 
L 179.953177 206.359264 
L 244.8 206.369051 
L 244.8 206.369051 
" style="fill:none;stroke:#fc000b;stroke-width:2;"/>
        <g id="PolyCollection_2">
         <defs>
          <path d="M 48 -279.36 
L 48 -246.254196 
L 52.802401 -239.389064 
L 57.604802 -233.699252 
L 62.407204 -230.575909 
L 67.209605 -241.999888 
L 72.012006 -215.864014 
L 76.814407 -242.92357 
L 81.616808 -227.39622 
L 86.41921 -216.563109 
L 91.221611 -217.948623 
L 96.024012 -218.23184 
L 100.826413 -229.079389 
L 105.628814 -193.654732 
L 110.431216 -187.541936 
L 115.233617 -164.948253 
L 120.036018 -137.394666 
L 124.838419 -103.32013 
L 129.64082 -82.132554 
L 134.443222 -75.438452 
L 139.245623 -85.868588 
L 144.048024 -67.308366 
L 148.850425 -68.597337 
L 153.652826 -52.36281 
L 158.455228 -67.008267 
L 163.257629 -58.196502 
L 168.06003 -59.757728 
L 172.862431 -67.983132 
L 177.664832 -59.464512 
L 182.467234 -69.012062 
L 187.269635 -57.618595 
L 192.072036 -80.239707 
L 196.874437 -58.204898 
L 201.676838 -60.398517 
L 206.47924 -74.613987 
L 211.281641 -58.871502 
L 216.084042 -49.932874 
L 220.886443 -53.217549 
L 225.688844 -50.28069 
L 230.491246 -59.315211 
L 235.293647 -48.96 
L 240 -71.486688 
L 240 -104.592492 
L 240 -104.592492 
L 235.293647 -82.065804 
L 230.491246 -92.421015 
L 225.688844 -83.386494 
L 220.886443 -86.323353 
L 216.084042 -83.038678 
L 211.281641 -91.977306 
L 206.47924 -107.719791 
L 201.676838 -93.504321 
L 196.874437 -91.310702 
L 192.072036 -113.345511 
L 187.269635 -90.724399 
L 182.467234 -102.117866 
L 177.664832 -92.570316 
L 172.862431 -101.088936 
L 168.06003 -92.863532 
L 163.257629 -91.302306 
L 158.455228 -100.114071 
L 153.652826 -85.468614 
L 148.850425 -101.703141 
L 144.048024 -100.41417 
L 139.245623 -118.974392 
L 134.443222 -108.544256 
L 129.64082 -115.238358 
L 124.838419 -136.425935 
L 120.036018 -170.50047 
L 115.233617 -198.054057 
L 110.431216 -220.64774 
L 105.628814 -226.760536 
L 100.826413 -262.185193 
L 96.024012 -251.337644 
L 91.221611 -251.054428 
L 86.41921 -249.668913 
L 81.616808 -260.502024 
L 76.814407 -276.029374 
L 72.012006 -248.969818 
L 67.209605 -275.105692 
L 62.407204 -263.681713 
L 57.604802 -266.805056 
L 52.802401 -272.494868 
L 48 -279.36 
z
" id="me87a45d155"/>
         </defs>
         <g clip-path="url(#p20afcbcffc)">
          <use style="fill:#cc3333;fill-opacity:0.5;" x="0" xlink:href="#me87a45d155" y="288"/>
         </g>
        </g>
        <path clip-path="url(#p20afcbcffc)" d="M 44 29.192902 
L 52 29.192902 
L 52 21.192902 
L 44 21.192902 
z
" style="fill:#ffffff;stroke:#8e0007;stroke-linejoin:miter;"/>
        <path clip-path="url(#p20afcbcffc)" d="M 48.802401 36.058034 
L 56.802401 36.058034 
L 56.802401 28.058034 
L 48.802401 28.058034 
z
" style="fill:#ffffff;stroke:#8e0007;stroke-linejoin:miter;"/>
        <path clip-path="url(#p20afcbcffc)" d="M 53.604802 41.747846 
L 61.604802 41.747846 
L 61.604802 33.747846 
L 53.604802 33.747846 
z
" style="fill:#ffffff;stroke:#8e0007;stroke-linejoin:miter;"/>
        <path clip-path="url(#p20afcbcffc)" d="M 58.407204 44.871189 
L 66.407204 44.871189 
L 66.407204 36.871189 
L 58.407204 36.871189 
z
" style="fill:#ffffff;stroke:#8e0007;stroke-linejoin:miter;"/>
        <path clip-path="url(#p20afcbcffc)" d="M 63.209605 33.44721 
L 71.209605 33.44721 
L 71.209605 25.44721 
L 63.209605 25.44721 
z
" style="fill:#ffffff;stroke:#8e0007;stroke-linejoin:miter;"/>
        <path clip-path="url(#p20afcbcffc)" d="M 68.012006 59.583084 
L 76.012006 59.583084 
L 76.012006 51.583084 
L 68.012006 51.583084 
z
" style="fill:#ffffff;stroke:#8e0007;stroke-linejoin:miter;"/>
        <path clip-path="url(#p20afcbcffc)" d="M 72.814407 32.523528 
L 80.814407 32.523528 
L 80.814407 24.523528 
L 72.814407 24.523528 
z
" style="fill:#ffffff;stroke:#8e0007;stroke-linejoin:miter;"/>
        <path clip-path="url(#p20afcbcffc)" d="M 77.616808 48.050878 
L 85.616808 48.050878 
L 85.616808 40.050878 
L 77.616808 40.050878 
z
" style="fill:#ffffff;stroke:#8e0007;stroke-linejoin:miter;"/>
        <path clip-path="url(#p20afcbcffc)" d="M 82.41921 58.883989 
L 90.41921 58.883989 
L 90.41921 50.883989 
L 82.41921 50.883989 
z
" style="fill:#ffffff;stroke:#8e0007;stroke-linejoin:miter;"/>
        <path clip-path="url(#p20afcbcffc)" d="M 87.221611 57.498475 
L 95.221611 57.498475 
L 95.221611 49.498475 
L 87.221611 49.498475 
z
" style="fill:#ffffff;stroke:#8e0007;stroke-linejoin:miter;"/>
        <path clip-path="url(#p20afcbcffc)" d="M 92.024012 57.215258 
L 100.024012 57.215258 
L 100.024012 49.215258 
L 92.024012 49.215258 
z
" style="fill:#ffffff;stroke:#8e0007;stroke-linejoin:miter;"/>
        <path clip-path="url(#p20afcbcffc)" d="M 96.826413 46.367709 
L 104.826413 46.367709 
L 104.826413 38.367709 
L 96.826413 38.367709 
z
" style="fill:#ffffff;stroke:#8e0007;stroke-linejoin:miter;"/>
        <path clip-path="url(#p20afcbcffc)" d="M 101.628814 81.792366 
L 109.628814 81.792366 
L 109.628814 73.792366 
L 101.628814 73.792366 
z
" style="fill:#ffffff;stroke:#8e0007;stroke-linejoin:miter;"/>
        <path clip-path="url(#p20afcbcffc)" d="M 106.431216 87.905162 
L 114.431216 87.905162 
L 114.431216 79.905162 
L 106.431216 79.905162 
z
" style="fill:#ffffff;stroke:#8e0007;stroke-linejoin:miter;"/>
        <path clip-path="url(#p20afcbcffc)" d="M 111.233617 110.498845 
L 119.233617 110.498845 
L 119.233617 102.498845 
L 111.233617 102.498845 
z
" style="fill:#ffffff;stroke:#8e0007;stroke-linejoin:miter;"/>
        <path clip-path="url(#p20afcbcffc)" d="M 116.036018 138.052432 
L 124.036018 138.052432 
L 124.036018 130.052432 
L 116.036018 130.052432 
z
" style="fill:#ffffff;stroke:#8e0007;stroke-linejoin:miter;"/>
        <path clip-path="url(#p20afcbcffc)" d="M 120.838419 172.126967 
L 128.838419 172.126967 
L 128.838419 164.126967 
L 120.838419 164.126967 
z
" style="fill:#ffffff;stroke:#8e0007;stroke-linejoin:miter;"/>
        <path clip-path="url(#p20afcbcffc)" d="M 125.64082 193.314544 
L 133.64082 193.314544 
L 133.64082 185.314544 
L 125.64082 185.314544 
z
" style="fill:#ffffff;stroke:#8e0007;stroke-linejoin:miter;"/>
        <path clip-path="url(#p20afcbcffc)" d="M 130.443222 200.008646 
L 138.443222 200.008646 
L 138.443222 192.008646 
L 130.443222 192.008646 
z
" style="fill:#ffffff;stroke:#8e0007;stroke-linejoin:miter;"/>
        <path clip-path="url(#p20afcbcffc)" d="M 135.245623 189.57851 
L 143.245623 189.57851 
L 143.245623 181.57851 
L 135.245623 181.57851 
z
" style="fill:#ffffff;stroke:#8e0007;stroke-linejoin:miter;"/>
        <path clip-path="url(#p20afcbcffc)" d="M 140.048024 208.138732 
L 148.048024 208.138732 
L 148.048024 200.138732 
L 140.048024 200.138732 
z
" style="fill:#ffffff;stroke:#8e0007;stroke-linejoin:miter;"/>
        <path clip-path="url(#p20afcbcffc)" d="M 144.850425 206.849761 
L 152.850425 206.849761 
L 152.850425 198.849761 
L 144.850425 198.849761 
z
" style="fill:#ffffff;stroke:#8e0007;stroke-linejoin:miter;"/>
        <path clip-path="url(#p20afcbcffc)" d="M 149.652826 223.084288 
L 157.652826 223.084288 
L 157.652826 215.084288 
L 149.652826 215.084288 
z
" style="fill:#ffffff;stroke:#8e0007;stroke-linejoin:miter;"/>
        <path clip-path="url(#p20afcbcffc)" d="M 154.455228 208.438831 
L 162.455228 208.438831 
L 162.455228 200.438831 
L 154.455228 200.438831 
z
" style="fill:#ffffff;stroke:#8e0007;stroke-linejoin:miter;"/>
        <path clip-path="url(#p20afcbcffc)" d="M 159.257629 217.250596 
L 167.257629 217.250596 
L 167.257629 209.250596 
L 159.257629 209.250596 
z
" style="fill:#ffffff;stroke:#8e0007;stroke-linejoin:miter;"/>
        <path clip-path="url(#p20afcbcffc)" d="M 164.06003 215.68937 
L 172.06003 215.68937 
L 172.06003 207.68937 
L 164.06003 207.68937 
z
" style="fill:#ffffff;stroke:#8e0007;stroke-linejoin:miter;"/>
        <path clip-path="url(#p20afcbcffc)" d="M 168.862431 207.463966 
L 176.862431 207.463966 
L 176.862431 199.463966 
L 168.862431 199.463966 
z
" style="fill:#ffffff;stroke:#8e0007;stroke-linejoin:miter;"/>
        <path clip-path="url(#p20afcbcffc)" d="M 173.664832 215.982586 
L 181.664832 215.982586 
L 181.664832 207.982586 
L 173.664832 207.982586 
z
" style="fill:#ffffff;stroke:#8e0007;stroke-linejoin:miter;"/>
        <path clip-path="url(#p20afcbcffc)" d="M 178.467234 206.435036 
L 186.467234 206.435036 
L 186.467234 198.435036 
L 178.467234 198.435036 
z
" style="fill:#ffffff;stroke:#8e0007;stroke-linejoin:miter;"/>
        <path clip-path="url(#p20afcbcffc)" d="M 183.269635 217.828503 
L 191.269635 217.828503 
L 191.269635 209.828503 
L 183.269635 209.828503 
z
" style="fill:#ffffff;stroke:#8e0007;stroke-linejoin:miter;"/>
        <path clip-path="url(#p20afcbcffc)" d="M 188.072036 195.207391 
L 196.072036 195.207391 
L 196.072036 187.207391 
L 188.072036 187.207391 
z
" style="fill:#ffffff;stroke:#8e0007;stroke-linejoin:miter;"/>
        <path clip-path="url(#p20afcbcffc)" d="M 192.874437 217.2422 
L 200.874437 217.2422 
L 200.874437 209.2422 
L 192.874437 209.2422 
z
" style="fill:#ffffff;stroke:#8e0007;stroke-linejoin:miter;"/>
        <path clip-path="url(#p20afcbcffc)" d="M 197.676838 215.048581 
L 205.676838 215.048581 
L 205.676838 207.048581 
L 197.676838 207.048581 
z
" style="fill:#ffffff;stroke:#8e0007;stroke-linejoin:miter;"/>
        <path clip-path="url(#p20afcbcffc)" d="M 202.47924 200.833111 
L 210.47924 200.833111 
L 210.47924 192.833111 
L 202.47924 192.833111 
z
" style="fill:#ffffff;stroke:#8e0007;stroke-linejoin:miter;"/>
        <path clip-path="url(#p20afcbcffc)" d="M 207.281641 216.575596 
L 215.281641 216.575596 
L 215.281641 208.575596 
L 207.281641 208.575596 
z
" style="fill:#ffffff;stroke:#8e0007;stroke-linejoin:miter;"/>
        <path clip-path="url(#p20afcbcffc)" d="M 212.084042 225.514224 
L 220.084042 225.514224 
L 220.084042 217.514224 
L 212.084042 217.514224 
z
" style="fill:#ffffff;stroke:#8e0007;stroke-linejoin:miter;"/>
        <path clip-path="url(#p20afcbcffc)" d="M 216.886443 222.229549 
L 224.886443 222.229549 
L 224.886443 214.229549 
L 216.886443 214.229549 
z
" style="fill:#ffffff;stroke:#8e0007;stroke-linejoin:miter;"/>
        <path clip-path="url(#p20afcbcffc)" d="M 221.688844 225.166408 
L 229.688844 225.166408 
L 229.688844 217.166408 
L 221.688844 217.166408 
z
" style="fill:#ffffff;stroke:#8e0007;stroke-linejoin:miter;"/>
        <path clip-path="url(#p20afcbcffc)" d="M 226.491246 216.131887 
L 234.491246 216.131887 
L 234.491246 208.131887 
L 226.491246 208.131887 
z
" style="fill:#ffffff;stroke:#8e0007;stroke-linejoin:miter;"/>
        <path clip-path="url(#p20afcbcffc)" d="M 231.293647 226.487098 
L 239.293647 226.487098 
L 239.293647 218.487098 
L 231.293647 218.487098 
z
" style="fill:#ffffff;stroke:#8e0007;stroke-linejoin:miter;"/>
        <path clip-path="url(#p20afcbcffc)" d="M 236 203.96041 
L 244 203.96041 
L 244 195.96041 
L 236 195.96041 
z
" style="fill:#ffffff;stroke:#8e0007;stroke-linejoin:miter;"/>
       </g>
      </g>
      <defs>
       <clipPath id="p20afcbcffc">
        <rect height="241.92" width="201.6" x="43.2" y="2.88"/>
       </clipPath>
      </defs>
     </g>
    </g>
   </g>
  </g>
 </g>
</svg>
