<?xml version="1.0" encoding="utf-8" standalone="no"?>
<!DOCTYPE svg PUBLIC "-//W3C//DTD SVG 1.1//EN"
  "http://www.w3.org/Graphics/SVG/1.1/DTD/svg11.dtd">
<!-- Created with matplotlib (https://matplotlib.org/) -->
<svg height="288pt" version="1.1" viewBox="0 0 288 288" width="288pt" xmlns="http://www.w3.org/2000/svg" xmlns:xlink="http://www.w3.org/1999/xlink">
 <defs>
  <style type="text/css">
*{stroke-linecap:butt;stroke-linejoin:round;}
  </style>
 </defs>
 <g id="figure_1">
  <g id="patch_1">
   <path d="M 0 288 
L 288 288 
L 288 0 
L 0 0 
z
" style="fill:#ffffff;"/>
  </g>
  <g id="axes_1">
   <g id="patch_2">
    <path d="M 28.8 259.2 
L 285.12 259.2 
L 285.12 2.88 
L 28.8 2.88 
z
" style="fill:none;"/>
   </g>
   <g id="matplotlib.axis_1"/>
  </g>
  <g id="axes_2">
   <g id="patch_3">
    <path d="M 28.8 259.2 
L 285.12 259.2 
L 285.12 2.88 
L 28.8 2.88 
z
" style="fill:#e6e6e6;"/>
   </g>
   <g id="matplotlib.axis_2">
    <g id="xtick_1">
     <path clip-path="url(#p8b203274b1)" d="M 85.76 259.2 
L 85.76 2.88 
" style="fill:none;stroke:#ffffff;stroke-width:0.5;"/>
     <path d="M 85.76 259.2 
L 85.76 257.2 
" style="fill:#333333;stroke:#333333;stroke-width:0.5;"/>
     <g id="text_1">
      <text style="fill:#333333;font-family:Futura Bk BT;font-size:9px;font-style:normal;font-weight:normal;text-anchor:middle;" transform="rotate(-0, 85.76, 270.011875)" x="85.76" y="270.011875">5</text>
     </g>
    </g>
    <g id="xtick_2">
     <path clip-path="url(#p8b203274b1)" d="M 156.96 259.2 
L 156.96 2.88 
" style="fill:none;stroke:#ffffff;stroke-width:0.5;"/>
     <path d="M 156.96 259.2 
L 156.96 257.2 
" style="fill:#333333;stroke:#333333;stroke-width:0.5;"/>
     <g id="text_2">
      <text style="fill:#333333;font-family:Futura Bk BT;font-size:9px;font-style:normal;font-weight:normal;text-anchor:middle;" transform="rotate(-0, 156.96, 270.011875)" x="156.96" y="270.011875">10</text>
     </g>
    </g>
    <g id="xtick_3">
     <path clip-path="url(#p8b203274b1)" d="M 228.16 259.2 
L 228.16 2.88 
" style="fill:none;stroke:#ffffff;stroke-width:0.5;"/>
     <path d="M 228.16 259.2 
L 228.16 257.2 
" style="fill:#333333;stroke:#333333;stroke-width:0.5;"/>
     <g id="text_3">
      <text style="fill:#333333;font-family:Futura Bk BT;font-size:9px;font-style:normal;font-weight:normal;text-anchor:middle;" transform="rotate(-0, 228.16, 270.011875)" x="228.16" y="270.011875">15</text>
     </g>
    </g>
    <g id="xtick_4">
     <path d="M 50.16 259.2 
L 50.16 258.2 
" style="fill:#333333;stroke:#333333;stroke-width:0.5;"/>
    </g>
    <g id="xtick_5">
     <path d="M 121.36 259.2 
L 121.36 258.2 
" style="fill:#333333;stroke:#333333;stroke-width:0.5;"/>
    </g>
    <g id="xtick_6">
     <path d="M 192.56 259.2 
L 192.56 258.2 
" style="fill:#333333;stroke:#333333;stroke-width:0.5;"/>
    </g>
    <g id="xtick_7">
     <path d="M 263.76 259.2 
L 263.76 258.2 
" style="fill:#333333;stroke:#333333;stroke-width:0.5;"/>
    </g>
    <g id="text_4">
     <text style="fill:#333333;font-family:Futura Bk BT;font-size:10px;font-style:normal;font-weight:normal;text-anchor:middle;" transform="rotate(-0, 156.96, 283.540937)" x="156.96" y="283.540937">Time (days)</text>
    </g>
   </g>
  </g>
  <g id="axes_3">
   <g id="matplotlib.axis_3">
    <g id="ytick_1">
     <path clip-path="url(#p8b203274b1)" d="M 28.8 259.2 
L 285.12 259.2 
" style="fill:none;stroke:#ffffff;stroke-width:0.5;"/>
     <path d="M 28.8 259.2 
L 30.8 259.2 
" style="fill:#333333;stroke:#333333;stroke-width:0.5;"/>
     <g id="text_5">
      <text style="fill:#333333;font-family:Futura Bk BT;font-size:9px;font-style:normal;font-weight:normal;text-anchor:end;" transform="rotate(-0, 24.8, 261.625781)" x="24.8" y="261.625781">0</text>
     </g>
    </g>
    <g id="ytick_2">
     <path clip-path="url(#p8b203274b1)" d="M 28.8 198.171429 
L 285.12 198.171429 
" style="fill:none;stroke:#ffffff;stroke-width:0.5;"/>
     <path d="M 28.8 198.171429 
L 30.8 198.171429 
" style="fill:#333333;stroke:#333333;stroke-width:0.5;"/>
     <g id="text_6">
      <text style="fill:#333333;font-family:Futura Bk BT;font-size:9px;font-style:normal;font-weight:normal;text-anchor:end;" transform="rotate(-0, 24.8, 200.59721)" x="24.8" y="200.59721">5</text>
     </g>
    </g>
    <g id="ytick_3">
     <path clip-path="url(#p8b203274b1)" d="M 28.8 137.142857 
L 285.12 137.142857 
" style="fill:none;stroke:#ffffff;stroke-width:0.5;"/>
     <path d="M 28.8 137.142857 
L 30.8 137.142857 
" style="fill:#333333;stroke:#333333;stroke-width:0.5;"/>
     <g id="text_7">
      <text style="fill:#333333;font-family:Futura Bk BT;font-size:9px;font-style:normal;font-weight:normal;text-anchor:end;" transform="rotate(-0, 24.8, 139.568638)" x="24.8" y="139.568638">10</text>
     </g>
    </g>
    <g id="ytick_4">
     <path clip-path="url(#p8b203274b1)" d="M 28.8 76.114286 
L 285.12 76.114286 
" style="fill:none;stroke:#ffffff;stroke-width:0.5;"/>
     <path d="M 28.8 76.114286 
L 30.8 76.114286 
" style="fill:#333333;stroke:#333333;stroke-width:0.5;"/>
     <g id="text_8">
      <text style="fill:#333333;font-family:Futura Bk BT;font-size:9px;font-style:normal;font-weight:normal;text-anchor:end;" transform="rotate(-0, 24.8, 78.540067)" x="24.8" y="78.540067">15</text>
     </g>
    </g>
    <g id="ytick_5">
     <path clip-path="url(#p8b203274b1)" d="M 28.8 15.085714 
L 285.12 15.085714 
" style="fill:none;stroke:#ffffff;stroke-width:0.5;"/>
     <path d="M 28.8 15.085714 
L 30.8 15.085714 
" style="fill:#333333;stroke:#333333;stroke-width:0.5;"/>
     <g id="text_9">
      <text style="fill:#333333;font-family:Futura Bk BT;font-size:9px;font-style:normal;font-weight:normal;text-anchor:end;" transform="rotate(-0, 24.8, 17.511496)" x="24.8" y="17.511496">20</text>
     </g>
    </g>
    <g id="ytick_6">
     <path d="M 28.8 228.685714 
L 29.8 228.685714 
" style="fill:#333333;stroke:#333333;stroke-width:0.5;"/>
    </g>
    <g id="ytick_7">
     <path d="M 28.8 167.657143 
L 29.8 167.657143 
" style="fill:#333333;stroke:#333333;stroke-width:0.5;"/>
    </g>
    <g id="ytick_8">
     <path d="M 28.8 106.628571 
L 29.8 106.628571 
" style="fill:#333333;stroke:#333333;stroke-width:0.5;"/>
    </g>
    <g id="ytick_9">
     <path d="M 28.8 45.6 
L 29.8 45.6 
" style="fill:#333333;stroke:#333333;stroke-width:0.5;"/>
    </g>
    <g id="text_10">
     <text style="fill:#333333;font-family:Futura Bk BT;font-size:10px;font-style:normal;font-weight:normal;text-anchor:middle;" transform="rotate(-90, 10.182813, 131.04)" x="10.182813" y="131.04">Population</text>
    </g>
   </g>
   <g id="PolyCollection_1">
    <path clip-path="url(#p8b203274b1)" d="M 14.56 259.2 
L 14.56 259.2 
L 21.68 259.2 
L 28.8 259.2 
L 35.92 259.2 
L 43.04 259.2 
L 50.16 259.2 
L 57.28 259.2 
L 64.4 259.2 
L 71.52 259.2 
L 78.64 259.2 
L 85.76 259.2 
L 92.88 259.2 
L 100 259.2 
L 107.12 259.2 
L 114.24 259.2 
L 121.36 259.2 
L 128.48 259.2 
L 135.6 259.2 
L 142.72 259.2 
L 149.84 259.2 
L 156.96 259.2 
L 164.08 259.2 
L 171.2 259.2 
L 178.32 259.2 
L 185.44 259.2 
L 192.56 259.2 
L 199.68 259.2 
L 206.8 259.2 
L 213.92 259.2 
L 221.04 259.2 
L 228.16 259.2 
L 235.28 259.2 
L 242.4 259.2 
L 249.52 259.2 
L 256.64 259.2 
L 263.76 259.2 
L 270.88 259.2 
L 278 259.2 
L 285.12 259.2 
L 292.24 259.2 
L 299.36 259.2 
L 306.48 259.2 
L 313.6 259.2 
L 320.72 259.2 
L 327.84 259.2 
L 334.96 259.2 
L 342.08 259.2 
L 349.2 259.2 
L 356.32 259.2 
L 363.44 259.2 
L 370.56 259.2 
L 377.68 259.2 
L 384.8 259.2 
L 391.92 259.2 
L 399.04 259.2 
L 406.16 259.2 
L 413.28 259.2 
L 420.4 259.2 
L 427.52 259.2 
L 434.64 259.2 
L 441.76 259.2 
L 448.88 259.2 
L 456 259.2 
L 463.12 259.2 
L 470.24 259.2 
L 477.36 259.2 
L 484.48 259.2 
L 491.6 259.2 
L 498.72 259.2 
L 505.84 259.2 
L 512.96 259.2 
L 520.08 259.2 
L 527.2 259.2 
L 534.32 259.2 
L 541.44 259.2 
L 548.56 259.2 
L 555.68 259.2 
L 562.8 259.2 
L 569.92 259.2 
L 577.04 259.2 
L 584.16 259.2 
L 584.16 259.2 
L 584.16 163.566638 
L 577.04 193.983966 
L 569.92 225.176014 
L 562.8 241.348671 
L 555.68 242.876579 
L 548.56 245.967479 
L 541.44 248.57325 
L 534.32 244.878915 
L 527.2 245.35111 
L 520.08 239.527809 
L 512.96 235.138051 
L 505.84 232.087932 
L 498.72 218.161834 
L 491.6 201.308137 
L 484.48 180.765672 
L 477.36 174.599774 
L 470.24 154.687182 
L 463.12 175.905065 
L 456 198.064805 
L 448.88 229.469358 
L 441.76 241.637736 
L 434.64 246.857444 
L 427.52 246.967133 
L 420.4 246.985316 
L 413.28 247.724126 
L 406.16 242.330867 
L 399.04 236.224647 
L 391.92 230.948901 
L 384.8 224.766566 
L 377.68 220.902341 
L 370.56 198.350879 
L 363.44 183.862717 
L 356.32 174.648728 
L 349.2 158.92604 
L 342.08 179.339871 
L 334.96 215.75991 
L 327.84 231.417093 
L 320.72 244.190947 
L 313.6 247.553602 
L 306.48 245.983212 
L 299.36 206.681863 
L 292.24 17.158097 
L 285.12 8.063901 
L 278 30.309638 
L 270.88 108.240502 
L 263.76 152.696918 
L 256.64 180.195169 
L 249.52 204.292946 
L 242.4 217.142668 
L 235.28 228.593931 
L 228.16 234.369843 
L 221.04 241.82718 
L 213.92 241.259528 
L 206.8 237.681835 
L 199.68 237.246887 
L 192.56 215.251574 
L 185.44 189.905232 
L 178.32 114.401533 
L 171.2 11.669307 
L 164.08 25.108035 
L 156.96 86.060315 
L 149.84 127.047001 
L 142.72 170.88699 
L 135.6 187.146393 
L 128.48 216.900289 
L 121.36 222.782279 
L 114.24 231.656598 
L 107.12 238.348075 
L 100 242.404276 
L 92.88 243.693038 
L 85.76 238.254648 
L 78.64 234.706197 
L 71.52 214.588906 
L 64.4 162.729274 
L 57.28 95.379842 
L 50.16 54.979395 
L 43.04 9.812004 
L 35.92 112.90104 
L 28.8 145.424667 
L 21.68 160.676472 
L 14.56 190.337247 
z
" style="fill:#7de23a;fill-opacity:0.686275;stroke:#4c4c4c;stroke-width:0.5;"/>
   </g>
   <g id="PolyCollection_2">
    <path clip-path="url(#p8b203274b1)" d="M -270.24 259.2 
L -270.24 259.2 
L -263.12 259.2 
L -256 259.2 
L -248.88 259.2 
L -241.76 259.2 
L -234.64 259.2 
L -227.52 259.2 
L -220.4 259.2 
L -213.28 259.2 
L -206.16 259.2 
L -199.04 259.2 
L -191.92 259.2 
L -184.8 259.2 
L -177.68 259.2 
L -170.56 259.2 
L -163.44 259.2 
L -156.32 259.2 
L -149.2 259.2 
L -142.08 259.2 
L -134.96 259.2 
L -127.84 259.2 
L -120.72 259.2 
L -113.6 259.2 
L -106.48 259.2 
L -99.36 259.2 
L -92.24 259.2 
L -85.12 259.2 
L -78 259.2 
L -70.88 259.2 
L -63.76 259.2 
L -56.64 259.2 
L -49.52 259.2 
L -42.4 259.2 
L -35.28 259.2 
L -28.16 259.2 
L -21.04 259.2 
L -13.92 259.2 
L -6.8 259.2 
L 0.32 259.2 
L 7.44 259.2 
L 14.56 259.2 
L 21.68 259.2 
L 28.8 259.2 
L 35.92 259.2 
L 43.04 259.2 
L 50.16 259.2 
L 57.28 259.2 
L 64.4 259.2 
L 71.52 259.2 
L 78.64 259.2 
L 85.76 259.2 
L 92.88 259.2 
L 100 259.2 
L 107.12 259.2 
L 114.24 259.2 
L 121.36 259.2 
L 128.48 259.2 
L 135.6 259.2 
L 142.72 259.2 
L 149.84 259.2 
L 156.96 259.2 
L 164.08 259.2 
L 171.2 259.2 
L 178.32 259.2 
L 185.44 259.2 
L 192.56 259.2 
L 199.68 259.2 
L 206.8 259.2 
L 213.92 259.2 
L 221.04 259.2 
L 228.16 259.2 
L 235.28 259.2 
L 242.4 259.2 
L 249.52 259.2 
L 256.64 259.2 
L 263.76 259.2 
L 270.88 259.2 
L 278 259.2 
L 285.12 259.2 
L 292.24 259.2 
L 299.36 259.2 
L 299.36 259.2 
L 299.36 163.566638 
L 292.24 193.983966 
L 285.12 225.176014 
L 278 241.348671 
L 270.88 242.876579 
L 263.76 245.967479 
L 256.64 248.57325 
L 249.52 244.878915 
L 242.4 245.35111 
L 235.28 239.527809 
L 228.16 235.138051 
L 221.04 232.087932 
L 213.92 218.161834 
L 206.8 201.308137 
L 199.68 180.765672 
L 192.56 174.599774 
L 185.44 154.687182 
L 178.32 175.905065 
L 171.2 198.064805 
L 164.08 229.469358 
L 156.96 241.637736 
L 149.84 246.857444 
L 142.72 246.967133 
L 135.6 246.985316 
L 128.48 247.724126 
L 121.36 242.330867 
L 114.24 236.224647 
L 107.12 230.948901 
L 100 224.766566 
L 92.88 220.902341 
L 85.76 198.350879 
L 78.64 183.862717 
L 71.52 174.648728 
L 64.4 158.92604 
L 57.28 179.339871 
L 50.16 215.75991 
L 43.04 231.417093 
L 35.92 244.190947 
L 28.8 247.553602 
L 21.68 245.983212 
L 14.56 206.681863 
L 7.44 17.158097 
L 0.32 8.063901 
L -6.8 30.309638 
L -13.92 108.240502 
L -21.04 152.696918 
L -28.16 180.195169 
L -35.28 204.292946 
L -42.4 217.142668 
L -49.52 228.593931 
L -56.64 234.369843 
L -63.76 241.82718 
L -70.88 241.259528 
L -78 237.681835 
L -85.12 237.246887 
L -92.24 215.251574 
L -99.36 189.905232 
L -106.48 114.401533 
L -113.6 11.669307 
L -120.72 25.108035 
L -127.84 86.060315 
L -134.96 127.047001 
L -142.08 170.88699 
L -149.2 187.146393 
L -156.32 216.900289 
L -163.44 222.782279 
L -170.56 231.656598 
L -177.68 238.348075 
L -184.8 242.404276 
L -191.92 243.693038 
L -199.04 238.254648 
L -206.16 234.706197 
L -213.28 214.588906 
L -220.4 162.729274 
L -227.52 95.379842 
L -234.64 54.979395 
L -241.76 9.812004 
L -248.88 112.90104 
L -256 145.424667 
L -263.12 160.676472 
L -270.24 190.337247 
z
" style="fill:#348abd;fill-opacity:0.686275;stroke:#4c4c4c;stroke-width:0.5;"/>
   </g>
   <path clip-path="url(#p8b203274b1)" d="M 28.664652 246.885789 
L 30.801721 246.180853 
L 32.653847 245.346367 
L 34.363502 244.349781 
L 36.073157 243.08753 
L 37.64034 241.646412 
L 39.065053 240.051942 
L 40.489765 238.134816 
L 41.914477 235.837168 
L 43.33919 233.094811 
L 44.763902 229.840339 
L 46.188614 226.009069 
L 47.613327 221.548772 
L 49.18051 215.886346 
L 50.890165 208.842231 
L 53.027234 199.027967 
L 57.586313 177.726539 
L 59.153497 171.663874 
L 60.435738 167.601232 
L 61.433037 165.079016 
L 62.430335 163.141771 
L 63.285163 161.947689 
L 63.997519 161.273492 
L 64.709875 160.879304 
L 65.422231 160.750678 
L 66.134587 160.870711 
L 66.846943 161.220829 
L 67.701771 161.917114 
L 68.69907 163.066664 
L 69.838839 164.759294 
L 71.263552 167.332547 
L 72.973207 170.916866 
L 75.395218 176.570385 
L 85.368204 200.466617 
L 88.3601 206.760458 
L 91.067054 211.957688 
L 93.774007 216.679193 
L 96.338489 220.726694 
L 98.902971 224.381336 
L 101.467454 227.668097 
L 104.031936 230.613643 
L 106.738889 233.382238 
L 109.445843 235.8309 
L 112.152796 237.988153 
L 115.002221 239.972822 
L 117.851646 241.69082 
L 120.843542 243.23366 
L 123.835438 244.531741 
L 126.969805 245.648951 
L 130.104172 246.532288 
L 133.238539 247.189148 
L 136.372906 247.617928 
L 139.364802 247.802371 
L 142.214227 247.750787 
L 144.778709 247.483778 
L 147.058249 247.035986 
L 149.195318 246.396664 
L 151.189915 245.563934 
L 153.042041 244.538305 
L 154.751696 243.325533 
L 156.318879 241.939553 
L 157.886063 240.235326 
L 159.310775 238.355022 
L 160.735488 236.100664 
L 162.1602 233.408628 
L 163.584912 230.211626 
L 165.009625 226.444299 
L 166.434337 222.052508 
L 168.001521 216.466371 
L 169.711176 209.497898 
L 171.848244 199.747357 
L 176.692266 177.167949 
L 178.116978 171.693936 
L 179.39922 167.625389 
L 180.396518 165.098212 
L 181.393817 163.155908 
L 182.248644 161.957552 
L 182.961001 161.279912 
L 183.673357 160.882436 
L 184.385713 160.750711 
L 185.098069 160.867861 
L 185.810425 161.215326 
L 186.665253 161.908742 
L 187.662551 163.055382 
L 188.802321 164.74524 
L 190.227034 167.315796 
L 191.936688 170.897859 
L 194.358699 176.549639 
L 204.331686 200.447791 
L 207.323582 206.743247 
L 210.030535 211.941991 
L 212.737489 216.664985 
L 215.301971 220.713837 
L 217.866453 224.369752 
L 220.430935 227.657698 
L 222.995418 230.604339 
L 225.702371 233.373994 
L 228.409325 235.823624 
L 231.116278 237.981756 
L 233.965703 239.967267 
L 236.815128 241.686029 
L 239.807024 243.2296 
L 242.798919 244.528355 
L 245.933287 245.646221 
L 249.067654 246.530183 
L 252.202021 247.18766 
L 255.336388 247.617075 
L 258.328284 247.802177 
L 261.177709 247.751308 
L 263.742191 247.485062 
L 266.021731 247.038092 
L 268.158799 246.399714 
L 270.153397 245.568073 
L 272.005523 244.543694 
L 273.715178 243.332342 
L 275.282361 241.947942 
L 276.849545 240.245622 
L 278.274257 238.367388 
L 279.698969 236.115464 
L 281.123682 233.426261 
L 282.548394 230.232497 
L 283.973107 226.468779 
L 285.255348 222.548855 
L 285.255348 222.548855 
" style="fill:none;stroke:#3d3d3d;stroke-width:0.7;"/>
   <path clip-path="url(#p8b203274b1)" d="M 28.743012 137.002242 
L 31.136528 122.067836 
L 33.829235 103.856608 
L 38.017889 73.71855 
L 41.009785 52.703753 
L 42.804922 41.436649 
L 44.30087 33.472036 
L 45.497629 28.403508 
L 46.395198 25.550012 
L 46.993577 24.167461 
L 47.591956 23.242383 
L 48.190335 22.808692 
L 48.489525 22.786036 
L 48.788714 22.897719 
L 49.387094 23.5372 
L 49.985473 24.750223 
L 50.583852 26.554154 
L 51.182231 28.959602 
L 52.0798 33.699689 
L 52.977369 39.771225 
L 54.174127 49.80516 
L 55.370885 61.77206 
L 57.166023 82.392824 
L 62.850625 150.655285 
L 64.645763 168.462905 
L 66.141711 181.203261 
L 67.637659 192.068979 
L 69.133607 201.2078 
L 70.629555 208.820535 
L 72.125503 215.122445 
L 73.621451 220.319695 
L 75.117399 224.597275 
L 76.613347 228.114481 
L 78.109295 231.004837 
L 79.605243 233.378279 
L 81.101191 235.324254 
L 82.597139 236.914968 
L 84.093087 238.20841 
L 85.888224 239.432796 
L 87.683362 240.358143 
L 89.478499 241.032059 
L 91.273637 241.490452 
L 93.367964 241.788178 
L 95.462291 241.859152 
L 97.556618 241.723544 
L 99.950135 241.330817 
L 102.343652 240.691583 
L 104.737169 239.804392 
L 107.130685 238.659886 
L 109.524202 237.241537 
L 111.618529 235.757659 
L 113.712856 234.02648 
L 115.807184 232.024119 
L 117.901511 229.722554 
L 119.995838 227.089437 
L 122.090165 224.087894 
L 124.184492 220.676318 
L 126.278819 216.808198 
L 128.373147 212.432024 
L 130.467474 207.491324 
L 132.561801 201.924928 
L 134.656128 195.667556 
L 136.750455 188.650917 
L 138.844782 180.805539 
L 140.93911 172.06366 
L 143.033437 162.363654 
L 145.127764 151.656614 
L 147.521281 138.154376 
L 149.914797 123.323866 
L 152.607504 105.209753 
L 156.496968 77.296289 
L 160.087244 52.00378 
L 161.882381 40.826265 
L 163.378329 32.974068 
L 164.575088 28.023204 
L 165.472656 25.274826 
L 166.071036 23.970316 
L 166.669415 23.129399 
L 167.267794 22.785604 
L 167.566983 22.809878 
L 167.866173 22.969702 
L 168.464552 23.70869 
L 169.062931 25.024724 
L 169.661311 26.934054 
L 170.25969 29.445997 
L 171.157259 34.344693 
L 172.054827 40.568724 
L 173.251586 50.786958 
L 174.747534 66.183108 
L 176.542671 87.331788 
L 181.329705 145.309242 
L 183.124842 163.842723 
L 184.62079 177.216687 
L 186.116738 188.687864 
L 187.612686 198.375228 
L 189.108634 206.467181 
L 190.604582 213.177497 
L 192.10053 218.717152 
L 193.596478 223.278909 
L 195.092426 227.030705 
L 196.588374 230.114391 
L 198.084322 232.647359 
L 199.58027 234.725445 
L 201.076218 236.426186 
L 202.572166 237.811947 
L 204.068114 238.932683 
L 205.863252 239.983316 
L 207.658389 240.763132 
L 209.453527 241.312839 
L 211.547854 241.70362 
L 213.642181 241.857492 
L 215.736508 241.798202 
L 218.130025 241.488262 
L 220.523542 240.930354 
L 222.917059 240.125895 
L 225.310575 239.068038 
L 227.704092 237.742574 
L 230.097609 236.128395 
L 232.191936 234.457425 
L 234.286263 232.521261 
L 236.38059 230.292871 
L 238.474917 227.740944 
L 240.569245 224.829688 
L 242.663572 221.518629 
L 244.757899 217.762422 
L 246.852226 213.510735 
L 248.946553 208.708253 
L 251.04088 203.294872 
L 253.135208 197.206202 
L 255.229535 190.374529 
L 257.323862 182.730444 
L 259.418189 174.20545 
L 261.512516 164.735975 
L 263.606843 154.269383 
L 266.00036 141.045799 
L 268.393877 126.482918 
L 271.086583 108.625148 
L 274.676858 83.056208 
L 278.865513 53.293619 
L 280.66065 41.953452 
L 282.156598 33.896592 
L 283.353357 28.73114 
L 284.250925 25.790825 
L 284.849305 24.343698 
L 285.148494 23.787562 
L 285.148494 23.787562 
" style="fill:none;stroke:#3d3d3d;stroke-width:0.7;"/>
   <g id="patch_4">
    <path d="M 76.360285 89.54245 
L 82.178667 89.949443 
Q 66.542885 108.36274 51.726333 127.3495 
L 54.921253 127.144814 
Q 51.070094 130.553917 45.908164 133.04548 
Q 46.482395 127.342527 48.367397 122.557115 
L 49.268638 125.629113 
Q 62.037109 105.208697 73.986348 84.21482 
L 76.360285 89.54245 
z
" style="fill:#ffffff;fill-opacity:0.7;stroke:#000000;stroke-linecap:round;stroke-width:0.5;"/>
    <g id="text_11">
     <text style="font-family:Futura Bk BT;font-size:10px;font-style:normal;font-weight:normal;text-anchor:middle;" transform="rotate(-0, 85.76, 78.809598)" x="85.76" y="78.809598">Prey</text>
    </g>
    <g id="patch_5">
     <path d="M 104.840285 150.571021 
L 110.658667 150.978015 
Q 95.022885 169.391312 80.206333 188.378071 
L 83.401253 188.173385 
Q 79.550094 191.582488 74.388164 194.074051 
Q 74.962395 188.371099 76.847397 183.585686 
L 77.748638 186.657684 
Q 90.517109 166.237269 102.466348 145.243391 
L 104.840285 150.571021 
z
" style="fill:#ffffff;fill-opacity:0.7;stroke:#000000;stroke-linecap:round;stroke-width:0.5;"/>
     <g id="text_12">
      <text style="font-family:Futura Bk BT;font-size:10px;font-style:normal;font-weight:normal;text-anchor:middle;" transform="rotate(-0, 114.24, 139.83817)" x="114.24" y="139.83817">Predator</text>
     </g>
    </g>
   </g>
   <defs>
    <clipPath id="p8b203274b1">
     <rect height="256.32" width="256.32" x="28.8" y="2.88"/>
    </clipPath>
   </defs>
  </g>
 </g>
</svg>
