<?xml version="1.0" encoding="utf-8" standalone="no"?>
<!DOCTYPE svg PUBLIC "-//W3C//DTD SVG 1.1//EN"
  "http://www.w3.org/Graphics/SVG/1.1/DTD/svg11.dtd">
<!-- Created with matplotlib (https://matplotlib.org/) -->
<svg height="288pt" version="1.1" viewBox="0 0 288 288" width="288pt" xmlns="http://www.w3.org/2000/svg" xmlns:xlink="http://www.w3.org/1999/xlink">
 <defs>
  <style type="text/css">
*{stroke-linecap:butt;stroke-linejoin:round;}
  </style>
 </defs>
 <g id="figure_1">
  <g id="patch_1">
   <path d="M 0 288 
L 288 288 
L 288 0 
L 0 0 
z
" style="fill:none;"/>
  </g>
  <g id="axes_1">
   <g id="patch_2">
    <path d="M 46.08 247.68 
L 282.24 247.68 
L 282.24 5.76 
L 46.08 5.76 
z
" style="fill:none;"/>
   </g>
   <g id="matplotlib.axis_1"/>
  </g>
  <g id="axes_2">
   <g id="patch_3">
    <path d="M 46.08 247.68 
L 282.24 247.68 
L 282.24 5.76 
L 46.08 5.76 
z
" style="fill:#ffffff;"/>
   </g>
   <g id="matplotlib.axis_2">
    <g id="xtick_1">
     <path d="M 46.08 250.18 
L 46.08 245.18 
" style="fill:#333333;stroke:#333333;stroke-width:0.5;"/>
     <g id="text_1">
      <text style="fill:#333333;font-family:DejaVu Sans;font-size:8px;font-style:normal;font-weight:normal;text-anchor:middle;" transform="rotate(-0, 46.08, 260.25875)" x="46.08" y="260.25875">700</text>
     </g>
    </g>
    <g id="xtick_2">
     <path d="M 188.307533 250.18 
L 188.307533 245.18 
" style="fill:#333333;stroke:#333333;stroke-width:0.5;"/>
     <g id="text_2">
      <text style="fill:#333333;font-family:DejaVu Sans;font-size:8px;font-style:normal;font-weight:normal;text-anchor:middle;" transform="rotate(-0, 188.307533, 260.25875)" x="188.307533" y="260.25875">800</text>
     </g>
    </g>
    <g id="xtick_3">
     <path d="M 117.193766 248.93 
L 117.193766 246.43 
" style="fill:#333333;stroke:#333333;stroke-width:0.5;"/>
    </g>
    <g id="xtick_4">
     <path d="M 259.421299 248.93 
L 259.421299 246.43 
" style="fill:#333333;stroke:#333333;stroke-width:0.5;"/>
    </g>
    <g id="text_3">
     <text style="fill:#333333;font-family:DejaVu Sans;font-size:10px;font-style:normal;font-weight:normal;text-anchor:middle;" transform="rotate(-0, 164.16, 273.520938)" x="164.16" y="273.520938">Wavelength (nm)</text>
    </g>
   </g>
   <g id="patch_4">
    <path d="M 46.08 247.68 
L 282.24 247.68 
" style="fill:none;stroke:#333333;stroke-linecap:square;stroke-linejoin:miter;"/>
   </g>
   <g id="axes_3">
    <g id="matplotlib.axis_3">
     <g id="ytick_1">
      <path d="M 48.58 244.270755 
L 43.58 244.270755 
" style="fill:#333333;stroke:#333333;stroke-width:0.5;"/>
      <g id="text_4">
       <!-- $\mathdefault{0}$ -->
       <g style="fill:#333333;" transform="translate(34.46 246.478255)">
        <text>
         <tspan style="font-family:DejaVu Sans;font-size:8px;font-style:book;font-weight:book;" x="0" y="-0.0625">0</tspan>
        </text>
       </g>
      </g>
     </g>
     <g id="ytick_2">
      <path d="M 48.58 130.629267 
L 43.58 130.629267 
" style="fill:#333333;stroke:#333333;stroke-width:0.5;"/>
      <g id="text_5">
       <!-- $\mathdefault{0.5}$ -->
       <g style="fill:#333333;" transform="translate(26.78 132.836767)">
        <text>
         <tspan style="font-family:DejaVu Sans;font-size:8px;font-style:book;font-weight:book;" x="0 5.089844 7.632812" y="-0.0625">0.5</tspan>
        </text>
       </g>
      </g>
     </g>
     <g id="ytick_3">
      <path d="M 48.58 16.987779 
L 43.58 16.987779 
" style="fill:#333333;stroke:#333333;stroke-width:0.5;"/>
      <g id="text_6">
       <!-- $\mathdefault{1}$ -->
       <g style="fill:#333333;" transform="translate(34.46 19.195279)">
        <text>
         <tspan style="font-family:DejaVu Sans;font-size:8px;font-style:book;font-weight:book;" x="0" y="-0.171875">1</tspan>
        </text>
       </g>
      </g>
     </g>
     <g id="ytick_4">
      <path d="M 47.33 187.450011 
L 44.83 187.450011 
" style="fill:#333333;stroke:#333333;stroke-width:0.5;"/>
     </g>
     <g id="ytick_5">
      <path d="M 47.33 73.808523 
L 44.83 73.808523 
" style="fill:#333333;stroke:#333333;stroke-width:0.5;"/>
     </g>
     <g id="text_7">
      <text style="fill:#333333;font-family:DejaVu Sans;font-size:10px;font-style:normal;font-weight:normal;text-anchor:middle;" transform="rotate(-90, 22.78, 126.72)" x="22.78" y="126.72">Emission (a.u.)</text>
     </g>
    </g>
    <g id="patch_5">
     <path d="M 46.08 247.68 
L 46.08 5.76 
" style="fill:none;stroke:#333333;stroke-linecap:square;stroke-linejoin:miter;"/>
     <g id="patch_6">
      <path d="M 277.5168 244.656 
L 286.9632 247.68 
L 277.5168 250.704 
" style="fill:none;stroke:#000000;stroke-linecap:square;stroke-linejoin:miter;"/>
      <g id="patch_7">
       <path d="M 49.032 10.5984 
L 46.08 0.9216 
L 43.128 10.5984 
" style="fill:none;stroke:#000000;stroke-linecap:square;stroke-linejoin:miter;"/>
       <g id="PolyCollection_1">
        <path clip-path="url(#p950a6858cc)" d="M 11.55863 244.270755 
L 11.55863 244.270755 
L 20.291894 244.270755 
L 28.713256 244.270755 
L 37.914374 244.270755 
L 46.491687 244.270755 
L 53.66544 244.270755 
L 61.7749 244.270755 
L 69.884359 244.270755 
L 77.681917 244.270755 
L 85.479474 244.270755 
L 92.185374 244.270755 
L 97.331761 244.270755 
L 101.854345 244.270755 
L 106.220977 244.270755 
L 110.899511 244.270755 
L 115.733997 244.270755 
L 119.788727 244.270755 
L 123.999408 244.270755 
L 128.054138 244.270755 
L 132.108868 244.270755 
L 136.163597 244.270755 
L 139.438571 244.270755 
L 142.401643 244.270755 
L 145.364715 244.270755 
L 147.703982 244.270755 
L 149.263494 244.270755 
L 151.134908 244.270755 
L 152.538468 244.270755 
L 153.786077 244.270755 
L 155.345589 244.270755 
L 156.593198 244.270755 
L 157.996758 244.270755 
L 159.712221 244.270755 
L 160.95983 244.270755 
L 162.051488 244.270755 
L 163.299097 244.270755 
L 164.234804 244.270755 
L 165.326462 244.270755 
L 166.41812 244.270755 
L 167.353827 244.270755 
L 168.445485 244.270755 
L 169.381192 244.270755 
L 170.47285 244.270755 
L 171.720459 244.270755 
L 172.656166 244.270755 
L 173.747824 244.270755 
L 174.839482 244.270755 
L 176.087091 244.270755 
L 177.334701 244.270755 
L 178.426359 244.270755 
L 179.829919 244.270755 
L 181.233479 244.270755 
L 182.792991 244.270755 
L 184.196551 244.270755 
L 184.976307 244.270755 
L 185.912014 244.270755 
L 187.315574 244.270755 
L 188.875085 244.270755 
L 190.434597 244.270755 
L 191.838157 244.270755 
L 193.397669 244.270755 
L 195.425034 244.270755 
L 197.60835 244.270755 
L 199.635715 244.270755 
L 201.507128 244.270755 
L 204.002347 244.270755 
L 206.809468 244.270755 
L 209.616588 244.270755 
L 212.891562 244.270755 
L 216.322488 244.270755 
L 220.377217 244.270755 
L 225.679556 244.270755 
L 231.761651 244.270755 
L 238.623502 244.270755 
L 245.797255 244.270755 
L 253.126959 244.270755 
L 261.704272 244.270755 
L 271.841096 244.270755 
L 281.666019 244.270755 
L 281.666019 244.270755 
L 281.666019 242.941174 
L 271.841096 243.056339 
L 261.704272 242.941174 
L 253.126959 242.480515 
L 245.797255 241.789526 
L 238.623502 241.213702 
L 231.761651 240.407548 
L 225.679556 239.140734 
L 220.377217 237.182932 
L 216.322488 234.418975 
L 212.891562 231.194359 
L 209.616588 227.163589 
L 206.809468 222.326665 
L 204.002347 217.259411 
L 201.507128 211.731498 
L 199.635715 205.167101 
L 197.60835 198.372375 
L 195.425034 190.65633 
L 193.397669 182.13413 
L 191.838157 173.496766 
L 190.434597 163.592588 
L 188.875085 153.688411 
L 187.315574 144.590387 
L 185.912014 134.801374 
L 184.976307 124.436537 
L 184.196551 114.647524 
L 182.792991 104.513017 
L 181.233479 92.996531 
L 179.829919 81.019386 
L 178.426359 70.19389 
L 177.334701 60.404877 
L 176.087091 51.652348 
L 174.839482 44.051467 
L 173.747824 37.48707 
L 172.656166 32.189487 
L 171.720459 27.582893 
L 170.47285 23.667288 
L 169.381192 20.673001 
L 168.445485 18.600034 
L 167.353827 17.218056 
L 166.41812 16.987726 
L 165.326462 18.484869 
L 164.234804 20.788166 
L 163.299097 23.667288 
L 162.051488 28.619376 
L 160.95983 34.953444 
L 159.712221 42.439159 
L 157.996758 50.961359 
L 156.593198 59.022899 
L 155.345589 67.084438 
L 153.786077 76.758286 
L 152.538468 87.468618 
L 151.134908 98.294115 
L 149.263494 107.392138 
L 147.703982 115.799173 
L 145.364715 126.509504 
L 142.401643 138.141155 
L 139.438571 149.081816 
L 136.163597 160.022478 
L 132.108868 171.308634 
L 128.054138 180.982482 
L 123.999408 190.310835 
L 119.788727 199.869518 
L 115.733997 208.622047 
L 110.899511 217.374576 
L 106.220977 224.975457 
L 101.854345 230.157875 
L 97.331761 234.30381 
L 92.185374 237.989086 
L 85.479474 240.637877 
L 77.681917 242.480515 
L 69.884359 243.401834 
L 61.7749 243.516999 
L 53.66544 243.632163 
L 46.491687 243.632163 
L 37.914374 243.632163 
L 28.713256 243.862493 
L 20.291894 243.977658 
L 11.55863 243.862493 
z
" style="fill:#5d1d14;fill-opacity:0.588235;stroke:#4c4c4c;stroke-width:0.5;"/>
       </g>
       <path clip-path="url(#p950a6858cc)" d="M 46.480077 244.270755 
L 91.532749 244.160898 
L 97.429696 243.918245 
L 101.321681 243.549224 
L 104.388093 243.03932 
L 106.864811 242.410395 
L 108.987711 241.657009 
L 110.992673 240.708645 
L 112.761757 239.633238 
L 114.412902 238.385023 
L 116.064047 236.857499 
L 117.715192 235.004356 
L 119.248398 232.948557 
L 120.781604 230.527187 
L 122.314811 227.697142 
L 123.848017 224.415115 
L 125.499162 220.326679 
L 127.150307 215.615403 
L 128.801452 210.237232 
L 130.570536 203.694247 
L 132.457559 195.792179 
L 134.344582 186.924331 
L 136.467482 175.813388 
L 138.708322 162.860849 
L 141.302979 146.500068 
L 144.605269 124.149042 
L 151.799544 74.985022 
L 154.158322 60.698184 
L 156.045345 50.584324 
L 157.69649 42.927775 
L 159.111757 37.382065 
L 160.409086 33.204111 
L 161.470536 30.471855 
L 162.414047 28.583978 
L 163.23962 27.361218 
L 163.947254 26.637572 
L 164.654887 26.216652 
L 165.244582 26.098445 
L 165.834276 26.192055 
L 166.423971 26.497211 
L 167.131605 27.141343 
L 167.839238 28.086094 
L 168.664811 29.562924 
L 169.608322 31.73431 
L 170.669773 34.774347 
L 171.849162 38.860604 
L 173.14649 44.163296 
L 174.679696 51.426041 
L 176.44878 60.980476 
L 178.571681 73.801095 
L 181.284276 91.706528 
L 191.544964 161.012061 
L 194.021681 175.435528 
L 196.262521 187.168956 
L 198.267483 196.532131 
L 200.154506 204.348816 
L 202.041528 211.215946 
L 203.810612 216.826024 
L 205.579696 221.682246 
L 207.230841 225.584182 
L 208.881987 228.929346 
L 210.533132 231.771207 
L 212.184277 234.16388 
L 213.835422 236.160529 
L 215.486567 237.812094 
L 217.137712 239.166345 
L 218.906796 240.337251 
L 220.793819 241.320324 
L 222.79878 242.120681 
L 225.03962 242.781108 
L 227.634277 243.31369 
L 230.818628 243.72879 
L 234.828552 244.016378 
L 240.725498 244.19367 
L 252.047636 244.264823 
L 282.240002 244.270754 
L 282.240002 244.270754 
" style="fill:none;stroke:#0000ff;stroke-linecap:round;stroke-width:2;"/>
       <path clip-path="url(#p950a6858cc)" d="M 46.08 238.535071 
L 55.531126 237.540604 
L 63.682721 236.462166 
L 70.771066 235.302044 
L 76.914297 234.077535 
L 82.466833 232.74562 
L 87.428674 231.326293 
L 91.917959 229.808968 
L 95.934687 228.21941 
L 99.596998 226.536977 
L 103.023032 224.719605 
L 106.212786 222.77349 
L 109.166263 220.710855 
L 111.883462 218.551043 
L 114.482521 216.208395 
L 116.963442 213.676527 
L 119.326223 210.951649 
L 121.570865 208.033372 
L 123.815508 204.742119 
L 125.942011 201.225563 
L 128.068514 197.26006 
L 130.076878 193.039404 
L 132.085243 188.287073 
L 134.093607 182.924467 
L 135.983832 177.240143 
L 137.874057 170.853687 
L 139.764282 163.675422 
L 141.654507 155.611383 
L 143.544732 146.568538 
L 145.434957 136.463838 
L 147.443322 124.499413 
L 149.569825 110.442015 
L 151.932606 93.290116 
L 155.476778 65.63285 
L 158.548394 42.241531 
L 160.202341 31.201745 
L 161.501871 23.872845 
L 162.565123 19.010001 
L 163.510235 15.684006 
L 164.21907 13.86355 
L 164.809765 12.812107 
L 165.40046 12.196849 
L 165.873017 12.023585 
L 166.345573 12.135344 
L 166.818129 12.531304 
L 167.408824 13.4213 
L 167.99952 14.740583 
L 168.708354 16.869303 
L 169.535328 20.061883 
L 170.598579 25.185312 
L 171.77997 32.033852 
L 173.315778 42.356395 
L 175.442281 58.339151 
L 181.821791 107.245913 
L 184.066433 122.35752 
L 186.192936 135.214748 
L 188.201301 146.050867 
L 190.209665 155.684099 
L 192.218029 164.213328 
L 194.226393 171.750193 
L 196.234757 178.407007 
L 198.243122 184.290067 
L 200.251486 189.496385 
L 202.25985 194.112511 
L 204.386353 198.441293 
L 206.512856 202.271986 
L 208.757499 205.849333 
L 211.002141 209.014018 
L 213.364922 211.962086 
L 215.845843 214.694747 
L 218.444902 217.216986 
L 221.162101 219.536628 
L 223.997439 221.663516 
L 227.069055 223.68151 
L 230.258809 225.511731 
L 233.684842 227.22501 
L 237.465293 228.862546 
L 241.60016 230.402528 
L 246.089445 231.831423 
L 251.051286 233.171994 
L 256.603822 234.433779 
L 262.747054 235.597314 
L 269.717259 236.68636 
L 277.632576 237.693735 
L 282.24 238.191094 
L 282.24 238.191094 
" style="fill:none;stroke:#e24a33;stroke-linecap:round;stroke-width:2;"/>
       <path clip-path="url(#p950a6858cc)" d="M 46.480077 244.260734 
L 65.940001 244.120163 
L 74.195726 243.851362 
L 79.974734 243.449104 
L 84.456413 242.92104 
L 88.230459 242.25543 
L 91.532749 241.445077 
L 94.481223 240.488183 
L 97.075879 239.419787 
L 99.552597 238.161773 
L 101.911375 236.708947 
L 104.152215 235.0621 
L 106.275116 233.228496 
L 108.398017 231.095041 
L 110.520917 228.626861 
L 112.525879 225.955932 
L 114.530841 222.923266 
L 116.535803 219.497841 
L 118.658704 215.408971 
L 120.781604 210.810941 
L 122.904505 205.671586 
L 125.027406 199.962358 
L 127.268246 193.291561 
L 129.627024 185.532758 
L 131.985803 177.00579 
L 134.462521 167.227297 
L 137.175116 155.573394 
L 140.123589 141.858586 
L 143.425879 125.372052 
L 147.671681 102.928201 
L 154.748017 65.398963 
L 157.224734 53.504127 
L 159.229696 44.900012 
L 160.880841 38.740548 
L 162.296108 34.276664 
L 163.475498 31.221647 
L 164.536948 29.047997 
L 165.48046 27.613112 
L 166.306032 26.766815 
L 167.013666 26.360625 
L 167.60336 26.255601 
L 168.193055 26.36892 
L 168.78275 26.705647 
L 169.490383 27.410732 
L 170.198017 28.449929 
L 171.023589 30.090448 
L 171.967101 32.534398 
L 173.028551 36.009056 
L 174.207941 40.75831 
L 175.505269 47.028303 
L 176.920536 55.045997 
L 178.571681 65.804379 
L 180.458704 79.663705 
L 182.935422 99.697712 
L 191.427025 170.059694 
L 193.549925 184.963741 
L 195.436948 196.656394 
L 197.088093 205.603023 
L 198.739238 213.340842 
L 200.272445 219.475706 
L 201.687712 224.291656 
L 203.102979 228.356622 
L 204.518246 231.741023 
L 205.815574 234.310195 
L 207.112903 236.4307 
L 208.410231 238.161053 
L 209.825498 239.669234 
L 211.240765 240.846536 
L 212.773971 241.818303 
L 214.425116 242.585921 
L 216.1942 243.164524 
L 218.317101 243.619762 
L 220.911758 243.942874 
L 224.567864 244.154574 
L 230.818628 244.254522 
L 254.642292 244.270754 
L 282.240002 244.270755 
L 282.240002 244.270755 
" style="fill:none;stroke:#00aa00;stroke-linecap:round;stroke-width:2;"/>
       <g id="legend_1">
        <g id="patch_8">
         <path d="M 56.08 68.452 
L 122.24 68.452 
Q 127.24 68.452 127.24 63.452 
L 127.24 15.76 
Q 127.24 10.76 122.24 10.76 
L 56.08 10.76 
Q 51.08 10.76 51.08 15.76 
L 51.08 63.452 
Q 51.08 68.452 56.08 68.452 
z
" style="fill:#ffffff;opacity:0.5;stroke:#333333;stroke-linejoin:miter;stroke-width:0.5;"/>
         <g id="patch_9">
          <path d="M 54.08 20.76 
L 74.08 20.76 
L 74.08 13.76 
L 54.08 13.76 
z
" style="fill:#5d1d14;fill-opacity:0.588235;stroke:#4c4c4c;stroke-linejoin:miter;stroke-width:0.5;"/>
          <g id="text_8">
           <path d="M 86.36125 15.11875 
L 86.36125 15.88875 
Q 85.9125 15.67375 85.51375 15.56875 
Q 85.115 15.4625 84.74375 15.4625 
Q 84.1 15.4625 83.75 15.7125 
Q 83.4 15.9625 83.4 16.42375 
Q 83.4 16.81125 83.6325 17.00875 
Q 83.865 17.205 84.51375 17.32625 
L 84.99 17.42375 
Q 85.8725 17.5925 86.2925 18.01625 
Q 86.7125 18.44 86.7125 19.15 
Q 86.7125 19.99875 86.14375 20.43625 
Q 85.57625 20.87375 84.47875 20.87375 
Q 84.065 20.87375 83.5975 20.78 
Q 83.13125 20.68625 82.63125 20.5025 
L 82.63125 19.69 
Q 83.11125 19.95875 83.5725 20.09625 
Q 84.03375 20.2325 84.47875 20.2325 
Q 85.15375 20.2325 85.52125 19.9675 
Q 85.88875 19.70125 85.88875 19.20875 
Q 85.88875 18.78 85.625 18.5375 
Q 85.36125 18.295 84.76 18.17375 
L 84.27875 18.08 
Q 83.39625 17.905 83.00125 17.53 
Q 82.6075 17.155 82.6075 16.48625 
Q 82.6075 15.7125 83.1525 15.2675 
Q 83.6975 14.8225 84.65375 14.8225 
Q 85.065 14.8225 85.49 14.8975 
Q 85.91625 14.97125 86.36125 15.11875 
z
M 88.606875 20.10375 
L 88.606875 22.42375 
L 87.884375 22.42375 
L 87.884375 16.385 
L 88.606875 16.385 
L 88.606875 17.04875 
Q 88.834375 16.65875 89.179375 16.47 
Q 89.525625 16.28 90.005625 16.28 
Q 90.803125 16.28 91.300625 16.9125 
Q 91.799375 17.545 91.799375 18.57625 
Q 91.799375 19.6075 91.300625 20.24125 
Q 90.803125 20.87375 90.005625 20.87375 
Q 89.525625 20.87375 89.179375 20.68375 
Q 88.834375 20.49375 88.606875 20.10375 
z
M 91.053125 18.57625 
Q 91.053125 17.78375 90.726875 17.3325 
Q 90.400625 16.88125 89.830625 16.88125 
Q 89.259375 16.88125 88.933125 17.3325 
Q 88.606875 17.78375 88.606875 18.57625 
Q 88.606875 19.36875 88.933125 19.82 
Q 89.259375 20.27125 89.830625 20.27125 
Q 90.400625 20.27125 90.726875 19.82 
Q 91.053125 19.36875 91.053125 18.57625 
z
M 96.7325 18.3925 
L 96.7325 18.74375 
L 93.4275 18.74375 
Q 93.475 19.48625 93.875 19.875 
Q 94.275 20.26375 94.99 20.26375 
Q 95.40375 20.26375 95.7925 20.1625 
Q 96.18125 20.06125 96.565 19.8575 
L 96.565 20.5375 
Q 96.1775 20.70125 95.77125 20.7875 
Q 95.365 20.87375 94.9475 20.87375 
Q 93.9 20.87375 93.28875 20.265 
Q 92.6775 19.655 92.6775 18.615 
Q 92.6775 17.54125 93.2575 16.91125 
Q 93.8375 16.28 94.8225 16.28 
Q 95.705 16.28 96.21875 16.84875 
Q 96.7325 17.41625 96.7325 18.3925 
z
M 96.01375 18.18125 
Q 96.00625 17.5925 95.68375 17.24125 
Q 95.36125 16.88875 94.83 16.88875 
Q 94.22875 16.88875 93.8675 17.22875 
Q 93.50625 17.56875 93.45125 18.18625 
z
M 101.060625 16.5525 
L 101.060625 17.225 
Q 100.755625 17.05625 100.449375 16.9725 
Q 100.143125 16.88875 99.830625 16.88875 
Q 99.130625 16.88875 98.743125 17.3325 
Q 98.356875 17.775 98.356875 18.57625 
Q 98.356875 19.3775 98.743125 19.82125 
Q 99.130625 20.26375 99.830625 20.26375 
Q 100.143125 20.26375 100.449375 20.18 
Q 100.755625 20.09625 101.060625 19.9275 
L 101.060625 20.5925 
Q 100.759375 20.7325 100.436875 20.8025 
Q 100.115625 20.87375 99.751875 20.87375 
Q 98.763125 20.87375 98.180625 20.2525 
Q 97.599375 19.63125 97.599375 18.57625 
Q 97.599375 17.50625 98.186875 16.89375 
Q 98.775625 16.28 99.799375 16.28 
Q 100.130625 16.28 100.446875 16.34875 
Q 100.763125 16.41625 101.060625 16.5525 
z
M 103.021563 15.1425 
L 103.021563 16.385 
L 104.501563 16.385 
L 104.501563 16.94375 
L 103.021563 16.94375 
L 103.021563 19.31875 
Q 103.021563 19.85375 103.167812 20.00625 
Q 103.314063 20.15875 103.764062 20.15875 
L 104.501563 20.15875 
L 104.501563 20.76 
L 103.764062 20.76 
Q 102.931562 20.76 102.615313 20.45 
Q 102.299062 20.13875 102.299062 19.31875 
L 102.299062 16.94375 
L 101.771563 16.94375 
L 101.771563 16.385 
L 102.299062 16.385 
L 102.299062 15.1425 
z
M 107.982031 17.05625 
Q 107.860781 16.98625 107.718281 16.95375 
Q 107.575781 16.92 107.404531 16.92 
Q 106.794531 16.92 106.468281 17.31625 
Q 106.142031 17.7125 106.142031 18.455 
L 106.142031 20.76 
L 105.419531 20.76 
L 105.419531 16.385 
L 106.142031 16.385 
L 106.142031 17.065 
Q 106.369531 16.66625 106.732031 16.47375 
Q 107.095781 16.28 107.615781 16.28 
Q 107.689531 16.28 107.779531 16.29 
Q 107.869531 16.29875 107.978281 16.31875 
z
M 108.662344 19.03375 
L 108.662344 16.385 
L 109.381094 16.385 
L 109.381094 19.00625 
Q 109.381094 19.6275 109.622344 19.93875 
Q 109.864844 20.24875 110.349844 20.24875 
Q 110.931094 20.24875 111.268594 19.8775 
Q 111.607344 19.50625 111.607344 18.865 
L 111.607344 16.385 
L 112.326094 16.385 
L 112.326094 20.76 
L 111.607344 20.76 
L 111.607344 20.0875 
Q 111.346094 20.48625 110.999844 20.68 
Q 110.654844 20.87375 110.197344 20.87375 
Q 109.443594 20.87375 109.052344 20.405 
Q 108.662344 19.93625 108.662344 19.03375 
z
M 110.471094 16.28 
z
M 117.212656 17.225 
Q 117.482656 16.74 117.857656 16.51 
Q 118.232656 16.28 118.740156 16.28 
Q 119.423906 16.28 119.795156 16.75875 
Q 120.166406 17.23625 120.166406 18.11875 
L 120.166406 20.76 
L 119.443906 20.76 
L 119.443906 18.1425 
Q 119.443906 17.51375 119.220156 17.21 
Q 118.997656 16.905 118.541406 16.905 
Q 117.982656 16.905 117.657656 17.27625 
Q 117.333906 17.64625 117.333906 18.2875 
L 117.333906 20.76 
L 116.611406 20.76 
L 116.611406 18.1425 
Q 116.611406 17.51 116.388906 17.2075 
Q 116.166406 16.905 115.701406 16.905 
Q 115.150156 16.905 114.825156 17.2775 
Q 114.501406 17.65 114.501406 18.2875 
L 114.501406 20.76 
L 113.778906 20.76 
L 113.778906 16.385 
L 114.501406 16.385 
L 114.501406 17.065 
Q 114.747656 16.6625 115.091406 16.47125 
Q 115.435156 16.28 115.907656 16.28 
Q 116.385156 16.28 116.718906 16.5225 
Q 117.052656 16.76375 117.212656 17.225 
z
"/>
          </g>
          <path d="M 57.08 28.92375 
L 60.58 28.92375 
L 64.08 28.92375 
L 67.58 28.92375 
L 71.08 28.92375 
" style="fill:none;stroke:#0000ff;stroke-linecap:round;stroke-width:2;"/>
          <g id="text_9">
           <path d="M 86.84125 31.59125 
L 86.84125 30.025 
L 85.5525 30.025 
L 85.5525 29.37625 
L 87.6225 29.37625 
L 87.6225 31.88125 
Q 87.16625 32.205 86.615 32.37125 
Q 86.065 32.5375 85.44 32.5375 
Q 84.0725 32.5375 83.3 31.73875 
Q 82.52875 30.93875 82.52875 29.51375 
Q 82.52875 28.08375 83.3 27.285 
Q 84.0725 26.48625 85.44 26.48625 
Q 86.01 26.48625 86.52375 26.6275 
Q 87.0375 26.7675 87.47125 27.04125 
L 87.47125 27.88125 
Q 87.03375 27.51 86.54125 27.3225 
Q 86.04875 27.135 85.50625 27.135 
Q 84.435 27.135 83.8975 27.7325 
Q 83.36125 28.33 83.36125 29.51375 
Q 83.36125 30.69375 83.8975 31.29125 
Q 84.435 31.88875 85.50625 31.88875 
Q 85.92375 31.88875 86.25125 31.81625 
Q 86.58 31.74375 86.84125 31.59125 
z
M 91.021719 30.225 
Q 90.150469 30.225 89.814219 30.42375 
Q 89.477969 30.6225 89.477969 31.10375 
Q 89.477969 31.48625 89.730469 31.71125 
Q 89.982969 31.935 90.415469 31.935 
Q 91.014219 31.935 91.375469 31.51125 
Q 91.736719 31.0875 91.736719 30.385 
L 91.736719 30.225 
z
M 92.455469 29.9275 
L 92.455469 32.42375 
L 91.736719 32.42375 
L 91.736719 31.76 
Q 91.490469 32.1575 91.122969 32.3475 
Q 90.755469 32.5375 90.224219 32.5375 
Q 89.552969 32.5375 89.155469 32.16 
Q 88.759219 31.7825 88.759219 31.15 
Q 88.759219 30.4125 89.252969 30.0375 
Q 89.747969 29.6625 90.727969 29.6625 
L 91.736719 29.6625 
L 91.736719 29.59125 
Q 91.736719 29.095 91.410469 28.82375 
Q 91.084219 28.5525 90.494219 28.5525 
Q 90.119219 28.5525 89.762969 28.6425 
Q 89.407969 28.7325 89.080469 28.9125 
L 89.080469 28.2475 
Q 89.474219 28.095 89.845469 28.02 
Q 90.216719 27.94375 90.567969 27.94375 
Q 91.517969 27.94375 91.986719 28.43625 
Q 92.455469 28.9275 92.455469 29.9275 
z
M 93.861562 30.6975 
L 93.861562 28.04875 
L 94.580312 28.04875 
L 94.580312 30.67 
Q 94.580312 31.29125 94.821562 31.6025 
Q 95.064063 31.9125 95.549062 31.9125 
Q 96.130313 31.9125 96.467812 31.54125 
Q 96.806562 31.17 96.806562 30.52875 
L 96.806562 28.04875 
L 97.525312 28.04875 
L 97.525312 32.42375 
L 96.806562 32.42375 
L 96.806562 31.75125 
Q 96.545312 32.15 96.199062 32.34375 
Q 95.854062 32.5375 95.396563 32.5375 
Q 94.642812 32.5375 94.251563 32.06875 
Q 93.861562 31.6 93.861562 30.6975 
z
M 95.670312 27.94375 
z
M 101.794375 28.1775 
L 101.794375 28.8575 
Q 101.490625 28.70125 101.161875 28.62375 
Q 100.834375 28.545 100.481875 28.545 
Q 99.946875 28.545 99.679375 28.70875 
Q 99.411875 28.8725 99.411875 29.20125 
Q 99.411875 29.45125 99.603125 29.59375 
Q 99.794375 29.73625 100.373125 29.865 
L 100.619375 29.92 
Q 101.384375 30.08375 101.706875 30.3825 
Q 102.029375 30.68125 102.029375 31.21625 
Q 102.029375 31.82625 101.546875 32.1825 
Q 101.064375 32.5375 100.220625 32.5375 
Q 99.869375 32.5375 99.488125 32.46875 
Q 99.106875 32.4 98.685625 32.26375 
L 98.685625 31.52125 
Q 99.084375 31.72875 99.470625 31.8325 
Q 99.856875 31.935 100.236875 31.935 
Q 100.744375 31.935 101.016875 31.76125 
Q 101.290625 31.5875 101.290625 31.27125 
Q 101.290625 30.97875 101.093125 30.8225 
Q 100.896875 30.66625 100.228125 30.52125 
L 99.978125 30.4625 
Q 99.310625 30.3225 99.013125 30.03125 
Q 98.716875 29.74 98.716875 29.2325 
Q 98.716875 28.615 99.154375 28.28 
Q 99.591875 27.94375 100.396875 27.94375 
Q 100.794375 27.94375 101.145625 28.0025 
Q 101.498125 28.06 101.794375 28.1775 
z
M 105.962344 28.1775 
L 105.962344 28.8575 
Q 105.658594 28.70125 105.329844 28.62375 
Q 105.002344 28.545 104.649844 28.545 
Q 104.114844 28.545 103.847344 28.70875 
Q 103.579844 28.8725 103.579844 29.20125 
Q 103.579844 29.45125 103.771094 29.59375 
Q 103.962344 29.73625 104.541094 29.865 
L 104.787344 29.92 
Q 105.552344 30.08375 105.874844 30.3825 
Q 106.197344 30.68125 106.197344 31.21625 
Q 106.197344 31.82625 105.714844 32.1825 
Q 105.232344 32.5375 104.388594 32.5375 
Q 104.037344 32.5375 103.656094 32.46875 
Q 103.274844 32.4 102.853594 32.26375 
L 102.853594 31.52125 
Q 103.252344 31.72875 103.638594 31.8325 
Q 104.024844 31.935 104.404844 31.935 
Q 104.912344 31.935 105.184844 31.76125 
Q 105.458594 31.5875 105.458594 31.27125 
Q 105.458594 30.97875 105.261094 30.8225 
Q 105.064844 30.66625 104.396094 30.52125 
L 104.146094 30.4625 
Q 103.478594 30.3225 103.181094 30.03125 
Q 102.884844 29.74 102.884844 29.2325 
Q 102.884844 28.615 103.322344 28.28 
Q 103.759844 27.94375 104.564844 27.94375 
Q 104.962344 27.94375 105.313594 28.0025 
Q 105.666094 28.06 105.962344 28.1775 
z
M 107.341562 28.04875 
L 108.060312 28.04875 
L 108.060312 32.42375 
L 107.341562 32.42375 
z
M 107.341562 26.345 
L 108.060312 26.345 
L 108.060312 27.25625 
L 107.341562 27.25625 
z
M 111.552969 30.225 
Q 110.681719 30.225 110.345469 30.42375 
Q 110.009219 30.6225 110.009219 31.10375 
Q 110.009219 31.48625 110.261719 31.71125 
Q 110.514219 31.935 110.946719 31.935 
Q 111.545469 31.935 111.906719 31.51125 
Q 112.267969 31.0875 112.267969 30.385 
L 112.267969 30.225 
z
M 112.986719 29.9275 
L 112.986719 32.42375 
L 112.267969 32.42375 
L 112.267969 31.76 
Q 112.021719 32.1575 111.654219 32.3475 
Q 111.286719 32.5375 110.755469 32.5375 
Q 110.084219 32.5375 109.686719 32.16 
Q 109.290469 31.7825 109.290469 31.15 
Q 109.290469 30.4125 109.784219 30.0375 
Q 110.279219 29.6625 111.259219 29.6625 
L 112.267969 29.6625 
L 112.267969 29.59125 
Q 112.267969 29.095 111.941719 28.82375 
Q 111.615469 28.5525 111.025469 28.5525 
Q 110.650469 28.5525 110.294219 28.6425 
Q 109.939219 28.7325 109.611719 28.9125 
L 109.611719 28.2475 
Q 110.005469 28.095 110.376719 28.02 
Q 110.747969 27.94375 111.099219 27.94375 
Q 112.049219 27.94375 112.517969 28.43625 
Q 112.986719 28.9275 112.986719 29.9275 
z
M 118.104062 29.7825 
L 118.104062 32.42375 
L 117.385312 32.42375 
L 117.385312 29.80625 
Q 117.385312 29.185 117.142812 28.8775 
Q 116.900312 28.56875 116.416562 28.56875 
Q 115.834063 28.56875 115.497813 28.94 
Q 115.161563 29.31 115.161563 29.95125 
L 115.161563 32.42375 
L 114.439063 32.42375 
L 114.439063 28.04875 
L 115.161563 28.04875 
L 115.161563 28.72875 
Q 115.420312 28.33375 115.769062 28.13875 
Q 116.119062 27.94375 116.576562 27.94375 
Q 117.330312 27.94375 117.716563 28.41 
Q 118.104062 28.87625 118.104062 29.7825 
z
"/>
          </g>
          <path d="M 57.08 40.5875 
L 60.58 40.5875 
L 64.08 40.5875 
L 67.58 40.5875 
L 71.08 40.5875 
" style="fill:none;stroke:#e24a33;stroke-linecap:round;stroke-width:2;"/>
          <g id="text_10">
           <path d="M 82.865 38.255 
L 83.65375 38.255 
L 83.65375 43.42375 
L 86.49375 43.42375 
L 86.49375 44.0875 
L 82.865 44.0875 
z
M 88.984531 40.21625 
Q 88.407031 40.21625 88.070781 40.6675 
Q 87.734531 41.11875 87.734531 41.90375 
Q 87.734531 42.68875 88.068281 43.14 
Q 88.403281 43.59125 88.984531 43.59125 
Q 89.559531 43.59125 89.894531 43.13875 
Q 90.230781 42.685 90.230781 41.90375 
Q 90.230781 41.12625 89.894531 40.67125 
Q 89.559531 40.21625 88.984531 40.21625 
z
M 88.984531 39.6075 
Q 89.922031 39.6075 90.457031 40.2175 
Q 90.993281 40.82625 90.993281 41.90375 
Q 90.993281 42.9775 90.457031 43.59 
Q 89.922031 44.20125 88.984531 44.20125 
Q 88.043281 44.20125 87.509531 43.59 
Q 86.977031 42.9775 86.977031 41.90375 
Q 86.977031 40.82625 87.509531 40.2175 
Q 88.043281 39.6075 88.984531 39.6075 
z
M 94.719062 40.38375 
Q 94.597813 40.31375 94.455312 40.28125 
Q 94.312812 40.2475 94.141562 40.2475 
Q 93.531562 40.2475 93.205312 40.64375 
Q 92.879063 41.04 92.879063 41.7825 
L 92.879063 44.0875 
L 92.156562 44.0875 
L 92.156562 39.7125 
L 92.879063 39.7125 
L 92.879063 40.3925 
Q 93.106562 39.99375 93.469062 39.80125 
Q 93.832813 39.6075 94.352812 39.6075 
Q 94.426563 39.6075 94.516562 39.6175 
Q 94.606562 39.62625 94.715312 39.64625 
z
M 99.213125 41.72 
L 99.213125 42.07125 
L 95.908125 42.07125 
Q 95.955625 42.81375 96.355625 43.2025 
Q 96.755625 43.59125 97.470625 43.59125 
Q 97.884375 43.59125 98.273125 43.49 
Q 98.661875 43.38875 99.045625 43.185 
L 99.045625 43.865 
Q 98.658125 44.02875 98.251875 44.115 
Q 97.845625 44.20125 97.428125 44.20125 
Q 96.380625 44.20125 95.769375 43.5925 
Q 95.158125 42.9825 95.158125 41.9425 
Q 95.158125 40.86875 95.738125 40.23875 
Q 96.318125 39.6075 97.303125 39.6075 
Q 98.185625 39.6075 98.699375 40.17625 
Q 99.213125 40.74375 99.213125 41.72 
z
M 98.494375 41.50875 
Q 98.486875 40.92 98.164375 40.56875 
Q 97.841875 40.21625 97.310625 40.21625 
Q 96.709375 40.21625 96.348125 40.55625 
Q 95.986875 40.89625 95.931875 41.51375 
z
M 104.03 41.44625 
L 104.03 44.0875 
L 103.31125 44.0875 
L 103.31125 41.47 
Q 103.31125 40.84875 103.06875 40.54125 
Q 102.82625 40.2325 102.3425 40.2325 
Q 101.76 40.2325 101.42375 40.60375 
Q 101.0875 40.97375 101.0875 41.615 
L 101.0875 44.0875 
L 100.365 44.0875 
L 100.365 39.7125 
L 101.0875 39.7125 
L 101.0875 40.3925 
Q 101.34625 39.9975 101.695 39.8025 
Q 102.045 39.6075 102.5025 39.6075 
Q 103.25625 39.6075 103.6425 40.07375 
Q 104.03 40.54 104.03 41.44625 
z
M 106.174062 38.47 
L 106.174062 39.7125 
L 107.654062 39.7125 
L 107.654062 40.27125 
L 106.174062 40.27125 
L 106.174062 42.64625 
Q 106.174062 43.18125 106.320312 43.33375 
Q 106.466562 43.48625 106.916562 43.48625 
L 107.654062 43.48625 
L 107.654062 44.0875 
L 106.916562 44.0875 
Q 106.084063 44.0875 105.767812 43.7775 
Q 105.451562 43.46625 105.451562 42.64625 
L 105.451562 40.27125 
L 104.924062 40.27125 
L 104.924062 39.7125 
L 105.451562 39.7125 
L 105.451562 38.47 
z
M 108.287031 39.7125 
L 111.700781 39.7125 
L 111.700781 40.36875 
L 108.998281 43.51375 
L 111.700781 43.51375 
L 111.700781 44.0875 
L 108.189531 44.0875 
L 108.189531 43.43125 
L 110.893281 40.28625 
L 108.287031 40.28625 
z
M 112.79875 39.7125 
L 113.5175 39.7125 
L 113.5175 44.0875 
L 112.79875 44.0875 
z
M 112.79875 38.00875 
L 113.5175 38.00875 
L 113.5175 38.92 
L 112.79875 38.92 
z
M 117.010156 41.88875 
Q 116.138906 41.88875 115.802656 42.0875 
Q 115.466406 42.28625 115.466406 42.7675 
Q 115.466406 43.15 115.718906 43.375 
Q 115.971406 43.59875 116.403906 43.59875 
Q 117.002656 43.59875 117.363906 43.175 
Q 117.725156 42.75125 117.725156 42.04875 
L 117.725156 41.88875 
z
M 118.443906 41.59125 
L 118.443906 44.0875 
L 117.725156 44.0875 
L 117.725156 43.42375 
Q 117.478906 43.82125 117.111406 44.01125 
Q 116.743906 44.20125 116.212656 44.20125 
Q 115.541406 44.20125 115.143906 43.82375 
Q 114.747656 43.44625 114.747656 42.81375 
Q 114.747656 42.07625 115.241406 41.70125 
Q 115.736406 41.32625 116.716406 41.32625 
L 117.725156 41.32625 
L 117.725156 41.255 
Q 117.725156 40.75875 117.398906 40.4875 
Q 117.072656 40.21625 116.482656 40.21625 
Q 116.107656 40.21625 115.751406 40.30625 
Q 115.396406 40.39625 115.068906 40.57625 
L 115.068906 39.91125 
Q 115.462656 39.75875 115.833906 39.68375 
Q 116.205156 39.6075 116.556406 39.6075 
Q 117.506406 39.6075 117.975156 40.1 
Q 118.443906 40.59125 118.443906 41.59125 
z
M 123.56125 41.44625 
L 123.56125 44.0875 
L 122.8425 44.0875 
L 122.8425 41.47 
Q 122.8425 40.84875 122.6 40.54125 
Q 122.3575 40.2325 121.87375 40.2325 
Q 121.29125 40.2325 120.955 40.60375 
Q 120.61875 40.97375 120.61875 41.615 
L 120.61875 44.0875 
L 119.89625 44.0875 
L 119.89625 39.7125 
L 120.61875 39.7125 
L 120.61875 40.3925 
Q 120.8775 39.9975 121.22625 39.8025 
Q 121.57625 39.6075 122.03375 39.6075 
Q 122.7875 39.6075 123.17375 40.07375 
Q 123.56125 40.54 123.56125 41.44625 
z
"/>
          </g>
          <path d="M 57.08 56.641 
L 60.58 56.641 
L 64.08 56.641 
L 67.58 56.641 
L 71.08 56.641 
" style="fill:none;stroke:#00aa00;stroke-linecap:round;stroke-width:2;"/>
          <g id="text_11">
           <path d="M 86.36125 49.18875 
L 86.36125 49.95875 
Q 85.9125 49.74375 85.51375 49.63875 
Q 85.115 49.5325 84.74375 49.5325 
Q 84.1 49.5325 83.75 49.7825 
Q 83.4 50.0325 83.4 50.49375 
Q 83.4 50.88125 83.6325 51.07875 
Q 83.865 51.275 84.51375 51.39625 
L 84.99 51.49375 
Q 85.8725 51.6625 86.2925 52.08625 
Q 86.7125 52.51 86.7125 53.22 
Q 86.7125 54.06875 86.14375 54.50625 
Q 85.57625 54.94375 84.47875 54.94375 
Q 84.065 54.94375 83.5975 54.85 
Q 83.13125 54.75625 82.63125 54.5725 
L 82.63125 53.76 
Q 83.11125 54.02875 83.5725 54.16625 
Q 84.03375 54.3025 84.47875 54.3025 
Q 85.15375 54.3025 85.52125 54.0375 
Q 85.88875 53.77125 85.88875 53.27875 
Q 85.88875 52.85 85.625 52.6075 
Q 85.36125 52.365 84.76 52.24375 
L 84.27875 52.15 
Q 83.39625 51.975 83.00125 51.6 
Q 82.6075 51.225 82.6075 50.55625 
Q 82.6075 49.7825 83.1525 49.3375 
Q 83.6975 48.8925 84.65375 48.8925 
Q 85.065 48.8925 85.49 48.9675 
Q 85.91625 49.04125 86.36125 49.18875 
z
M 87.884375 48.75125 
L 88.606875 48.75125 
L 88.606875 52.34125 
L 90.751875 50.455 
L 91.669375 50.455 
L 89.349375 52.50125 
L 91.768125 54.83 
L 90.830625 54.83 
L 88.606875 52.69375 
L 88.606875 54.83 
L 87.884375 54.83 
z
M 96.283437 52.4625 
L 96.283437 52.81375 
L 92.978437 52.81375 
Q 93.025937 53.55625 93.425938 53.945 
Q 93.825937 54.33375 94.540937 54.33375 
Q 94.954688 54.33375 95.343437 54.2325 
Q 95.732187 54.13125 96.115938 53.9275 
L 96.115938 54.6075 
Q 95.728437 54.77125 95.322187 54.8575 
Q 94.915937 54.94375 94.498437 54.94375 
Q 93.450937 54.94375 92.839687 54.335 
Q 92.228437 53.725 92.228437 52.685 
Q 92.228437 51.61125 92.808437 50.98125 
Q 93.388437 50.35 94.373437 50.35 
Q 95.255938 50.35 95.769688 50.91875 
Q 96.283437 51.48625 96.283437 52.4625 
z
M 95.564687 52.25125 
Q 95.557187 51.6625 95.234687 51.31125 
Q 94.912188 50.95875 94.380938 50.95875 
Q 93.779687 50.95875 93.418437 51.29875 
Q 93.057187 51.63875 93.002187 52.25625 
z
M 97.045312 50.455 
L 97.764062 50.455 
L 98.662813 53.86875 
L 99.556562 50.455 
L 100.404062 50.455 
L 101.302813 53.86875 
L 102.197812 50.455 
L 102.916562 50.455 
L 101.771563 54.83 
L 100.924062 54.83 
L 99.982812 51.24375 
L 99.037813 54.83 
L 98.189063 54.83 
z
M 107.748281 52.4625 
L 107.748281 52.81375 
L 104.443281 52.81375 
Q 104.490781 53.55625 104.890781 53.945 
Q 105.290781 54.33375 106.005781 54.33375 
Q 106.419531 54.33375 106.808281 54.2325 
Q 107.197031 54.13125 107.580781 53.9275 
L 107.580781 54.6075 
Q 107.193281 54.77125 106.787031 54.8575 
Q 106.380781 54.94375 105.963281 54.94375 
Q 104.915781 54.94375 104.304531 54.335 
Q 103.693281 53.725 103.693281 52.685 
Q 103.693281 51.61125 104.273281 50.98125 
Q 104.853281 50.35 105.838281 50.35 
Q 106.720781 50.35 107.234531 50.91875 
Q 107.748281 51.48625 107.748281 52.4625 
z
M 107.029531 52.25125 
Q 107.022031 51.6625 106.699531 51.31125 
Q 106.377031 50.95875 105.845781 50.95875 
Q 105.244531 50.95875 104.883281 51.29875 
Q 104.522031 51.63875 104.467031 52.25625 
z
M 111.806406 51.11875 
L 111.806406 48.75125 
L 112.525156 48.75125 
L 112.525156 54.83 
L 111.806406 54.83 
L 111.806406 54.17375 
Q 111.580156 54.56375 111.233906 54.75375 
Q 110.888906 54.94375 110.403906 54.94375 
Q 109.611406 54.94375 109.112656 54.31125 
Q 108.615156 53.6775 108.615156 52.64625 
Q 108.615156 51.615 109.112656 50.9825 
Q 109.611406 50.35 110.403906 50.35 
Q 110.888906 50.35 111.233906 50.54 
Q 111.580156 50.72875 111.806406 51.11875 
z
M 109.357656 52.64625 
Q 109.357656 53.43875 109.683906 53.89 
Q 110.010156 54.34125 110.580156 54.34125 
Q 111.150156 54.34125 111.477656 53.89 
Q 111.806406 53.43875 111.806406 52.64625 
Q 111.806406 51.85375 111.477656 51.4025 
Q 111.150156 50.95125 110.580156 50.95125 
Q 110.010156 50.95125 109.683906 51.4025 
Q 109.357656 51.85375 109.357656 52.64625 
z
"/>
           <path d="M 86.84125 62.95575 
L 86.84125 61.3895 
L 85.5525 61.3895 
L 85.5525 60.74075 
L 87.6225 60.74075 
L 87.6225 63.24575 
Q 87.16625 63.5695 86.615 63.73575 
Q 86.065 63.902 85.44 63.902 
Q 84.0725 63.902 83.3 63.10325 
Q 82.52875 62.30325 82.52875 60.87825 
Q 82.52875 59.44825 83.3 58.6495 
Q 84.0725 57.85075 85.44 57.85075 
Q 86.01 57.85075 86.52375 57.992 
Q 87.0375 58.132 87.47125 58.40575 
L 87.47125 59.24575 
Q 87.03375 58.8745 86.54125 58.687 
Q 86.04875 58.4995 85.50625 58.4995 
Q 84.435 58.4995 83.8975 59.097 
Q 83.36125 59.6945 83.36125 60.87825 
Q 83.36125 62.05825 83.8975 62.65575 
Q 84.435 63.25325 85.50625 63.25325 
Q 85.92375 63.25325 86.25125 63.18075 
Q 86.58 63.10825 86.84125 62.95575 
z
M 91.021719 61.5895 
Q 90.150469 61.5895 89.814219 61.78825 
Q 89.477969 61.987 89.477969 62.46825 
Q 89.477969 62.85075 89.730469 63.07575 
Q 89.982969 63.2995 90.415469 63.2995 
Q 91.014219 63.2995 91.375469 62.87575 
Q 91.736719 62.452 91.736719 61.7495 
L 91.736719 61.5895 
z
M 92.455469 61.292 
L 92.455469 63.78825 
L 91.736719 63.78825 
L 91.736719 63.1245 
Q 91.490469 63.522 91.122969 63.712 
Q 90.755469 63.902 90.224219 63.902 
Q 89.552969 63.902 89.155469 63.5245 
Q 88.759219 63.147 88.759219 62.5145 
Q 88.759219 61.777 89.252969 61.402 
Q 89.747969 61.027 90.727969 61.027 
L 91.736719 61.027 
L 91.736719 60.95575 
Q 91.736719 60.4595 91.410469 60.18825 
Q 91.084219 59.917 90.494219 59.917 
Q 90.119219 59.917 89.762969 60.007 
Q 89.407969 60.097 89.080469 60.277 
L 89.080469 59.612 
Q 89.474219 59.4595 89.845469 59.3845 
Q 90.216719 59.30825 90.567969 59.30825 
Q 91.517969 59.30825 91.986719 59.80075 
Q 92.455469 60.292 92.455469 61.292 
z
M 93.861562 62.062 
L 93.861562 59.41325 
L 94.580312 59.41325 
L 94.580312 62.0345 
Q 94.580312 62.65575 94.821562 62.967 
Q 95.064063 63.277 95.549062 63.277 
Q 96.130313 63.277 96.467812 62.90575 
Q 96.806562 62.5345 96.806562 61.89325 
L 96.806562 59.41325 
L 97.525312 59.41325 
L 97.525312 63.78825 
L 96.806562 63.78825 
L 96.806562 63.11575 
Q 96.545312 63.5145 96.199062 63.70825 
Q 95.854062 63.902 95.396563 63.902 
Q 94.642812 63.902 94.251563 63.43325 
Q 93.861562 62.9645 93.861562 62.062 
z
M 95.670312 59.30825 
z
M 101.794375 59.542 
L 101.794375 60.222 
Q 101.490625 60.06575 101.161875 59.98825 
Q 100.834375 59.9095 100.481875 59.9095 
Q 99.946875 59.9095 99.679375 60.07325 
Q 99.411875 60.237 99.411875 60.56575 
Q 99.411875 60.81575 99.603125 60.95825 
Q 99.794375 61.10075 100.373125 61.2295 
L 100.619375 61.2845 
Q 101.384375 61.44825 101.706875 61.747 
Q 102.029375 62.04575 102.029375 62.58075 
Q 102.029375 63.19075 101.546875 63.547 
Q 101.064375 63.902 100.220625 63.902 
Q 99.869375 63.902 99.488125 63.83325 
Q 99.106875 63.7645 98.685625 63.62825 
L 98.685625 62.88575 
Q 99.084375 63.09325 99.470625 63.197 
Q 99.856875 63.2995 100.236875 63.2995 
Q 100.744375 63.2995 101.016875 63.12575 
Q 101.290625 62.952 101.290625 62.63575 
Q 101.290625 62.34325 101.093125 62.187 
Q 100.896875 62.03075 100.228125 61.88575 
L 99.978125 61.827 
Q 99.310625 61.687 99.013125 61.39575 
Q 98.716875 61.1045 98.716875 60.597 
Q 98.716875 59.9795 99.154375 59.6445 
Q 99.591875 59.30825 100.396875 59.30825 
Q 100.794375 59.30825 101.145625 59.367 
Q 101.498125 59.4245 101.794375 59.542 
z
M 105.962344 59.542 
L 105.962344 60.222 
Q 105.658594 60.06575 105.329844 59.98825 
Q 105.002344 59.9095 104.649844 59.9095 
Q 104.114844 59.9095 103.847344 60.07325 
Q 103.579844 60.237 103.579844 60.56575 
Q 103.579844 60.81575 103.771094 60.95825 
Q 103.962344 61.10075 104.541094 61.2295 
L 104.787344 61.2845 
Q 105.552344 61.44825 105.874844 61.747 
Q 106.197344 62.04575 106.197344 62.58075 
Q 106.197344 63.19075 105.714844 63.547 
Q 105.232344 63.902 104.388594 63.902 
Q 104.037344 63.902 103.656094 63.83325 
Q 103.274844 63.7645 102.853594 63.62825 
L 102.853594 62.88575 
Q 103.252344 63.09325 103.638594 63.197 
Q 104.024844 63.2995 104.404844 63.2995 
Q 104.912344 63.2995 105.184844 63.12575 
Q 105.458594 62.952 105.458594 62.63575 
Q 105.458594 62.34325 105.261094 62.187 
Q 105.064844 62.03075 104.396094 61.88575 
L 104.146094 61.827 
Q 103.478594 61.687 103.181094 61.39575 
Q 102.884844 61.1045 102.884844 60.597 
Q 102.884844 59.9795 103.322344 59.6445 
Q 103.759844 59.30825 104.564844 59.30825 
Q 104.962344 59.30825 105.313594 59.367 
Q 105.666094 59.4245 105.962344 59.542 
z
M 107.341562 59.41325 
L 108.060312 59.41325 
L 108.060312 63.78825 
L 107.341562 63.78825 
z
M 107.341562 57.7095 
L 108.060312 57.7095 
L 108.060312 58.62075 
L 107.341562 58.62075 
z
M 111.552969 61.5895 
Q 110.681719 61.5895 110.345469 61.78825 
Q 110.009219 61.987 110.009219 62.46825 
Q 110.009219 62.85075 110.261719 63.07575 
Q 110.514219 63.2995 110.946719 63.2995 
Q 111.545469 63.2995 111.906719 62.87575 
Q 112.267969 62.452 112.267969 61.7495 
L 112.267969 61.5895 
z
M 112.986719 61.292 
L 112.986719 63.78825 
L 112.267969 63.78825 
L 112.267969 63.1245 
Q 112.021719 63.522 111.654219 63.712 
Q 111.286719 63.902 110.755469 63.902 
Q 110.084219 63.902 109.686719 63.5245 
Q 109.290469 63.147 109.290469 62.5145 
Q 109.290469 61.777 109.784219 61.402 
Q 110.279219 61.027 111.259219 61.027 
L 112.267969 61.027 
L 112.267969 60.95575 
Q 112.267969 60.4595 111.941719 60.18825 
Q 111.615469 59.917 111.025469 59.917 
Q 110.650469 59.917 110.294219 60.007 
Q 109.939219 60.097 109.611719 60.277 
L 109.611719 59.612 
Q 110.005469 59.4595 110.376719 59.3845 
Q 110.747969 59.30825 111.099219 59.30825 
Q 112.049219 59.30825 112.517969 59.80075 
Q 112.986719 60.292 112.986719 61.292 
z
M 118.104062 61.147 
L 118.104062 63.78825 
L 117.385312 63.78825 
L 117.385312 61.17075 
Q 117.385312 60.5495 117.142812 60.242 
Q 116.900312 59.93325 116.416562 59.93325 
Q 115.834063 59.93325 115.497813 60.3045 
Q 115.161563 60.6745 115.161563 61.31575 
L 115.161563 63.78825 
L 114.439063 63.78825 
L 114.439063 59.41325 
L 115.161563 59.41325 
L 115.161563 60.09325 
Q 115.420312 59.69825 115.769062 59.50325 
Q 116.119062 59.30825 116.576562 59.30825 
Q 117.330312 59.30825 117.716563 59.7745 
Q 118.104062 60.24075 118.104062 61.147 
z
"/>
          </g>
         </g>
        </g>
       </g>
       <defs>
        <clipPath id="p950a6858cc">
         <rect height="241.92" width="236.16" x="46.08" y="5.76"/>
        </clipPath>
       </defs>
      </g>
     </g>
    </g>
   </g>
  </g>
 </g>
</svg>
