<?xml version="1.0" encoding="utf-8" standalone="no"?>
<!DOCTYPE svg PUBLIC "-//W3C//DTD SVG 1.1//EN"
  "http://www.w3.org/Graphics/SVG/1.1/DTD/svg11.dtd">
<!-- Created with matplotlib (https://matplotlib.org/) -->
<svg height="288pt" version="1.1" viewBox="0 0 288 288" width="288pt" xmlns="http://www.w3.org/2000/svg" xmlns:xlink="http://www.w3.org/1999/xlink">
 <defs>
  <style type="text/css">
*{stroke-linecap:butt;stroke-linejoin:round;}
  </style>
 </defs>
 <g id="figure_1">
  <g id="patch_1">
   <path d="M 0 288 
L 288 288 
L 288 0 
L 0 0 
z
" style="fill:#ffffff;"/>
  </g>
  <g id="axes_1">
   <g id="patch_2">
    <path d="M 43.2 253.44 
L 273.6 253.44 
L 273.6 14.4 
L 43.2 14.4 
z
" style="fill:none;"/>
   </g>
   <g id="matplotlib.axis_1"/>
  </g>
  <g id="axes_2">
   <g id="patch_3">
    <path d="M 81.6 253.44 
L 273.6 253.44 
L 273.6 14.4 
L 81.6 14.4 
z
" style="fill:#ffffff;"/>
   </g>
   <g id="matplotlib.axis_2">
    <g id="xtick_1">
     <path d="M 120 253.44 
L 120 255.44 
" style="stroke:#000000;stroke-width:0.5;"/>
     <g id="text_1">
      <!-- $\mathdefault{10^{1}}$ -->
      <g transform="translate(113.45 265.44)">
       <text>
        <tspan style="font-family:Corbel;font-size:10px;font-style:regular;font-weight:regular;" x="0 4.482422" y="-0.503125">10</tspan>
        <tspan style="font-family:Corbel;font-size:7px;font-style:regular;font-weight:regular;" x="9.700352" y="-3.7515625">1</tspan>
       </text>
      </g>
     </g>
    </g>
    <g id="xtick_2">
     <path d="M 158.4 253.44 
L 158.4 255.44 
" style="stroke:#000000;stroke-width:0.5;"/>
     <g id="text_2">
      <!-- $\mathdefault{10^{2}}$ -->
      <g transform="translate(151.6 265.44)">
       <text>
        <tspan style="font-family:Corbel;font-size:10px;font-style:regular;font-weight:regular;" x="0 4.482422" y="-0.415625">10</tspan>
        <tspan style="font-family:Corbel;font-size:7px;font-style:regular;font-weight:regular;" x="9.700352" y="-3.6640625">2</tspan>
       </text>
      </g>
     </g>
    </g>
    <g id="xtick_3">
     <path d="M 196.8 253.44 
L 196.8 255.44 
" style="stroke:#000000;stroke-width:0.5;"/>
     <g id="text_3">
      <!-- $\mathdefault{10^{3}}$ -->
      <g transform="translate(190.2 265.44)">
       <text>
        <tspan style="font-family:Corbel;font-size:10px;font-style:regular;font-weight:regular;" x="0 4.482422" y="-0.415625">10</tspan>
        <tspan style="font-family:Corbel;font-size:7px;font-style:regular;font-weight:regular;" x="9.700352" y="-3.6640625">3</tspan>
       </text>
      </g>
     </g>
    </g>
    <g id="xtick_4">
     <path d="M 235.2 253.44 
L 235.2 255.44 
" style="stroke:#000000;stroke-width:0.5;"/>
     <g id="text_4">
      <!-- $\mathdefault{10^{4}}$ -->
      <g transform="translate(228.4 265.44)">
       <text>
        <tspan style="font-family:Corbel;font-size:10px;font-style:regular;font-weight:regular;" x="0 4.482422" y="-0.503125">10</tspan>
        <tspan style="font-family:Corbel;font-size:7px;font-style:regular;font-weight:regular;" x="9.700352" y="-3.7515625">4</tspan>
       </text>
      </g>
     </g>
    </g>
    <g id="xtick_5">
     <path d="M 273.6 253.44 
L 273.6 255.44 
" style="stroke:#000000;stroke-width:0.5;"/>
     <g id="text_5">
      <!-- $\mathdefault{10^{5}}$ -->
      <g transform="translate(266.95 265.44)">
       <text>
        <tspan style="font-family:Corbel;font-size:10px;font-style:regular;font-weight:regular;" x="0 4.482422" y="-0.503125">10</tspan>
        <tspan style="font-family:Corbel;font-size:7px;font-style:regular;font-weight:regular;" x="9.700352" y="-3.7515625">5</tspan>
       </text>
      </g>
     </g>
    </g>
   </g>
   <g id="patch_4">
    <path d="M 81.6 253.44 
L 273.6 253.44 
" style="fill:none;stroke:#000000;stroke-linecap:square;stroke-linejoin:miter;"/>
   </g>
   <g id="axes_3">
    <g id="patch_5">
     <path d="M 81.6 253.44 
L 273.6 253.44 
L 273.6 14.4 
L 81.6 14.4 
z
" style="fill:none;"/>
    </g>
    <g id="matplotlib.axis_3">
     <g id="xtick_6"/>
     <g id="xtick_7"/>
     <g id="xtick_8"/>
     <g id="xtick_9"/>
     <g id="xtick_10"/>
     <g id="xtick_11"/>
     <g id="xtick_12"/>
     <g id="xtick_13"/>
     <g id="xtick_14"/>
     <g id="xtick_15"/>
     <g id="xtick_16"/>
     <g id="xtick_17"/>
     <g id="xtick_18"/>
     <g id="xtick_19"/>
     <g id="xtick_20"/>
     <g id="xtick_21"/>
     <g id="xtick_22"/>
     <g id="xtick_23"/>
     <g id="xtick_24"/>
     <g id="xtick_25"/>
     <g id="xtick_26"/>
     <g id="xtick_27"/>
     <g id="xtick_28"/>
     <g id="xtick_29"/>
     <g id="xtick_30"/>
     <g id="xtick_31"/>
     <g id="xtick_32"/>
     <g id="xtick_33"/>
     <g id="xtick_34"/>
     <g id="xtick_35"/>
     <g id="xtick_36"/>
     <g id="xtick_37"/>
     <g id="xtick_38"/>
     <g id="xtick_39"/>
     <g id="xtick_40"/>
     <g id="xtick_41"/>
     <g id="xtick_42"/>
     <g id="xtick_43"/>
     <g id="xtick_44"/>
     <g id="xtick_45"/>
     <g id="xtick_46"/>
     <g id="xtick_47"/>
     <g id="xtick_48"/>
     <g id="xtick_49"/>
     <g id="xtick_50"/>
     <g id="xtick_51"/>
    </g>
    <g id="matplotlib.axis_4">
     <g id="ytick_1"/>
     <g id="ytick_2"/>
     <g id="ytick_3"/>
    </g>
    <g id="patch_6">
     <path d="M 272.64 253.44 
L 271.68 249.8544 
L 281.28 253.44 
L 271.68 257.0256 
z
" style="stroke:#000000;stroke-linecap:square;stroke-linejoin:miter;"/>
     <path clip-path="url(#p5512d9fd11)" d="M 81.6 218.334155 
L 134.810605 218.206138 
L 152.57949 217.952679 
L 163.817109 217.581978 
L 172.173287 217.092345 
L 178.8006 216.489618 
L 184.371386 215.765768 
L 189.173787 214.922178 
L 193.3999 213.959113 
L 197.241821 212.856783 
L 200.69955 211.63782 
L 203.965183 210.249508 
L 206.942671 208.747447 
L 209.824112 207.045161 
L 212.609505 205.13384 
L 215.202801 203.089219 
L 217.796098 200.759297 
L 220.293347 198.218253 
L 222.790595 195.358535 
L 225.287844 192.154582 
L 227.785093 188.582944 
L 230.282341 184.623655 
L 232.875638 180.085848 
L 235.564982 174.911925 
L 238.350375 169.052307 
L 241.327864 162.244171 
L 244.497449 154.426609 
L 248.147274 144.803064 
L 252.757579 131.963197 
L 265.051726 97.368948 
L 268.701551 87.952444 
L 271.967184 80.132234 
L 273.6 76.463114 
L 273.6 76.463114 
" style="fill:none;stroke:#868786;stroke-dasharray:1.2,1.98;stroke-dashoffset:0;stroke-width:1.2;"/>
     <path clip-path="url(#p5512d9fd11)" d="M 81.6 215.603161 
L 89.475938 215.08456 
L 95.815108 214.451278 
L 101.193797 213.694638 
L 105.804102 212.828155 
L 109.934167 211.830009 
L 113.68004 210.697156 
L 117.137769 209.416572 
L 120.307354 208.005896 
L 123.284842 206.438624 
L 126.070235 204.727548 
L 128.75958 202.819884 
L 131.352876 200.713126 
L 133.946173 198.314491 
L 136.443422 195.701049 
L 138.94067 192.763021 
L 141.437919 189.475305 
L 143.935168 185.815235 
L 146.432416 181.763994 
L 149.025713 177.128638 
L 151.715058 171.85368 
L 154.50045 165.892707 
L 157.477939 158.984181 
L 160.743572 150.826474 
L 164.489445 140.845275 
L 169.483942 126.840146 
L 179.472936 98.689955 
L 183.314857 88.616786 
L 186.676538 80.417262 
L 189.750075 73.5074 
L 192.631516 67.578266 
L 195.32086 62.537095 
L 197.914157 58.124906 
L 200.507454 54.142166 
L 203.10075 50.570348 
L 205.597999 47.497024 
L 208.191296 44.659418 
L 210.784592 42.15366 
L 213.377889 39.949974 
L 216.067234 37.952249 
L 218.852626 36.158532 
L 221.734067 34.563044 
L 224.807604 33.115183 
L 228.073237 31.823711 
L 231.627014 30.662497 
L 235.468934 29.644594 
L 239.695048 28.756045 
L 244.497449 27.978306 
L 249.972186 27.321135 
L 256.503452 26.769586 
L 264.475438 26.330112 
L 273.6 26.026764 
L 273.6 26.026764 
" style="fill:none;stroke:#d32f2f;stroke-width:1.2;"/>
     <path clip-path="url(#p5512d9fd11)" d="M -38318.4 263.2824 
L -38322.9 272.2824 
L -38313.9 272.2824 
z
" style="fill:#868786;stroke:#000000;stroke-linejoin:miter;stroke-width:0.5;"/>
     <path clip-path="url(#p5512d9fd11)" d="M 108.440448 208.3032 
L 103.940448 217.3032 
L 112.940448 217.3032 
z
" style="fill:#868786;stroke:#000000;stroke-linejoin:miter;stroke-width:0.5;"/>
     <path clip-path="url(#p5512d9fd11)" d="M 120 227.4264 
L 115.5 236.4264 
L 124.5 236.4264 
z
" style="fill:#868786;stroke:#000000;stroke-linejoin:miter;stroke-width:0.5;"/>
     <path clip-path="url(#p5512d9fd11)" d="M 131.559552 221.8488 
L 127.059552 230.8488 
L 136.059552 230.8488 
z
" style="fill:#868786;stroke:#000000;stroke-linejoin:miter;stroke-width:0.5;"/>
     <path clip-path="url(#p5512d9fd11)" d="M 146.840448 236.1912 
L 142.340448 245.1912 
L 151.340448 245.1912 
z
" style="fill:#868786;stroke:#000000;stroke-linejoin:miter;stroke-width:0.5;"/>
     <path clip-path="url(#p5512d9fd11)" d="M 158.4 201.9288 
L 153.9 210.9288 
L 162.9 210.9288 
z
" style="fill:#868786;stroke:#000000;stroke-linejoin:miter;stroke-width:0.5;"/>
     <path clip-path="url(#p5512d9fd11)" d="M 169.959552 185.9928 
L 165.459552 194.9928 
L 174.459552 194.9928 
z
" style="fill:#868786;stroke:#000000;stroke-linejoin:miter;stroke-width:0.5;"/>
     <path clip-path="url(#p5512d9fd11)" d="M 176.721456 205.9128 
L 172.221456 214.9128 
L 181.221456 214.9128 
z
" style="fill:#868786;stroke:#000000;stroke-linejoin:miter;stroke-width:0.5;"/>
     <path clip-path="url(#p5512d9fd11)" d="M 181.519104 221.8488 
L 177.019104 230.8488 
L 186.019104 230.8488 
z
" style="fill:#868786;stroke:#000000;stroke-linejoin:miter;stroke-width:0.5;"/>
     <path clip-path="url(#p5512d9fd11)" d="M 188.281008 231.4104 
L 183.781008 240.4104 
L 192.781008 240.4104 
z
" style="fill:#868786;stroke:#000000;stroke-linejoin:miter;stroke-width:0.5;"/>
     <path clip-path="url(#p5512d9fd11)" d="M 193.078656 217.8648 
L 188.578656 226.8648 
L 197.578656 226.8648 
z
" style="fill:#868786;stroke:#000000;stroke-linejoin:miter;stroke-width:0.5;"/>
     <path clip-path="url(#p5512d9fd11)" d="M 199.84056 189.9768 
L 195.34056 198.9768 
L 204.34056 198.9768 
z
" style="fill:#868786;stroke:#000000;stroke-linejoin:miter;stroke-width:0.5;"/>
     <path clip-path="url(#p5512d9fd11)" d="M 204.638207 218.6616 
L 200.138207 227.6616 
L 209.138207 227.6616 
z
" style="fill:#868786;stroke:#000000;stroke-linejoin:miter;stroke-width:0.5;"/>
     <path clip-path="url(#p5512d9fd11)" d="M 215.121456 191.5704 
L 210.621456 200.5704 
L 219.621456 200.5704 
z
" style="fill:#868786;stroke:#000000;stroke-linejoin:miter;stroke-width:0.5;"/>
     <path clip-path="url(#p5512d9fd11)" d="M 226.681008 185.196 
L 222.181008 194.196 
L 231.181008 194.196 
z
" style="fill:#868786;stroke:#000000;stroke-linejoin:miter;stroke-width:0.5;"/>
     <path clip-path="url(#p5512d9fd11)" d="M -38318.4 232.4424 
C -38317.206586 232.4424 -38316.061891 231.968252 -38315.218019 231.124381 
C -38314.374148 230.280509 -38313.9 229.135814 -38313.9 227.9424 
C -38313.9 226.748986 -38314.374148 225.604291 -38315.218019 224.760419 
C -38316.061891 223.916548 -38317.206586 223.4424 -38318.4 223.4424 
C -38319.593414 223.4424 -38320.738109 223.916548 -38321.581981 224.760419 
C -38322.425852 225.604291 -38322.9 226.748986 -38322.9 227.9424 
C -38322.9 229.135814 -38322.425852 230.280509 -38321.581981 231.124381 
C -38320.738109 231.968252 -38319.593414 232.4424 -38318.4 232.4424 
z
" style="fill:#d32f2f;stroke:#000000;stroke-width:0.5;"/>
     <path clip-path="url(#p5512d9fd11)" d="M 98.770868 241.2072 
C 99.964282 241.2072 101.108978 240.733052 101.952849 239.889181 
C 102.79672 239.045309 103.270868 237.900614 103.270868 236.7072 
C 103.270868 235.513786 102.79672 234.369091 101.952849 233.525219 
C 101.108978 232.681348 99.964282 232.2072 98.770868 232.2072 
C 97.577454 232.2072 96.432759 232.681348 95.588888 233.525219 
C 94.745017 234.369091 94.270868 235.513786 94.270868 236.7072 
C 94.270868 237.900614 94.745017 239.045309 95.588888 239.889181 
C 96.432759 240.733052 97.577454 241.2072 98.770868 241.2072 
z
" style="fill:#d32f2f;stroke:#000000;stroke-width:0.5;"/>
     <path clip-path="url(#p5512d9fd11)" d="M 110.33042 233.2392 
C 111.523834 233.2392 112.66853 232.765052 113.512401 231.921181 
C 114.356272 231.077309 114.83042 229.932614 114.83042 228.7392 
C 114.83042 227.545786 114.356272 226.401091 113.512401 225.557219 
C 112.66853 224.713348 111.523834 224.2392 110.33042 224.2392 
C 109.137006 224.2392 107.992311 224.713348 107.14844 225.557219 
C 106.304569 226.401091 105.83042 227.545786 105.83042 228.7392 
C 105.83042 229.932614 106.304569 231.077309 107.14844 231.921181 
C 107.992311 232.765052 109.137006 233.2392 110.33042 233.2392 
z
" style="fill:#d32f2f;stroke:#000000;stroke-width:0.5;"/>
     <path clip-path="url(#p5512d9fd11)" d="M 121.889972 204.5544 
C 123.083386 204.5544 124.228081 204.080252 125.071953 203.236381 
C 125.915824 202.392509 126.389972 201.247814 126.389972 200.0544 
C 126.389972 198.860986 125.915824 197.716291 125.071953 196.872419 
C 124.228081 196.028548 123.083386 195.5544 121.889972 195.5544 
C 120.696558 195.5544 119.551863 196.028548 118.707992 196.872419 
C 117.86412 197.716291 117.389972 198.860986 117.389972 200.0544 
C 117.389972 201.247814 117.86412 202.392509 118.707992 203.236381 
C 119.551863 204.080252 120.696558 204.5544 121.889972 204.5544 
z
" style="fill:#d32f2f;stroke:#000000;stroke-width:0.5;"/>
     <path clip-path="url(#p5512d9fd11)" d="M 137.170868 195.7896 
C 138.364282 195.7896 139.508978 195.315452 140.352849 194.471581 
C 141.19672 193.627709 141.670868 192.483014 141.670868 191.2896 
C 141.670868 190.096186 141.19672 188.951491 140.352849 188.107619 
C 139.508978 187.263748 138.364282 186.7896 137.170868 186.7896 
C 135.977454 186.7896 134.832759 187.263748 133.988888 188.107619 
C 133.145017 188.951491 132.670868 190.096186 132.670868 191.2896 
C 132.670868 192.483014 133.145017 193.627709 133.988888 194.471581 
C 134.832759 195.315452 135.977454 195.7896 137.170868 195.7896 
z
" style="fill:#d32f2f;stroke:#000000;stroke-width:0.5;"/>
     <path clip-path="url(#p5512d9fd11)" d="M 148.73042 185.4312 
C 149.923834 185.4312 151.06853 184.957052 151.912401 184.113181 
C 152.756272 183.269309 153.23042 182.124614 153.23042 180.9312 
C 153.23042 179.737786 152.756272 178.593091 151.912401 177.749219 
C 151.06853 176.905348 149.923834 176.4312 148.73042 176.4312 
C 147.537006 176.4312 146.392311 176.905348 145.54844 177.749219 
C 144.704569 178.593091 144.23042 179.737786 144.23042 180.9312 
C 144.23042 182.124614 144.704569 183.269309 145.54844 184.113181 
C 146.392311 184.957052 147.537006 185.4312 148.73042 185.4312 
z
" style="fill:#d32f2f;stroke:#000000;stroke-width:0.5;"/>
     <path clip-path="url(#p5512d9fd11)" d="M 160.289972 160.7304 
C 161.483386 160.7304 162.628081 160.256252 163.471953 159.412381 
C 164.315824 158.568509 164.789972 157.423814 164.789972 156.2304 
C 164.789972 155.036986 164.315824 153.892291 163.471953 153.048419 
C 162.628081 152.204548 161.483386 151.7304 160.289972 151.7304 
C 159.096558 151.7304 157.951863 152.204548 157.107992 153.048419 
C 156.26412 153.892291 155.789972 155.036986 155.789972 156.2304 
C 155.789972 157.423814 156.26412 158.568509 157.107992 159.412381 
C 157.951863 160.256252 159.096558 160.7304 160.289972 160.7304 
z
" style="fill:#d32f2f;stroke:#000000;stroke-width:0.5;"/>
     <path clip-path="url(#p5512d9fd11)" d="M 167.051876 172.6824 
C 168.24529 172.6824 169.389986 172.208252 170.233857 171.364381 
C 171.077728 170.520509 171.551876 169.375814 171.551876 168.1824 
C 171.551876 166.988986 171.077728 165.844291 170.233857 165.000419 
C 169.389986 164.156548 168.24529 163.6824 167.051876 163.6824 
C 165.858462 163.6824 164.713767 164.156548 163.869896 165.000419 
C 163.026025 165.844291 162.551876 166.988986 162.551876 168.1824 
C 162.551876 169.375814 163.026025 170.520509 163.869896 171.364381 
C 164.713767 172.208252 165.858462 172.6824 167.051876 172.6824 
z
" style="fill:#d32f2f;stroke:#000000;stroke-width:0.5;"/>
     <path clip-path="url(#p5512d9fd11)" d="M 171.849524 124.8744 
C 173.042938 124.8744 174.187633 124.400252 175.031504 123.556381 
C 175.875376 122.712509 176.349524 121.567814 176.349524 120.3744 
C 176.349524 119.180986 175.875376 118.036291 175.031504 117.192419 
C 174.187633 116.348548 173.042938 115.8744 171.849524 115.8744 
C 170.65611 115.8744 169.511414 116.348548 168.667543 117.192419 
C 167.823672 118.036291 167.349524 119.180986 167.349524 120.3744 
C 167.349524 121.567814 167.823672 122.712509 168.667543 123.556381 
C 169.511414 124.400252 170.65611 124.8744 171.849524 124.8744 
z
" style="fill:#d32f2f;stroke:#000000;stroke-width:0.5;"/>
     <path clip-path="url(#p5512d9fd11)" d="M 178.611428 98.58 
C 179.804842 98.58 180.949538 98.105852 181.793409 97.261981 
C 182.63728 96.418109 183.111428 95.273414 183.111428 94.08 
C 183.111428 92.886586 182.63728 91.741891 181.793409 90.898019 
C 180.949538 90.054148 179.804842 89.58 178.611428 89.58 
C 177.418014 89.58 176.273319 90.054148 175.429448 90.898019 
C 174.585577 91.741891 174.111428 92.886586 174.111428 94.08 
C 174.111428 95.273414 174.585577 96.418109 175.429448 97.261981 
C 176.273319 98.105852 177.418014 98.58 178.611428 98.58 
z
" style="fill:#d32f2f;stroke:#000000;stroke-width:0.5;"/>
     <path clip-path="url(#p5512d9fd11)" d="M 183.409076 103.3608 
C 184.60249 103.3608 185.747185 102.886652 186.591056 102.042781 
C 187.434927 101.198909 187.909076 100.054214 187.909076 98.8608 
C 187.909076 97.667386 187.434927 96.522691 186.591056 95.678819 
C 185.747185 94.834948 184.60249 94.3608 183.409076 94.3608 
C 182.215662 94.3608 181.070966 94.834948 180.227095 95.678819 
C 179.383224 96.522691 178.909076 97.667386 178.909076 98.8608 
C 178.909076 100.054214 179.383224 101.198909 180.227095 102.042781 
C 181.070966 102.886652 182.215662 103.3608 183.409076 103.3608 
z
" style="fill:#d32f2f;stroke:#000000;stroke-width:0.5;"/>
     <path clip-path="url(#p5512d9fd11)" d="M 190.17098 70.692 
C 191.364394 70.692 192.50909 70.217852 193.352961 69.373981 
C 194.196832 68.530109 194.67098 67.385414 194.67098 66.192 
C 194.67098 64.998586 194.196832 63.853891 193.352961 63.010019 
C 192.50909 62.166148 191.364394 61.692 190.17098 61.692 
C 188.977566 61.692 187.832871 62.166148 186.989 63.010019 
C 186.145128 63.853891 185.67098 64.998586 185.67098 66.192 
C 185.67098 67.385414 186.145128 68.530109 186.989 69.373981 
C 187.832871 70.217852 188.977566 70.692 190.17098 70.692 
z
" style="fill:#d32f2f;stroke:#000000;stroke-width:0.5;"/>
     <path clip-path="url(#p5512d9fd11)" d="M 194.968628 66.708 
C 196.162042 66.708 197.306737 66.233852 198.150608 65.389981 
C 198.994479 64.546109 199.468628 63.401414 199.468628 62.208 
C 199.468628 61.014586 198.994479 59.869891 198.150608 59.026019 
C 197.306737 58.182148 196.162042 57.708 194.968628 57.708 
C 193.775214 57.708 192.630518 58.182148 191.786647 59.026019 
C 190.942776 59.869891 190.468628 61.014586 190.468628 62.208 
C 190.468628 63.401414 190.942776 64.546109 191.786647 65.389981 
C 192.630518 66.233852 193.775214 66.708 194.968628 66.708 
z
" style="fill:#d32f2f;stroke:#000000;stroke-width:0.5;"/>
     <path clip-path="url(#p5512d9fd11)" d="M 205.451876 46.788 
C 206.64529 46.788 207.789986 46.313852 208.633857 45.469981 
C 209.477728 44.626109 209.951876 43.481414 209.951876 42.288 
C 209.951876 41.094586 209.477728 39.949891 208.633857 39.106019 
C 207.789986 38.262148 206.64529 37.788 205.451876 37.788 
C 204.258462 37.788 203.113767 38.262148 202.269896 39.106019 
C 201.426025 39.949891 200.951876 41.094586 200.951876 42.288 
C 200.951876 43.481414 201.426025 44.626109 202.269896 45.469981 
C 203.113767 46.313852 204.258462 46.788 205.451876 46.788 
z
" style="fill:#d32f2f;stroke:#000000;stroke-width:0.5;"/>
     <path clip-path="url(#p5512d9fd11)" d="M 217.011428 52.3656 
C 218.204842 52.3656 219.349538 51.891452 220.193409 51.047581 
C 221.03728 50.203709 221.511428 49.059014 221.511428 47.8656 
C 221.511428 46.672186 221.03728 45.527491 220.193409 44.683619 
C 219.349538 43.839748 218.204842 43.3656 217.011428 43.3656 
C 215.818014 43.3656 214.673319 43.839748 213.829448 44.683619 
C 212.985577 45.527491 212.511428 46.672186 212.511428 47.8656 
C 212.511428 49.059014 212.985577 50.203709 213.829448 51.047581 
C 214.673319 51.891452 215.818014 52.3656 217.011428 52.3656 
z
" style="fill:#d32f2f;stroke:#000000;stroke-width:0.5;"/>
    </g>
    <g id="axes_4">
     <g id="patch_7">
      <path d="M 43.2 253.44 
L 81.6 253.44 
L 81.6 14.4 
L 43.2 14.4 
z
" style="fill:#ffffff;"/>
     </g>
     <g id="matplotlib.axis_5">
      <g id="xtick_52">
       <path d="M 56 253.44 
L 56 255.44 
" style="stroke:#000000;stroke-width:0.5;"/>
       <g id="text_6">
        <!-- $\mathdefault{0}$ -->
        <g transform="translate(53.4 265.44)">
         <text>
          <tspan style="font-family:Corbel;font-size:10px;font-style:regular;font-weight:regular;" x="0" y="-0.234375">0</tspan>
         </text>
        </g>
       </g>
      </g>
      <g id="xtick_53">
       <path d="M 81.6 253.44 
L 81.6 255.44 
" style="stroke:#000000;stroke-width:0.5;"/>
       <g id="text_7">
        <!-- $\mathdefault{1}$ -->
        <g transform="translate(79.35 265.44)">
         <text>
          <tspan style="font-family:Corbel;font-size:10px;font-style:regular;font-weight:regular;" x="0" y="-0.359375">1</tspan>
         </text>
        </g>
       </g>
      </g>
      <g id="text_8">
       <text style="font-family:Corbel;font-size:11px;font-style:normal;font-weight:normal;text-anchor:middle;" transform="rotate(-0, 158.4, 279.487656)" x="158.4" y="279.487656">[PhyB] (nM)</text>
      </g>
     </g>
     <g id="patch_8">
      <path d="M 43.2 253.44 
L 81.6 253.44 
" style="fill:none;stroke:#000000;stroke-linecap:square;stroke-linejoin:miter;"/>
     </g>
     <g id="axes_5">
      <g id="matplotlib.axis_6">
       <g id="ytick_4">
        <path d="M 43.2 217.584 
L 41.2 217.584 
" style="stroke:#000000;stroke-width:0.5;"/>
        <g id="text_9">
         <text style="font-family:Corbel;font-size:10px;font-style:normal;font-weight:normal;text-anchor:end;" transform="rotate(-0, 40.2, 219.984)" x="40.2" y="219.984">0.000</text>
        </g>
       </g>
       <g id="ytick_5">
        <path d="M 43.2 121.968 
L 41.2 121.968 
" style="stroke:#000000;stroke-width:0.5;"/>
        <g id="text_10">
         <text style="font-family:Corbel;font-size:10px;font-style:normal;font-weight:normal;text-anchor:end;" transform="rotate(-0, 40.2, 124.368)" x="40.2" y="124.368">0.004</text>
        </g>
       </g>
       <g id="ytick_6">
        <path d="M 43.2 26.352 
L 41.2 26.352 
" style="stroke:#000000;stroke-width:0.5;"/>
        <g id="text_11">
         <text style="font-family:Corbel;font-size:10px;font-style:normal;font-weight:normal;text-anchor:end;" transform="rotate(-0, 40.2, 28.752)" x="40.2" y="28.752">0.008</text>
        </g>
       </g>
       <g id="text_12">
        <text style="font-family:Corbel;font-size:11px;font-style:normal;font-weight:normal;text-anchor:middle;" transform="rotate(-90, 12.979687, 133.92)" x="12.979687" y="133.92">Anisotropy</text>
       </g>
      </g>
      <g id="patch_9">
       <path d="M 43.2 253.44 
L 43.2 14.4 
" style="fill:none;stroke:#000000;stroke-linecap:square;stroke-linejoin:miter;"/>
       <g id="patch_10">
        <path d="M 43.2 15.5952 
L 46.08 16.7904 
L 43.2 4.8384 
L 40.32 16.7904 
z
" style="stroke:#000000;stroke-linecap:square;stroke-linejoin:miter;"/>
        <path clip-path="url(#p712c273f1d)" d="M 43.2 218.342401 
L 81.6 218.334155 
L 81.6 218.334155 
" style="fill:none;stroke:#868786;stroke-dasharray:1.2,1.98;stroke-dashoffset:0;stroke-width:1.2;"/>
        <path clip-path="url(#p712c273f1d)" d="M 43.2 216.904254 
L 81.6 215.603161 
L 81.6 215.603161 
" style="fill:none;stroke:#d32f2f;stroke-width:1.2;"/>
        <path clip-path="url(#p712c273f1d)" d="M 56 263.2824 
L 51.5 272.2824 
L 60.5 272.2824 
z
" style="fill:#868786;stroke:#000000;stroke-linejoin:miter;stroke-width:0.5;"/>
        <path clip-path="url(#p712c273f1d)" d="M 184 208.3032 
L 179.5 217.3032 
L 188.5 217.3032 
z
" style="fill:#868786;stroke:#000000;stroke-linejoin:miter;stroke-width:0.5;"/>
        <path clip-path="url(#p712c273f1d)" d="M 312 227.4264 
L 307.5 236.4264 
L 316.5 236.4264 
z
" style="fill:#868786;stroke:#000000;stroke-linejoin:miter;stroke-width:0.5;"/>
        <path clip-path="url(#p712c273f1d)" d="M 568 221.8488 
L 563.5 230.8488 
L 572.5 230.8488 
z
" style="fill:#868786;stroke:#000000;stroke-linejoin:miter;stroke-width:0.5;"/>
        <path clip-path="url(#p712c273f1d)" d="M 1336 236.1912 
L 1331.5 245.1912 
L 1340.5 245.1912 
z
" style="fill:#868786;stroke:#000000;stroke-linejoin:miter;stroke-width:0.5;"/>
        <path clip-path="url(#p712c273f1d)" d="M 2616 201.9288 
L 2611.5 210.9288 
L 2620.5 210.9288 
z
" style="fill:#868786;stroke:#000000;stroke-linejoin:miter;stroke-width:0.5;"/>
        <path clip-path="url(#p712c273f1d)" d="M 5176 185.9928 
L 5171.5 194.9928 
L 5180.5 194.9928 
z
" style="fill:#868786;stroke:#000000;stroke-linejoin:miter;stroke-width:0.5;"/>
        <path clip-path="url(#p712c273f1d)" d="M 7736 205.9128 
L 7731.5 214.9128 
L 7740.5 214.9128 
z
" style="fill:#868786;stroke:#000000;stroke-linejoin:miter;stroke-width:0.5;"/>
        <path clip-path="url(#p712c273f1d)" d="M 10296 221.8488 
L 10291.5 230.8488 
L 10300.5 230.8488 
z
" style="fill:#868786;stroke:#000000;stroke-linejoin:miter;stroke-width:0.5;"/>
        <path clip-path="url(#p712c273f1d)" d="M 15416 231.4104 
L 15411.5 240.4104 
L 15420.5 240.4104 
z
" style="fill:#868786;stroke:#000000;stroke-linejoin:miter;stroke-width:0.5;"/>
        <path clip-path="url(#p712c273f1d)" d="M 20536 217.8648 
L 20531.5 226.8648 
L 20540.5 226.8648 
z
" style="fill:#868786;stroke:#000000;stroke-linejoin:miter;stroke-width:0.5;"/>
        <path clip-path="url(#p712c273f1d)" d="M 30776 189.9768 
L 30771.5 198.9768 
L 30780.5 198.9768 
z
" style="fill:#868786;stroke:#000000;stroke-linejoin:miter;stroke-width:0.5;"/>
        <path clip-path="url(#p712c273f1d)" d="M 41016 218.6616 
L 41011.5 227.6616 
L 41020.5 227.6616 
z
" style="fill:#868786;stroke:#000000;stroke-linejoin:miter;stroke-width:0.5;"/>
        <path clip-path="url(#p712c273f1d)" d="M 76856 191.5704 
L 76851.5 200.5704 
L 76860.5 200.5704 
z
" style="fill:#868786;stroke:#000000;stroke-linejoin:miter;stroke-width:0.5;"/>
        <path clip-path="url(#p712c273f1d)" d="M 153656 185.196 
L 153651.5 194.196 
L 153660.5 194.196 
z
" style="fill:#868786;stroke:#000000;stroke-linejoin:miter;stroke-width:0.5;"/>
        <path clip-path="url(#p712c273f1d)" d="M 56 232.4424 
C 57.193414 232.4424 58.338109 231.968252 59.181981 231.124381 
C 60.025852 230.280509 60.5 229.135814 60.5 227.9424 
C 60.5 226.748986 60.025852 225.604291 59.181981 224.760419 
C 58.338109 223.916548 57.193414 223.4424 56 223.4424 
C 54.806586 223.4424 53.661891 223.916548 52.818019 224.760419 
C 51.974148 225.604291 51.5 226.748986 51.5 227.9424 
C 51.5 229.135814 51.974148 230.280509 52.818019 231.124381 
C 53.661891 231.968252 54.806586 232.4424 56 232.4424 
z
" style="fill:#d32f2f;stroke:#000000;stroke-width:0.5;"/>
        <path clip-path="url(#p712c273f1d)" d="M 127.68 241.2072 
C 128.873414 241.2072 130.018109 240.733052 130.861981 239.889181 
C 131.705852 239.045309 132.18 237.900614 132.18 236.7072 
C 132.18 235.513786 131.705852 234.369091 130.861981 233.525219 
C 130.018109 232.681348 128.873414 232.2072 127.68 232.2072 
C 126.486586 232.2072 125.341891 232.681348 124.498019 233.525219 
C 123.654148 234.369091 123.18 235.513786 123.18 236.7072 
C 123.18 237.900614 123.654148 239.045309 124.498019 239.889181 
C 125.341891 240.733052 126.486586 241.2072 127.68 241.2072 
z
" style="fill:#d32f2f;stroke:#000000;stroke-width:0.5;"/>
        <path clip-path="url(#p712c273f1d)" d="M 199.36 233.2392 
C 200.553414 233.2392 201.698109 232.765052 202.541981 231.921181 
C 203.385852 231.077309 203.86 229.932614 203.86 228.7392 
C 203.86 227.545786 203.385852 226.401091 202.541981 225.557219 
C 201.698109 224.713348 200.553414 224.2392 199.36 224.2392 
C 198.166586 224.2392 197.021891 224.713348 196.178019 225.557219 
C 195.334148 226.401091 194.86 227.545786 194.86 228.7392 
C 194.86 229.932614 195.334148 231.077309 196.178019 231.921181 
C 197.021891 232.765052 198.166586 233.2392 199.36 233.2392 
z
" style="fill:#d32f2f;stroke:#000000;stroke-width:0.5;"/>
        <path clip-path="url(#p712c273f1d)" d="M 342.72 204.5544 
C 343.913414 204.5544 345.058109 204.080252 345.901981 203.236381 
C 346.745852 202.392509 347.22 201.247814 347.22 200.0544 
C 347.22 198.860986 346.745852 197.716291 345.901981 196.872419 
C 345.058109 196.028548 343.913414 195.5544 342.72 195.5544 
C 341.526586 195.5544 340.381891 196.028548 339.538019 196.872419 
C 338.694148 197.716291 338.22 198.860986 338.22 200.0544 
C 338.22 201.247814 338.694148 202.392509 339.538019 203.236381 
C 340.381891 204.080252 341.526586 204.5544 342.72 204.5544 
z
" style="fill:#d32f2f;stroke:#000000;stroke-width:0.5;"/>
        <path clip-path="url(#p712c273f1d)" d="M 772.8 195.7896 
C 773.993414 195.7896 775.138109 195.315452 775.981981 194.471581 
C 776.825852 193.627709 777.3 192.483014 777.3 191.2896 
C 777.3 190.096186 776.825852 188.951491 775.981981 188.107619 
C 775.138109 187.263748 773.993414 186.7896 772.8 186.7896 
C 771.606586 186.7896 770.461891 187.263748 769.618019 188.107619 
C 768.774148 188.951491 768.3 190.096186 768.3 191.2896 
C 768.3 192.483014 768.774148 193.627709 769.618019 194.471581 
C 770.461891 195.315452 771.606586 195.7896 772.8 195.7896 
z
" style="fill:#d32f2f;stroke:#000000;stroke-width:0.5;"/>
        <path clip-path="url(#p712c273f1d)" d="M 1489.6 185.4312 
C 1490.793414 185.4312 1491.938109 184.957052 1492.781981 184.113181 
C 1493.625852 183.269309 1494.1 182.124614 1494.1 180.9312 
C 1494.1 179.737786 1493.625852 178.593091 1492.781981 177.749219 
C 1491.938109 176.905348 1490.793414 176.4312 1489.6 176.4312 
C 1488.406586 176.4312 1487.261891 176.905348 1486.418019 177.749219 
C 1485.574148 178.593091 1485.1 179.737786 1485.1 180.9312 
C 1485.1 182.124614 1485.574148 183.269309 1486.418019 184.113181 
C 1487.261891 184.957052 1488.406586 185.4312 1489.6 185.4312 
z
" style="fill:#d32f2f;stroke:#000000;stroke-width:0.5;"/>
        <path clip-path="url(#p712c273f1d)" d="M 2923.2 160.7304 
C 2924.393414 160.7304 2925.538109 160.256252 2926.381981 159.412381 
C 2927.225852 158.568509 2927.7 157.423814 2927.7 156.2304 
C 2927.7 155.036986 2927.225852 153.892291 2926.381981 153.048419 
C 2925.538109 152.204548 2924.393414 151.7304 2923.2 151.7304 
C 2922.006586 151.7304 2920.861891 152.204548 2920.018019 153.048419 
C 2919.174148 153.892291 2918.7 155.036986 2918.7 156.2304 
C 2918.7 157.423814 2919.174148 158.568509 2920.018019 159.412381 
C 2920.861891 160.256252 2922.006586 160.7304 2923.2 160.7304 
z
" style="fill:#d32f2f;stroke:#000000;stroke-width:0.5;"/>
        <path clip-path="url(#p712c273f1d)" d="M 4356.8 172.6824 
C 4357.993414 172.6824 4359.138109 172.208252 4359.981981 171.364381 
C 4360.825852 170.520509 4361.3 169.375814 4361.3 168.1824 
C 4361.3 166.988986 4360.825852 165.844291 4359.981981 165.000419 
C 4359.138109 164.156548 4357.993414 163.6824 4356.8 163.6824 
C 4355.606586 163.6824 4354.461891 164.156548 4353.618019 165.000419 
C 4352.774148 165.844291 4352.3 166.988986 4352.3 168.1824 
C 4352.3 169.375814 4352.774148 170.520509 4353.618019 171.364381 
C 4354.461891 172.208252 4355.606586 172.6824 4356.8 172.6824 
z
" style="fill:#d32f2f;stroke:#000000;stroke-width:0.5;"/>
        <path clip-path="url(#p712c273f1d)" d="M 5790.4 124.8744 
C 5791.593414 124.8744 5792.738109 124.400252 5793.581981 123.556381 
C 5794.425852 122.712509 5794.9 121.567814 5794.9 120.3744 
C 5794.9 119.180986 5794.425852 118.036291 5793.581981 117.192419 
C 5792.738109 116.348548 5791.593414 115.8744 5790.4 115.8744 
C 5789.206586 115.8744 5788.061891 116.348548 5787.218019 117.192419 
C 5786.374148 118.036291 5785.9 119.180986 5785.9 120.3744 
C 5785.9 121.567814 5786.374148 122.712509 5787.218019 123.556381 
C 5788.061891 124.400252 5789.206586 124.8744 5790.4 124.8744 
z
" style="fill:#d32f2f;stroke:#000000;stroke-width:0.5;"/>
        <path clip-path="url(#p712c273f1d)" d="M 8657.6 98.58 
C 8658.793414 98.58 8659.938109 98.105852 8660.781981 97.261981 
C 8661.625852 96.418109 8662.1 95.273414 8662.1 94.08 
C 8662.1 92.886586 8661.625852 91.741891 8660.781981 90.898019 
C 8659.938109 90.054148 8658.793414 89.58 8657.6 89.58 
C 8656.406586 89.58 8655.261891 90.054148 8654.418019 90.898019 
C 8653.574148 91.741891 8653.1 92.886586 8653.1 94.08 
C 8653.1 95.273414 8653.574148 96.418109 8654.418019 97.261981 
C 8655.261891 98.105852 8656.406586 98.58 8657.6 98.58 
z
" style="fill:#d32f2f;stroke:#000000;stroke-width:0.5;"/>
        <path clip-path="url(#p712c273f1d)" d="M 11524.8 103.3608 
C 11525.993414 103.3608 11527.138109 102.886652 11527.981981 102.042781 
C 11528.825852 101.198909 11529.3 100.054214 11529.3 98.8608 
C 11529.3 97.667386 11528.825852 96.522691 11527.981981 95.678819 
C 11527.138109 94.834948 11525.993414 94.3608 11524.8 94.3608 
C 11523.606586 94.3608 11522.461891 94.834948 11521.618019 95.678819 
C 11520.774148 96.522691 11520.3 97.667386 11520.3 98.8608 
C 11520.3 100.054214 11520.774148 101.198909 11521.618019 102.042781 
C 11522.461891 102.886652 11523.606586 103.3608 11524.8 103.3608 
z
" style="fill:#d32f2f;stroke:#000000;stroke-width:0.5;"/>
        <path clip-path="url(#p712c273f1d)" d="M 17259.2 70.692 
C 17260.393414 70.692 17261.538109 70.217852 17262.381981 69.373981 
C 17263.225852 68.530109 17263.7 67.385414 17263.7 66.192 
C 17263.7 64.998586 17263.225852 63.853891 17262.381981 63.010019 
C 17261.538109 62.166148 17260.393414 61.692 17259.2 61.692 
C 17258.006586 61.692 17256.861891 62.166148 17256.018019 63.010019 
C 17255.174148 63.853891 17254.7 64.998586 17254.7 66.192 
C 17254.7 67.385414 17255.174148 68.530109 17256.018019 69.373981 
C 17256.861891 70.217852 17258.006586 70.692 17259.2 70.692 
z
" style="fill:#d32f2f;stroke:#000000;stroke-width:0.5;"/>
        <path clip-path="url(#p712c273f1d)" d="M 22993.6 66.708 
C 22994.793414 66.708 22995.938109 66.233852 22996.781981 65.389981 
C 22997.625852 64.546109 22998.1 63.401414 22998.1 62.208 
C 22998.1 61.014586 22997.625852 59.869891 22996.781981 59.026019 
C 22995.938109 58.182148 22994.793414 57.708 22993.6 57.708 
C 22992.406586 57.708 22991.261891 58.182148 22990.418019 59.026019 
C 22989.574148 59.869891 22989.1 61.014586 22989.1 62.208 
C 22989.1 63.401414 22989.574148 64.546109 22990.418019 65.389981 
C 22991.261891 66.233852 22992.406586 66.708 22993.6 66.708 
z
" style="fill:#d32f2f;stroke:#000000;stroke-width:0.5;"/>
        <path clip-path="url(#p712c273f1d)" d="M 43064 46.788 
C 43065.193414 46.788 43066.338109 46.313852 43067.181981 45.469981 
C 43068.025852 44.626109 43068.5 43.481414 43068.5 42.288 
C 43068.5 41.094586 43068.025852 39.949891 43067.181981 39.106019 
C 43066.338109 38.262148 43065.193414 37.788 43064 37.788 
C 43062.806586 37.788 43061.661891 38.262148 43060.818019 39.106019 
C 43059.974148 39.949891 43059.5 41.094586 43059.5 42.288 
C 43059.5 43.481414 43059.974148 44.626109 43060.818019 45.469981 
C 43061.661891 46.313852 43062.806586 46.788 43064 46.788 
z
" style="fill:#d32f2f;stroke:#000000;stroke-width:0.5;"/>
        <path clip-path="url(#p712c273f1d)" d="M 86072 52.3656 
C 86073.193414 52.3656 86074.338109 51.891452 86075.181981 51.047581 
C 86076.025852 50.203709 86076.5 49.059014 86076.5 47.8656 
C 86076.5 46.672186 86076.025852 45.527491 86075.181981 44.683619 
C 86074.338109 43.839748 86073.193414 43.3656 86072 43.3656 
C 86070.806586 43.3656 86069.661891 43.839748 86068.818019 44.683619 
C 86067.974148 45.527491 86067.5 46.672186 86067.5 47.8656 
C 86067.5 49.059014 86067.974148 50.203709 86068.818019 51.047581 
C 86069.661891 51.891452 86070.806586 52.3656 86072 52.3656 
z
" style="fill:#d32f2f;stroke:#000000;stroke-width:0.5;"/>
       </g>
      </g>
      <defs>
       <clipPath id="p5512d9fd11">
        <rect height="239.04" width="192" x="81.6" y="14.4"/>
       </clipPath>
       <clipPath id="p712c273f1d">
        <rect height="239.04" width="38.4" x="43.2" y="14.4"/>
       </clipPath>
      </defs>
     </g>
    </g>
   </g>
  </g>
 </g>
</svg>
