<?xml version="1.0" encoding="utf-8" standalone="no"?>
<!DOCTYPE svg PUBLIC "-//W3C//DTD SVG 1.1//EN"
  "http://www.w3.org/Graphics/SVG/1.1/DTD/svg11.dtd">
<!-- Created with matplotlib (http://matplotlib.org/) -->
<svg height="288pt" version="1.1" viewBox="0 0 288 288" width="288pt" xmlns="http://www.w3.org/2000/svg" xmlns:xlink="http://www.w3.org/1999/xlink">
 <defs>
  <style type="text/css">
*{stroke-linecap:butt;stroke-linejoin:round;}
  </style>
 </defs>
 <g id="figure_1">
  <g id="patch_1">
   <path d="M 0 288 
L 288 288 
L 288 0 
L 0 0 
z
" style="fill:#ffffff;"/>
  </g>
  <g id="axes_1">
   <g id="patch_2">
    <path d="M 43.2 253.44 
L 273.6 253.44 
L 273.6 14.4 
L 43.2 14.4 
z
" style="fill:#ffffff;"/>
   </g>
   <g id="matplotlib.axis_1">
    <g id="xtick_1">
     <path d="M 43.2 253.44 
L 43.2 258.44 
" style="stroke:#000000;stroke-width:0.5;"/>
     <g id="text_1">
      <!-- 0 -->
      <defs>
       <path d="M 31.78125 66.40625 
Q 24.171875 66.40625 20.328125 58.90625 
Q 16.5 51.421875 16.5 36.375 
Q 16.5 21.390625 20.328125 13.890625 
Q 24.171875 6.390625 31.78125 6.390625 
Q 39.453125 6.390625 43.28125 13.890625 
Q 47.125 21.390625 47.125 36.375 
Q 47.125 51.421875 43.28125 58.90625 
Q 39.453125 66.40625 31.78125 66.40625 
z
M 31.78125 74.21875 
Q 44.046875 74.21875 50.515625 64.515625 
Q 56.984375 54.828125 56.984375 36.375 
Q 56.984375 17.96875 50.515625 8.265625 
Q 44.046875 -1.421875 31.78125 -1.421875 
Q 19.53125 -1.421875 13.0625 8.265625 
Q 6.59375 17.96875 6.59375 36.375 
Q 6.59375 54.828125 13.0625 64.515625 
Q 19.53125 74.21875 31.78125 74.21875 
z
" id="DejaVuSans-30"/>
      </defs>
      <g transform="translate(40.336875 268.778594)scale(0.09 -0.09)">
       <use xlink:href="#DejaVuSans-30"/>
      </g>
     </g>
    </g>
    <g id="xtick_2">
     <path d="M 81.6 253.44 
L 81.6 258.44 
" style="stroke:#000000;stroke-width:0.5;"/>
     <g id="text_2">
      <!-- 5 -->
      <defs>
       <path d="M 10.796875 72.90625 
L 49.515625 72.90625 
L 49.515625 64.59375 
L 19.828125 64.59375 
L 19.828125 46.734375 
Q 21.96875 47.46875 24.109375 47.828125 
Q 26.265625 48.1875 28.421875 48.1875 
Q 40.625 48.1875 47.75 41.5 
Q 54.890625 34.8125 54.890625 23.390625 
Q 54.890625 11.625 47.5625 5.09375 
Q 40.234375 -1.421875 26.90625 -1.421875 
Q 22.3125 -1.421875 17.546875 -0.640625 
Q 12.796875 0.140625 7.71875 1.703125 
L 7.71875 11.625 
Q 12.109375 9.234375 16.796875 8.0625 
Q 21.484375 6.890625 26.703125 6.890625 
Q 35.15625 6.890625 40.078125 11.328125 
Q 45.015625 15.765625 45.015625 23.390625 
Q 45.015625 31 40.078125 35.4375 
Q 35.15625 39.890625 26.703125 39.890625 
Q 22.75 39.890625 18.8125 39.015625 
Q 14.890625 38.140625 10.796875 36.28125 
z
" id="DejaVuSans-35"/>
      </defs>
      <g transform="translate(78.736875 268.778594)scale(0.09 -0.09)">
       <use xlink:href="#DejaVuSans-35"/>
      </g>
     </g>
    </g>
    <g id="xtick_3">
     <path d="M 120 253.44 
L 120 258.44 
" style="stroke:#000000;stroke-width:0.5;"/>
     <g id="text_3">
      <!-- 10 -->
      <defs>
       <path d="M 12.40625 8.296875 
L 28.515625 8.296875 
L 28.515625 63.921875 
L 10.984375 60.40625 
L 10.984375 69.390625 
L 28.421875 72.90625 
L 38.28125 72.90625 
L 38.28125 8.296875 
L 54.390625 8.296875 
L 54.390625 0 
L 12.40625 0 
z
" id="DejaVuSans-31"/>
      </defs>
      <g transform="translate(114.27375 268.778594)scale(0.09 -0.09)">
       <use xlink:href="#DejaVuSans-31"/>
       <use x="63.623047" xlink:href="#DejaVuSans-30"/>
      </g>
     </g>
    </g>
    <g id="xtick_4">
     <path d="M 158.4 253.44 
L 158.4 258.44 
" style="stroke:#000000;stroke-width:0.5;"/>
     <g id="text_4">
      <!-- 15 -->
      <g transform="translate(152.67375 268.778594)scale(0.09 -0.09)">
       <use xlink:href="#DejaVuSans-31"/>
       <use x="63.623047" xlink:href="#DejaVuSans-35"/>
      </g>
     </g>
    </g>
    <g id="xtick_5">
     <path d="M 196.8 253.44 
L 196.8 258.44 
" style="stroke:#000000;stroke-width:0.5;"/>
     <g id="text_5">
      <!-- 20 -->
      <defs>
       <path d="M 19.1875 8.296875 
L 53.609375 8.296875 
L 53.609375 0 
L 7.328125 0 
L 7.328125 8.296875 
Q 12.9375 14.109375 22.625 23.890625 
Q 32.328125 33.6875 34.8125 36.53125 
Q 39.546875 41.84375 41.421875 45.53125 
Q 43.3125 49.21875 43.3125 52.78125 
Q 43.3125 58.59375 39.234375 62.25 
Q 35.15625 65.921875 28.609375 65.921875 
Q 23.96875 65.921875 18.8125 64.3125 
Q 13.671875 62.703125 7.8125 59.421875 
L 7.8125 69.390625 
Q 13.765625 71.78125 18.9375 73 
Q 24.125 74.21875 28.421875 74.21875 
Q 39.75 74.21875 46.484375 68.546875 
Q 53.21875 62.890625 53.21875 53.421875 
Q 53.21875 48.921875 51.53125 44.890625 
Q 49.859375 40.875 45.40625 35.40625 
Q 44.1875 33.984375 37.640625 27.21875 
Q 31.109375 20.453125 19.1875 8.296875 
z
" id="DejaVuSans-32"/>
      </defs>
      <g transform="translate(191.07375 268.778594)scale(0.09 -0.09)">
       <use xlink:href="#DejaVuSans-32"/>
       <use x="63.623047" xlink:href="#DejaVuSans-30"/>
      </g>
     </g>
    </g>
    <g id="xtick_6">
     <path d="M 235.2 253.44 
L 235.2 258.44 
" style="stroke:#000000;stroke-width:0.5;"/>
     <g id="text_6">
      <!-- 25 -->
      <g transform="translate(229.47375 268.778594)scale(0.09 -0.09)">
       <use xlink:href="#DejaVuSans-32"/>
       <use x="63.623047" xlink:href="#DejaVuSans-35"/>
      </g>
     </g>
    </g>
    <g id="xtick_7">
     <path d="M 273.6 253.44 
L 273.6 258.44 
" style="stroke:#000000;stroke-width:0.5;"/>
     <g id="text_7">
      <!-- 30 -->
      <defs>
       <path d="M 40.578125 39.3125 
Q 47.65625 37.796875 51.625 33 
Q 55.609375 28.21875 55.609375 21.1875 
Q 55.609375 10.40625 48.1875 4.484375 
Q 40.765625 -1.421875 27.09375 -1.421875 
Q 22.515625 -1.421875 17.65625 -0.515625 
Q 12.796875 0.390625 7.625 2.203125 
L 7.625 11.71875 
Q 11.71875 9.328125 16.59375 8.109375 
Q 21.484375 6.890625 26.8125 6.890625 
Q 36.078125 6.890625 40.9375 10.546875 
Q 45.796875 14.203125 45.796875 21.1875 
Q 45.796875 27.640625 41.28125 31.265625 
Q 36.765625 34.90625 28.71875 34.90625 
L 20.21875 34.90625 
L 20.21875 43.015625 
L 29.109375 43.015625 
Q 36.375 43.015625 40.234375 45.921875 
Q 44.09375 48.828125 44.09375 54.296875 
Q 44.09375 59.90625 40.109375 62.90625 
Q 36.140625 65.921875 28.71875 65.921875 
Q 24.65625 65.921875 20.015625 65.03125 
Q 15.375 64.15625 9.8125 62.3125 
L 9.8125 71.09375 
Q 15.4375 72.65625 20.34375 73.4375 
Q 25.25 74.21875 29.59375 74.21875 
Q 40.828125 74.21875 47.359375 69.109375 
Q 53.90625 64.015625 53.90625 55.328125 
Q 53.90625 49.265625 50.4375 45.09375 
Q 46.96875 40.921875 40.578125 39.3125 
z
" id="DejaVuSans-33"/>
      </defs>
      <g transform="translate(267.87375 268.778594)scale(0.09 -0.09)">
       <use xlink:href="#DejaVuSans-33"/>
       <use x="63.623047" xlink:href="#DejaVuSans-30"/>
      </g>
     </g>
    </g>
    <g id="text_8">
     <!-- Time (s) -->
     <defs>
      <path d="M -0.296875 72.90625 
L 61.375 72.90625 
L 61.375 64.59375 
L 35.5 64.59375 
L 35.5 0 
L 25.59375 0 
L 25.59375 64.59375 
L -0.296875 64.59375 
z
" id="DejaVuSans-54"/>
      <path d="M 9.421875 54.6875 
L 18.40625 54.6875 
L 18.40625 0 
L 9.421875 0 
z
M 9.421875 75.984375 
L 18.40625 75.984375 
L 18.40625 64.59375 
L 9.421875 64.59375 
z
" id="DejaVuSans-69"/>
      <path d="M 52 44.1875 
Q 55.375 50.25 60.0625 53.125 
Q 64.75 56 71.09375 56 
Q 79.640625 56 84.28125 50.015625 
Q 88.921875 44.046875 88.921875 33.015625 
L 88.921875 0 
L 79.890625 0 
L 79.890625 32.71875 
Q 79.890625 40.578125 77.09375 44.375 
Q 74.3125 48.1875 68.609375 48.1875 
Q 61.625 48.1875 57.5625 43.546875 
Q 53.515625 38.921875 53.515625 30.90625 
L 53.515625 0 
L 44.484375 0 
L 44.484375 32.71875 
Q 44.484375 40.625 41.703125 44.40625 
Q 38.921875 48.1875 33.109375 48.1875 
Q 26.21875 48.1875 22.15625 43.53125 
Q 18.109375 38.875 18.109375 30.90625 
L 18.109375 0 
L 9.078125 0 
L 9.078125 54.6875 
L 18.109375 54.6875 
L 18.109375 46.1875 
Q 21.1875 51.21875 25.484375 53.609375 
Q 29.78125 56 35.6875 56 
Q 41.65625 56 45.828125 52.96875 
Q 50 49.953125 52 44.1875 
z
" id="DejaVuSans-6d"/>
      <path d="M 56.203125 29.59375 
L 56.203125 25.203125 
L 14.890625 25.203125 
Q 15.484375 15.921875 20.484375 11.0625 
Q 25.484375 6.203125 34.421875 6.203125 
Q 39.59375 6.203125 44.453125 7.46875 
Q 49.3125 8.734375 54.109375 11.28125 
L 54.109375 2.78125 
Q 49.265625 0.734375 44.1875 -0.34375 
Q 39.109375 -1.421875 33.890625 -1.421875 
Q 20.796875 -1.421875 13.15625 6.1875 
Q 5.515625 13.8125 5.515625 26.8125 
Q 5.515625 40.234375 12.765625 48.109375 
Q 20.015625 56 32.328125 56 
Q 43.359375 56 49.78125 48.890625 
Q 56.203125 41.796875 56.203125 29.59375 
z
M 47.21875 32.234375 
Q 47.125 39.59375 43.09375 43.984375 
Q 39.0625 48.390625 32.421875 48.390625 
Q 24.90625 48.390625 20.390625 44.140625 
Q 15.875 39.890625 15.1875 32.171875 
z
" id="DejaVuSans-65"/>
      <path id="DejaVuSans-20"/>
      <path d="M 31 75.875 
Q 24.46875 64.65625 21.28125 53.65625 
Q 18.109375 42.671875 18.109375 31.390625 
Q 18.109375 20.125 21.3125 9.0625 
Q 24.515625 -2 31 -13.1875 
L 23.1875 -13.1875 
Q 15.875 -1.703125 12.234375 9.375 
Q 8.59375 20.453125 8.59375 31.390625 
Q 8.59375 42.28125 12.203125 53.3125 
Q 15.828125 64.359375 23.1875 75.875 
z
" id="DejaVuSans-28"/>
      <path d="M 44.28125 53.078125 
L 44.28125 44.578125 
Q 40.484375 46.53125 36.375 47.5 
Q 32.28125 48.484375 27.875 48.484375 
Q 21.1875 48.484375 17.84375 46.4375 
Q 14.5 44.390625 14.5 40.28125 
Q 14.5 37.15625 16.890625 35.375 
Q 19.28125 33.59375 26.515625 31.984375 
L 29.59375 31.296875 
Q 39.15625 29.25 43.1875 25.515625 
Q 47.21875 21.78125 47.21875 15.09375 
Q 47.21875 7.46875 41.1875 3.015625 
Q 35.15625 -1.421875 24.609375 -1.421875 
Q 20.21875 -1.421875 15.453125 -0.5625 
Q 10.6875 0.296875 5.421875 2 
L 5.421875 11.28125 
Q 10.40625 8.6875 15.234375 7.390625 
Q 20.0625 6.109375 24.8125 6.109375 
Q 31.15625 6.109375 34.5625 8.28125 
Q 37.984375 10.453125 37.984375 14.40625 
Q 37.984375 18.0625 35.515625 20.015625 
Q 33.0625 21.96875 24.703125 23.78125 
L 21.578125 24.515625 
Q 13.234375 26.265625 9.515625 29.90625 
Q 5.8125 33.546875 5.8125 39.890625 
Q 5.8125 47.609375 11.28125 51.796875 
Q 16.75 56 26.8125 56 
Q 31.78125 56 36.171875 55.265625 
Q 40.578125 54.546875 44.28125 53.078125 
z
" id="DejaVuSans-73"/>
      <path d="M 8.015625 75.875 
L 15.828125 75.875 
Q 23.140625 64.359375 26.78125 53.3125 
Q 30.421875 42.28125 30.421875 31.390625 
Q 30.421875 20.453125 26.78125 9.375 
Q 23.140625 -1.703125 15.828125 -13.1875 
L 8.015625 -13.1875 
Q 14.5 -2 17.703125 9.0625 
Q 20.90625 20.125 20.90625 31.390625 
Q 20.90625 42.671875 17.703125 53.65625 
Q 14.5 64.65625 8.015625 75.875 
z
" id="DejaVuSans-29"/>
     </defs>
     <g transform="translate(135.868906 283.008594)scale(0.11 -0.11)">
      <use xlink:href="#DejaVuSans-54"/>
      <use x="61.037109" xlink:href="#DejaVuSans-69"/>
      <use x="88.820312" xlink:href="#DejaVuSans-6d"/>
      <use x="186.232422" xlink:href="#DejaVuSans-65"/>
      <use x="247.755859" xlink:href="#DejaVuSans-20"/>
      <use x="279.542969" xlink:href="#DejaVuSans-28"/>
      <use x="318.556641" xlink:href="#DejaVuSans-73"/>
      <use x="370.65625" xlink:href="#DejaVuSans-29"/>
     </g>
    </g>
   </g>
   <g id="matplotlib.axis_2">
    <g id="ytick_1">
     <path d="M 43.2 248.843077 
L 38.2 248.843077 
" style="stroke:#000000;stroke-width:0.5;"/>
     <g id="text_9">
      <!-- 0.0 -->
      <defs>
       <path d="M 10.6875 12.40625 
L 21 12.40625 
L 21 0 
L 10.6875 0 
z
" id="DejaVuSans-2e"/>
      </defs>
      <g transform="translate(20.387187 252.262374)scale(0.09 -0.09)">
       <use xlink:href="#DejaVuSans-30"/>
       <use x="63.623047" xlink:href="#DejaVuSans-2e"/>
       <use x="95.410156" xlink:href="#DejaVuSans-30"/>
      </g>
     </g>
    </g>
    <g id="ytick_2">
     <path d="M 43.2 133.92 
L 38.2 133.92 
" style="stroke:#000000;stroke-width:0.5;"/>
     <g id="text_10">
      <!-- 0.5 -->
      <g transform="translate(20.387187 137.339297)scale(0.09 -0.09)">
       <use xlink:href="#DejaVuSans-30"/>
       <use x="63.623047" xlink:href="#DejaVuSans-2e"/>
       <use x="95.410156" xlink:href="#DejaVuSans-35"/>
      </g>
     </g>
    </g>
    <g id="ytick_3">
     <path d="M 43.2 18.996923 
L 38.2 18.996923 
" style="stroke:#000000;stroke-width:0.5;"/>
     <g id="text_11">
      <!-- 1.0 -->
      <g transform="translate(20.387187 22.41622)scale(0.09 -0.09)">
       <use xlink:href="#DejaVuSans-31"/>
       <use x="63.623047" xlink:href="#DejaVuSans-2e"/>
       <use x="95.410156" xlink:href="#DejaVuSans-30"/>
      </g>
     </g>
    </g>
    <g id="text_12">
     <!-- Product -->
     <defs>
      <path d="M 19.671875 64.796875 
L 19.671875 37.40625 
L 32.078125 37.40625 
Q 38.96875 37.40625 42.71875 40.96875 
Q 46.484375 44.53125 46.484375 51.125 
Q 46.484375 57.671875 42.71875 61.234375 
Q 38.96875 64.796875 32.078125 64.796875 
z
M 9.8125 72.90625 
L 32.078125 72.90625 
Q 44.34375 72.90625 50.609375 67.359375 
Q 56.890625 61.8125 56.890625 51.125 
Q 56.890625 40.328125 50.609375 34.8125 
Q 44.34375 29.296875 32.078125 29.296875 
L 19.671875 29.296875 
L 19.671875 0 
L 9.8125 0 
z
" id="DejaVuSans-50"/>
      <path d="M 41.109375 46.296875 
Q 39.59375 47.171875 37.8125 47.578125 
Q 36.03125 48 33.890625 48 
Q 26.265625 48 22.1875 43.046875 
Q 18.109375 38.09375 18.109375 28.8125 
L 18.109375 0 
L 9.078125 0 
L 9.078125 54.6875 
L 18.109375 54.6875 
L 18.109375 46.1875 
Q 20.953125 51.171875 25.484375 53.578125 
Q 30.03125 56 36.53125 56 
Q 37.453125 56 38.578125 55.875 
Q 39.703125 55.765625 41.0625 55.515625 
z
" id="DejaVuSans-72"/>
      <path d="M 30.609375 48.390625 
Q 23.390625 48.390625 19.1875 42.75 
Q 14.984375 37.109375 14.984375 27.296875 
Q 14.984375 17.484375 19.15625 11.84375 
Q 23.34375 6.203125 30.609375 6.203125 
Q 37.796875 6.203125 41.984375 11.859375 
Q 46.1875 17.53125 46.1875 27.296875 
Q 46.1875 37.015625 41.984375 42.703125 
Q 37.796875 48.390625 30.609375 48.390625 
z
M 30.609375 56 
Q 42.328125 56 49.015625 48.375 
Q 55.71875 40.765625 55.71875 27.296875 
Q 55.71875 13.875 49.015625 6.21875 
Q 42.328125 -1.421875 30.609375 -1.421875 
Q 18.84375 -1.421875 12.171875 6.21875 
Q 5.515625 13.875 5.515625 27.296875 
Q 5.515625 40.765625 12.171875 48.375 
Q 18.84375 56 30.609375 56 
z
" id="DejaVuSans-6f"/>
      <path d="M 45.40625 46.390625 
L 45.40625 75.984375 
L 54.390625 75.984375 
L 54.390625 0 
L 45.40625 0 
L 45.40625 8.203125 
Q 42.578125 3.328125 38.25 0.953125 
Q 33.9375 -1.421875 27.875 -1.421875 
Q 17.96875 -1.421875 11.734375 6.484375 
Q 5.515625 14.40625 5.515625 27.296875 
Q 5.515625 40.1875 11.734375 48.09375 
Q 17.96875 56 27.875 56 
Q 33.9375 56 38.25 53.625 
Q 42.578125 51.265625 45.40625 46.390625 
z
M 14.796875 27.296875 
Q 14.796875 17.390625 18.875 11.75 
Q 22.953125 6.109375 30.078125 6.109375 
Q 37.203125 6.109375 41.296875 11.75 
Q 45.40625 17.390625 45.40625 27.296875 
Q 45.40625 37.203125 41.296875 42.84375 
Q 37.203125 48.484375 30.078125 48.484375 
Q 22.953125 48.484375 18.875 42.84375 
Q 14.796875 37.203125 14.796875 27.296875 
z
" id="DejaVuSans-64"/>
      <path d="M 8.5 21.578125 
L 8.5 54.6875 
L 17.484375 54.6875 
L 17.484375 21.921875 
Q 17.484375 14.15625 20.5 10.265625 
Q 23.53125 6.390625 29.59375 6.390625 
Q 36.859375 6.390625 41.078125 11.03125 
Q 45.3125 15.671875 45.3125 23.6875 
L 45.3125 54.6875 
L 54.296875 54.6875 
L 54.296875 0 
L 45.3125 0 
L 45.3125 8.40625 
Q 42.046875 3.421875 37.71875 1 
Q 33.40625 -1.421875 27.6875 -1.421875 
Q 18.265625 -1.421875 13.375 4.4375 
Q 8.5 10.296875 8.5 21.578125 
z
M 31.109375 56 
z
" id="DejaVuSans-75"/>
      <path d="M 48.78125 52.59375 
L 48.78125 44.1875 
Q 44.96875 46.296875 41.140625 47.34375 
Q 37.3125 48.390625 33.40625 48.390625 
Q 24.65625 48.390625 19.8125 42.84375 
Q 14.984375 37.3125 14.984375 27.296875 
Q 14.984375 17.28125 19.8125 11.734375 
Q 24.65625 6.203125 33.40625 6.203125 
Q 37.3125 6.203125 41.140625 7.25 
Q 44.96875 8.296875 48.78125 10.40625 
L 48.78125 2.09375 
Q 45.015625 0.34375 40.984375 -0.53125 
Q 36.96875 -1.421875 32.421875 -1.421875 
Q 20.0625 -1.421875 12.78125 6.34375 
Q 5.515625 14.109375 5.515625 27.296875 
Q 5.515625 40.671875 12.859375 48.328125 
Q 20.21875 56 33.015625 56 
Q 37.15625 56 41.109375 55.140625 
Q 45.0625 54.296875 48.78125 52.59375 
z
" id="DejaVuSans-63"/>
      <path d="M 18.3125 70.21875 
L 18.3125 54.6875 
L 36.8125 54.6875 
L 36.8125 47.703125 
L 18.3125 47.703125 
L 18.3125 18.015625 
Q 18.3125 11.328125 20.140625 9.421875 
Q 21.96875 7.515625 27.59375 7.515625 
L 36.8125 7.515625 
L 36.8125 0 
L 27.59375 0 
Q 17.1875 0 13.234375 3.875 
Q 9.28125 7.765625 9.28125 18.015625 
L 9.28125 47.703125 
L 2.6875 47.703125 
L 2.6875 54.6875 
L 9.28125 54.6875 
L 9.28125 70.21875 
z
" id="DejaVuSans-74"/>
     </defs>
     <g transform="translate(14.099531 155.017656)rotate(-90)scale(0.11 -0.11)">
      <use xlink:href="#DejaVuSans-50"/>
      <use x="60.287109" xlink:href="#DejaVuSans-72"/>
      <use x="101.369141" xlink:href="#DejaVuSans-6f"/>
      <use x="162.550781" xlink:href="#DejaVuSans-64"/>
      <use x="226.027344" xlink:href="#DejaVuSans-75"/>
      <use x="289.40625" xlink:href="#DejaVuSans-63"/>
      <use x="344.386719" xlink:href="#DejaVuSans-74"/>
     </g>
    </g>
   </g>
   <g id="patch_3">
    <path d="M 43.2 253.44 
L 43.2 14.4 
" style="fill:none;stroke:#000000;stroke-linecap:square;stroke-linejoin:miter;"/>
    <g id="patch_4">
     <path d="M 43.2 253.44 
L 273.6 253.44 
" style="fill:none;stroke:#000000;stroke-linecap:square;stroke-linejoin:miter;"/>
     <g id="patch_5">
      <path d="M 264.384 250.452 
L 273.6 253.44 
L 264.384 256.428 
" style="fill:none;stroke:#000000;stroke-linejoin:miter;"/>
      <g id="patch_6">
       <path d="M 46.08 23.9616 
L 43.2 14.4 
L 40.32 23.9616 
" style="fill:none;stroke:#000000;stroke-linejoin:miter;"/>
       <path clip-path="url(#p70e052c7b0)" d="M 158.4 289 
L 158.4 -1 
" style="fill:none;"/>
       <path clip-path="url(#p70e052c7b0)" d="M 158.4 289 
L 158.4 -1 
" style="fill:none;opacity:0.498039;stroke:#e9002b;stroke-linecap:square;stroke-width:0.5;"/>
       <path clip-path="url(#p70e052c7b0)" d="M 43.2 248.843077 
L 43.430515 248.742587 
L 43.776288 248.242206 
L 44.237319 247.005896 
L 44.813607 244.701566 
L 45.62041 240.379693 
L 46.657729 233.507228 
L 48.271336 221.144156 
L 54.956278 168.250138 
L 57.261431 152.39425 
L 59.566583 138.08654 
L 61.756478 125.859981 
L 63.946373 114.862154 
L 66.136268 104.983601 
L 68.326163 96.11704 
L 70.516058 88.161936 
L 72.705953 81.02608 
L 74.895848 74.625807 
L 77.085743 68.885623 
L 79.275638 63.73761 
L 81.58079 58.891407 
L 83.885943 54.570099 
L 86.191096 50.716854 
L 88.496248 47.280983 
L 90.916658 44.073121 
L 93.337069 41.229079 
L 95.872736 38.594931 
L 98.408404 36.272886 
L 101.05933 34.138917 
L 103.825513 32.192681 
L 106.706953 30.430867 
L 109.818909 28.791344 
L 113.161381 27.291273 
L 116.734367 25.940878 
L 120.537869 24.744071 
L 124.687144 23.672435 
L 129.297449 22.714396 
L 134.484042 21.86915 
L 140.362181 21.14106 
L 147.277639 20.517055 
L 155.46093 20.008793 
L 165.718859 19.604435 
L 179.31926 19.305803 
L 199.143572 19.11216 
L 235.334467 19.015975 
L 273.6 18.999765 
L 273.6 18.999765 
" style="fill:none;stroke:#000000;stroke-linecap:square;stroke-width:1.5;"/>
       <path clip-path="url(#p70e052c7b0)" d="M 43.2 248.843077 
L 43.545773 248.730857 
L 44.006803 248.261245 
L 44.583092 247.232407 
L 45.274637 245.463623 
L 46.196698 242.399667 
L 47.349275 237.753911 
L 49.078139 229.739468 
L 52.305353 213.447646 
L 56.8004 191.040421 
L 60.027614 176.127398 
L 63.024312 163.329053 
L 65.905753 151.96647 
L 68.787194 141.481715 
L 71.668634 131.816598 
L 74.550075 122.91113 
L 77.431516 114.707337 
L 80.312956 107.150672 
L 83.194397 100.190399 
L 86.191096 93.533955 
L 89.187794 87.423179 
L 92.184492 81.813366 
L 95.181191 76.663456 
L 98.293147 71.761867 
L 101.405103 67.276909 
L 104.517059 63.173167 
L 107.744272 59.28547 
L 110.971486 55.739906 
L 114.313957 52.396302 
L 117.771686 49.257245 
L 121.229415 46.413213 
L 124.802401 43.754892 
L 128.490645 41.28089 
L 132.409405 38.922566 
L 136.443422 36.755303 
L 140.707954 34.719968 
L 145.203002 32.826611 
L 149.928564 31.081472 
L 154.884642 29.487294 
L 160.186493 28.013979 
L 165.949375 26.646252 
L 172.173287 25.401148 
L 178.973487 24.271234 
L 186.465233 23.255766 
L 194.87904 22.346477 
L 204.330165 21.554468 
L 215.164382 20.874137 
L 227.957979 20.299831 
L 243.517759 19.83257 
L 263.342071 19.471452 
L 273.6 19.350997 
L 273.6 19.350997 
" style="fill:none;stroke:#000000;stroke-dasharray:5.55,2.4;stroke-dashoffset:0;stroke-width:1.5;"/>
       <path clip-path="url(#p70e052c7b0)" d="M 43.2 248.843077 
L 43.661031 248.744055 
L 44.237319 248.368406 
L 44.928864 247.605981 
L 45.735668 246.367013 
L 46.772986 244.346213 
L 48.156078 241.116033 
L 50.115458 235.888773 
L 53.342671 226.529608 
L 60.71916 205.042966 
L 64.983692 193.38424 
L 69.017709 182.990417 
L 73.051726 173.204192 
L 77.085743 163.998075 
L 81.11976 155.340295 
L 85.153777 147.199044 
L 89.187794 139.543783 
L 93.337069 132.146372 
L 97.486343 125.202891 
L 101.635618 118.685497 
L 105.90015 112.403584 
L 110.164682 106.517526 
L 114.429215 101.002383 
L 118.809005 95.699729 
L 123.188794 90.739956 
L 127.683842 85.98295 
L 132.294147 81.431432 
L 136.904452 77.18918 
L 141.630015 73.139849 
L 146.470835 69.283752 
L 151.426913 65.620199 
L 156.498249 62.147572 
L 161.684842 58.863403 
L 167.101951 55.699831 
L 172.634317 52.727912 
L 178.397199 49.887762 
L 184.275338 47.237031 
L 190.383992 44.723085 
L 196.838419 42.309576 
L 203.523362 40.048298 
L 210.554077 37.906299 
L 217.930565 35.892849 
L 225.768084 33.98793 
L 234.066633 32.204517 
L 242.826213 30.551675 
L 252.162081 29.017153 
L 262.189495 27.595185 
L 273.023712 26.284712 
L 273.6 26.220892 
L 273.6 26.220892 
" style="fill:none;stroke:#000000;stroke-dasharray:1.5,2.475;stroke-dashoffset:0;stroke-width:1.5;"/>
       <path clip-path="url(#p70e052c7b0)" d="M 43.2 248.843077 
L 43.891546 248.733695 
L 44.698349 248.36481 
L 45.62041 247.688994 
L 46.772986 246.552862 
L 48.271336 244.730566 
L 50.230715 241.970557 
L 53.227414 237.320266 
L 70.055028 210.600346 
L 75.933167 201.927289 
L 81.811306 193.643972 
L 87.804702 185.583703 
L 93.798099 177.895309 
L 99.906753 170.424067 
L 106.015408 163.30411 
L 112.23932 156.394016 
L 118.463232 149.814807 
L 124.802401 143.437514 
L 131.256828 137.263595 
L 137.711256 131.395984 
L 144.28094 125.72246 
L 150.965883 120.243277 
L 157.766083 114.95815 
L 164.681541 109.866302 
L 171.712256 104.966478 
L 178.858229 100.256985 
L 186.11946 95.735722 
L 193.611206 91.334437 
L 201.218209 87.123649 
L 209.055728 83.041474 
L 217.008504 79.149216 
L 225.191796 75.390929 
L 233.605603 71.771459 
L 242.249925 68.29462 
L 251.124762 64.963225 
L 260.345373 61.740273 
L 269.911756 58.635098 
L 273.6 57.499098 
L 273.6 57.499098 
" style="fill:none;stroke:#8c8c8c;stroke-linecap:square;stroke-width:1.5;"/>
       <g id="legend_1">
        <g id="patch_7">
         <path d="M 198.42 163.163438 
L 266.6 163.163438 
Q 268.6 163.163438 268.6 161.163438 
L 268.6 106.676563 
Q 268.6 104.676563 266.6 104.676563 
L 198.42 104.676563 
Q 196.42 104.676563 196.42 106.676563 
L 196.42 161.163438 
Q 196.42 163.163438 198.42 163.163438 
z
" style="fill:#ffffff;opacity:0.498039;stroke:#000000;stroke-linejoin:miter;"/>
         <path d="M 200.42 112.176563 
L 220.42 112.176563 
" style="fill:none;stroke:#000000;stroke-linecap:square;stroke-width:1.5;"/>
         <g id="text_13">
          <path d="M 228.899531 115.505 
Q 228.899531 115.452969 228.907969 115.42625 
L 230.212969 110.223125 
Q 230.248125 110.069844 230.256562 109.98125 
Q 230.256562 109.836406 229.672969 109.836406 
Q 229.580156 109.836406 229.580156 109.718281 
Q 229.584375 109.695781 229.599844 109.639531 
Q 229.615312 109.581875 229.639219 109.550938 
Q 229.663125 109.52 229.708125 109.52 
L 230.920312 109.422969 
L 230.947031 109.422969 
Q 230.947031 109.432813 230.977969 109.448281 
Q 231.008906 109.462344 231.013125 109.467969 
Q 231.03 109.511563 231.03 109.538281 
L 230.085 113.3 
Q 230.41125 113.163594 230.904844 112.651719 
Q 231.399844 112.139844 231.678281 111.91625 
Q 231.958125 111.69125 232.38 111.69125 
Q 232.630312 111.69125 232.806094 111.862813 
Q 232.981875 112.034375 232.981875 112.284688 
Q 232.981875 112.442188 232.915781 112.577188 
Q 232.849687 112.710781 232.730156 112.795156 
Q 232.612031 112.878125 232.454531 112.878125 
Q 232.309687 112.878125 232.209844 112.788125 
Q 232.111406 112.696719 232.111406 112.551875 
Q 232.111406 112.336719 232.263281 112.190469 
Q 232.415156 112.042813 232.630312 112.042813 
Q 232.541719 111.923281 232.361719 111.923281 
Q 232.094531 111.923281 231.845625 112.077969 
Q 231.596719 112.23125 231.308437 112.519531 
Q 231.021562 112.807813 230.783906 113.046875 
Q 230.547656 113.285938 230.345156 113.409688 
Q 230.876719 113.470156 231.267656 113.688125 
Q 231.658594 113.906094 231.658594 114.354688 
Q 231.658594 114.446094 231.623437 114.586719 
Q 231.544687 114.925625 231.544687 115.128125 
Q 231.544687 115.531719 231.821719 115.531719 
Q 232.146562 115.531719 232.315312 115.175938 
Q 232.485469 114.820156 232.595156 114.344844 
Q 232.612031 114.292813 232.669687 114.292813 
L 232.775156 114.292813 
Q 232.810312 114.292813 232.834219 114.315313 
Q 232.858125 114.336406 232.858125 114.371563 
Q 232.858125 114.38 232.849687 114.398281 
Q 232.510781 115.769375 231.803437 115.769375 
Q 231.548906 115.769375 231.353437 115.65125 
Q 231.157969 115.531719 231.0525 115.327813 
Q 230.947031 115.1225 230.947031 114.867969 
Q 230.947031 114.723125 230.986406 114.569844 
Q 231.013125 114.464375 231.013125 114.371563 
Q 231.013125 114.024219 230.705156 113.844219 
Q 230.397187 113.664219 230.002031 113.624844 
L 229.545 115.461406 
Q 229.509844 115.597813 229.408594 115.683594 
Q 229.307344 115.769375 229.176562 115.769375 
Q 229.06125 115.769375 228.979687 115.692031 
Q 228.899531 115.614688 228.899531 115.505 
z
M 233.684895 117.198688 
L 233.684895 116.977203 
Q 234.472395 116.977203 234.472395 116.777375 
L 234.472395 113.469875 
Q 234.146566 113.627375 233.647488 113.627375 
L 233.647488 113.405891 
Q 234.420223 113.405891 234.813973 113.002297 
L 234.902566 113.002297 
Q 234.924223 113.002297 234.94391 113.020016 
Q 234.964582 113.03675 234.964582 113.058406 
L 234.964582 116.777375 
Q 234.964582 116.977203 235.752082 116.977203 
L 235.752082 117.198688 
z
M 240.638414 111.581563 
L 246.271852 111.581563 
L 246.271852 112.319844 
L 240.638414 112.319844 
z
M 240.638414 113.374531 
L 246.271852 113.374531 
L 246.271852 114.12125 
L 240.638414 114.12125 
z
M 251.203395 114.921406 
L 252.653238 114.921406 
L 252.653238 109.915156 
L 251.075426 110.231563 
L 251.075426 109.422969 
L 252.644801 109.106563 
L 253.532145 109.106563 
L 253.532145 114.921406 
L 254.981988 114.921406 
L 254.981988 115.668125 
L 251.203395 115.668125 
z
"/>
         </g>
         <path d="M 200.42 126.048281 
L 220.42 126.048281 
" style="fill:none;stroke:#000000;stroke-dasharray:5.55,2.4;stroke-dashoffset:0;stroke-width:1.5;"/>
         <g id="text_14">
          <path d="M 228.899531 129.314844 
Q 228.899531 129.262812 228.907969 129.236094 
L 230.212969 124.032969 
Q 230.248125 123.879688 230.256562 123.791094 
Q 230.256562 123.64625 229.672969 123.64625 
Q 229.580156 123.64625 229.580156 123.528125 
Q 229.584375 123.505625 229.599844 123.449375 
Q 229.615312 123.391719 229.639219 123.360781 
Q 229.663125 123.329844 229.708125 123.329844 
L 230.920312 123.232813 
L 230.947031 123.232813 
Q 230.947031 123.242656 230.977969 123.258125 
Q 231.008906 123.272188 231.013125 123.277812 
Q 231.03 123.321406 231.03 123.348125 
L 230.085 127.109844 
Q 230.41125 126.973438 230.904844 126.461562 
Q 231.399844 125.949687 231.678281 125.726094 
Q 231.958125 125.501094 232.38 125.501094 
Q 232.630312 125.501094 232.806094 125.672656 
Q 232.981875 125.844219 232.981875 126.094531 
Q 232.981875 126.252031 232.915781 126.387031 
Q 232.849687 126.520625 232.730156 126.605 
Q 232.612031 126.687969 232.454531 126.687969 
Q 232.309687 126.687969 232.209844 126.597969 
Q 232.111406 126.506563 232.111406 126.361719 
Q 232.111406 126.146563 232.263281 126.000313 
Q 232.415156 125.852656 232.630312 125.852656 
Q 232.541719 125.733125 232.361719 125.733125 
Q 232.094531 125.733125 231.845625 125.887812 
Q 231.596719 126.041094 231.308437 126.329375 
Q 231.021562 126.617656 230.783906 126.856719 
Q 230.547656 127.095781 230.345156 127.219531 
Q 230.876719 127.28 231.267656 127.497969 
Q 231.658594 127.715937 231.658594 128.164531 
Q 231.658594 128.255938 231.623437 128.396563 
Q 231.544687 128.735469 231.544687 128.937969 
Q 231.544687 129.341563 231.821719 129.341563 
Q 232.146562 129.341563 232.315312 128.985781 
Q 232.485469 128.63 232.595156 128.154687 
Q 232.612031 128.102656 232.669687 128.102656 
L 232.775156 128.102656 
Q 232.810312 128.102656 232.834219 128.125156 
Q 232.858125 128.14625 232.858125 128.181406 
Q 232.858125 128.189844 232.849687 128.208125 
Q 232.510781 129.579219 231.803437 129.579219 
Q 231.548906 129.579219 231.353437 129.461094 
Q 231.157969 129.341563 231.0525 129.137656 
Q 230.947031 128.932344 230.947031 128.677813 
Q 230.947031 128.532969 230.986406 128.379687 
Q 231.013125 128.274219 231.013125 128.181406 
Q 231.013125 127.834063 230.705156 127.654063 
Q 230.397187 127.474063 230.002031 127.434687 
L 229.545 129.27125 
Q 229.509844 129.407656 229.408594 129.493437 
Q 229.307344 129.579219 229.176562 129.579219 
Q 229.06125 129.579219 228.979687 129.501875 
Q 228.899531 129.424531 228.899531 129.314844 
z
M 233.684895 131.008531 
L 233.684895 130.787047 
Q 234.472395 130.787047 234.472395 130.587219 
L 234.472395 127.279719 
Q 234.146566 127.437219 233.647488 127.437219 
L 233.647488 127.215734 
Q 234.420223 127.215734 234.813973 126.812141 
L 234.902566 126.812141 
Q 234.924223 126.812141 234.94391 126.829859 
Q 234.964582 126.846594 234.964582 126.86825 
L 234.964582 130.587219 
Q 234.964582 130.787047 235.752082 130.787047 
L 235.752082 131.008531 
z
M 240.638414 125.391406 
L 246.271852 125.391406 
L 246.271852 126.129688 
L 240.638414 126.129688 
z
M 240.638414 127.184375 
L 246.271852 127.184375 
L 246.271852 127.931094 
L 240.638414 127.931094 
z
M 251.203395 128.73125 
L 252.653238 128.73125 
L 252.653238 123.725 
L 251.075426 124.041406 
L 251.075426 123.232813 
L 252.644801 122.916406 
L 253.532145 122.916406 
L 253.532145 128.73125 
L 254.981988 128.73125 
L 254.981988 129.477969 
L 251.203395 129.477969 
z
M 258.098062 122.916406 
L 258.844781 122.916406 
L 256.559625 130.313281 
L 255.812906 130.313281 
z
M 260.567789 128.73125 
L 263.665758 128.73125 
L 263.665758 129.477969 
L 259.500445 129.477969 
L 259.500445 128.73125 
Q 260.005289 128.208125 260.877164 127.327813 
Q 261.750445 126.446094 261.974039 126.190156 
Q 262.400133 125.712031 262.568883 125.380156 
Q 262.739039 125.048281 262.739039 124.727656 
Q 262.739039 124.204531 262.372008 123.875469 
Q 262.004977 123.545 261.415758 123.545 
Q 260.998102 123.545 260.534039 123.689844 
Q 260.071383 123.834688 259.544039 124.13 
L 259.544039 123.232813 
Q 260.07982 123.017656 260.545289 122.907969 
Q 261.012164 122.798281 261.398883 122.798281 
Q 262.418414 122.798281 263.024508 123.30875 
Q 263.630602 123.817813 263.630602 124.67 
Q 263.630602 125.075 263.478727 125.437813 
Q 263.328258 125.799219 262.927477 126.291406 
Q 262.817789 126.419375 262.22857 127.028281 
Q 261.640758 127.637187 260.567789 128.73125 
z
"/>
         </g>
         <path d="M 200.42 139.92 
L 220.42 139.92 
" style="fill:none;stroke:#000000;stroke-dasharray:1.5,2.475;stroke-dashoffset:0;stroke-width:1.5;"/>
         <g id="text_15">
          <path d="M 228.899531 143.248438 
Q 228.899531 143.196406 228.907969 143.169688 
L 230.212969 137.966563 
Q 230.248125 137.813281 230.256562 137.724688 
Q 230.256562 137.579844 229.672969 137.579844 
Q 229.580156 137.579844 229.580156 137.461719 
Q 229.584375 137.439219 229.599844 137.382969 
Q 229.615312 137.325313 229.639219 137.294375 
Q 229.663125 137.263438 229.708125 137.263438 
L 230.920312 137.166406 
L 230.947031 137.166406 
Q 230.947031 137.17625 230.977969 137.191719 
Q 231.008906 137.205781 231.013125 137.211406 
Q 231.03 137.255 231.03 137.281719 
L 230.085 141.043438 
Q 230.41125 140.907031 230.904844 140.395156 
Q 231.399844 139.883281 231.678281 139.659688 
Q 231.958125 139.434688 232.38 139.434688 
Q 232.630312 139.434688 232.806094 139.60625 
Q 232.981875 139.777813 232.981875 140.028125 
Q 232.981875 140.185625 232.915781 140.320625 
Q 232.849687 140.454219 232.730156 140.538594 
Q 232.612031 140.621563 232.454531 140.621563 
Q 232.309687 140.621563 232.209844 140.531563 
Q 232.111406 140.440156 232.111406 140.295313 
Q 232.111406 140.080156 232.263281 139.933906 
Q 232.415156 139.78625 232.630312 139.78625 
Q 232.541719 139.666719 232.361719 139.666719 
Q 232.094531 139.666719 231.845625 139.821406 
Q 231.596719 139.974688 231.308437 140.262969 
Q 231.021562 140.55125 230.783906 140.790313 
Q 230.547656 141.029375 230.345156 141.153125 
Q 230.876719 141.213594 231.267656 141.431563 
Q 231.658594 141.649531 231.658594 142.098125 
Q 231.658594 142.189531 231.623437 142.330156 
Q 231.544687 142.669063 231.544687 142.871563 
Q 231.544687 143.275156 231.821719 143.275156 
Q 232.146562 143.275156 232.315312 142.919375 
Q 232.485469 142.563594 232.595156 142.088281 
Q 232.612031 142.03625 232.669687 142.03625 
L 232.775156 142.03625 
Q 232.810312 142.03625 232.834219 142.05875 
Q 232.858125 142.079844 232.858125 142.115 
Q 232.858125 142.123438 232.849687 142.141719 
Q 232.510781 143.512813 231.803437 143.512813 
Q 231.548906 143.512813 231.353437 143.394688 
Q 231.157969 143.275156 231.0525 143.07125 
Q 230.947031 142.865938 230.947031 142.611406 
Q 230.947031 142.466563 230.986406 142.313281 
Q 231.013125 142.207813 231.013125 142.115 
Q 231.013125 141.767656 230.705156 141.587656 
Q 230.397187 141.407656 230.002031 141.368281 
L 229.545 143.204844 
Q 229.509844 143.34125 229.408594 143.427031 
Q 229.307344 143.512813 229.176562 143.512813 
Q 229.06125 143.512813 228.979687 143.435469 
Q 228.899531 143.358125 228.899531 143.248438 
z
M 233.684895 144.942125 
L 233.684895 144.720641 
Q 234.472395 144.720641 234.472395 144.520813 
L 234.472395 141.213313 
Q 234.146566 141.370813 233.647488 141.370813 
L 233.647488 141.149328 
Q 234.420223 141.149328 234.813973 140.745734 
L 234.902566 140.745734 
Q 234.924223 140.745734 234.94391 140.763453 
Q 234.964582 140.780188 234.964582 140.801844 
L 234.964582 144.520813 
Q 234.964582 144.720641 235.752082 144.720641 
L 235.752082 144.942125 
z
M 240.638414 139.325 
L 246.271852 139.325 
L 246.271852 140.063281 
L 240.638414 140.063281 
z
M 240.638414 141.117969 
L 246.271852 141.117969 
L 246.271852 141.864688 
L 240.638414 141.864688 
z
M 251.203395 142.664844 
L 252.653238 142.664844 
L 252.653238 137.658594 
L 251.075426 137.975 
L 251.075426 137.166406 
L 252.644801 136.85 
L 253.532145 136.85 
L 253.532145 142.664844 
L 254.981988 142.664844 
L 254.981988 143.411563 
L 251.203395 143.411563 
z
M 258.098062 136.85 
L 258.844781 136.85 
L 256.559625 144.246875 
L 255.812906 144.246875 
z
M 262.246852 137.623438 
L 260.005289 141.126406 
L 262.246852 141.126406 
z
M 262.013414 136.85 
L 263.129977 136.85 
L 263.129977 141.126406 
L 264.066539 141.126406 
L 264.066539 141.864688 
L 263.129977 141.864688 
L 263.129977 143.411563 
L 262.246852 143.411563 
L 262.246852 141.864688 
L 259.285289 141.864688 
L 259.285289 141.008281 
z
"/>
         </g>
         <path d="M 200.42 153.791719 
L 220.42 153.791719 
" style="fill:none;stroke:#8c8c8c;stroke-linecap:square;stroke-width:1.5;"/>
         <g id="text_16">
          <path d="M 228.899531 157.058281 
Q 228.899531 157.00625 228.907969 156.979531 
L 230.212969 151.776406 
Q 230.248125 151.623125 230.256562 151.534531 
Q 230.256562 151.389688 229.672969 151.389688 
Q 229.580156 151.389688 229.580156 151.271563 
Q 229.584375 151.249063 229.599844 151.192813 
Q 229.615312 151.135156 229.639219 151.104219 
Q 229.663125 151.073281 229.708125 151.073281 
L 230.920312 150.97625 
L 230.947031 150.97625 
Q 230.947031 150.986094 230.977969 151.001563 
Q 231.008906 151.015625 231.013125 151.02125 
Q 231.03 151.064844 231.03 151.091563 
L 230.085 154.853281 
Q 230.41125 154.716875 230.904844 154.205 
Q 231.399844 153.693125 231.678281 153.469531 
Q 231.958125 153.244531 232.38 153.244531 
Q 232.630312 153.244531 232.806094 153.416094 
Q 232.981875 153.587656 232.981875 153.837969 
Q 232.981875 153.995469 232.915781 154.130469 
Q 232.849687 154.264063 232.730156 154.348438 
Q 232.612031 154.431406 232.454531 154.431406 
Q 232.309687 154.431406 232.209844 154.341406 
Q 232.111406 154.25 232.111406 154.105156 
Q 232.111406 153.89 232.263281 153.74375 
Q 232.415156 153.596094 232.630312 153.596094 
Q 232.541719 153.476563 232.361719 153.476563 
Q 232.094531 153.476563 231.845625 153.63125 
Q 231.596719 153.784531 231.308437 154.072813 
Q 231.021562 154.361094 230.783906 154.600156 
Q 230.547656 154.839219 230.345156 154.962969 
Q 230.876719 155.023438 231.267656 155.241406 
Q 231.658594 155.459375 231.658594 155.907969 
Q 231.658594 155.999375 231.623437 156.14 
Q 231.544687 156.478906 231.544687 156.681406 
Q 231.544687 157.085 231.821719 157.085 
Q 232.146562 157.085 232.315312 156.729219 
Q 232.485469 156.373438 232.595156 155.898125 
Q 232.612031 155.846094 232.669687 155.846094 
L 232.775156 155.846094 
Q 232.810312 155.846094 232.834219 155.868594 
Q 232.858125 155.889688 232.858125 155.924844 
Q 232.858125 155.933281 232.849687 155.951563 
Q 232.510781 157.322656 231.803437 157.322656 
Q 231.548906 157.322656 231.353437 157.204531 
Q 231.157969 157.085 231.0525 156.881094 
Q 230.947031 156.675781 230.947031 156.42125 
Q 230.947031 156.276406 230.986406 156.123125 
Q 231.013125 156.017656 231.013125 155.924844 
Q 231.013125 155.5775 230.705156 155.3975 
Q 230.397187 155.2175 230.002031 155.178125 
L 229.545 157.014688 
Q 229.509844 157.151094 229.408594 157.236875 
Q 229.307344 157.322656 229.176562 157.322656 
Q 229.06125 157.322656 228.979687 157.245313 
Q 228.899531 157.167969 228.899531 157.058281 
z
M 233.684895 158.751969 
L 233.684895 158.530484 
Q 234.472395 158.530484 234.472395 158.330656 
L 234.472395 155.023156 
Q 234.146566 155.180656 233.647488 155.180656 
L 233.647488 154.959172 
Q 234.420223 154.959172 234.813973 154.555578 
L 234.902566 154.555578 
Q 234.924223 154.555578 234.94391 154.573297 
Q 234.964582 154.590031 234.964582 154.611688 
L 234.964582 158.330656 
Q 234.964582 158.530484 235.752082 158.530484 
L 235.752082 158.751969 
z
M 240.638414 153.134844 
L 246.271852 153.134844 
L 246.271852 153.873125 
L 240.638414 153.873125 
z
M 240.638414 154.927813 
L 246.271852 154.927813 
L 246.271852 155.674531 
L 240.638414 155.674531 
z
M 251.203395 156.474688 
L 252.653238 156.474688 
L 252.653238 151.468438 
L 251.075426 151.784844 
L 251.075426 150.97625 
L 252.644801 150.659844 
L 253.532145 150.659844 
L 253.532145 156.474688 
L 254.981988 156.474688 
L 254.981988 157.221406 
L 251.203395 157.221406 
z
M 258.098062 150.659844 
L 258.844781 150.659844 
L 256.559625 158.056719 
L 255.812906 158.056719 
z
M 261.698414 154.105156 
Q 261.065602 154.105156 260.702789 154.444063 
Q 260.341383 154.782969 260.341383 155.375 
Q 260.341383 155.968438 260.702789 156.307344 
Q 261.065602 156.64625 261.698414 156.64625 
Q 262.331227 156.64625 262.695445 156.305938 
Q 263.06107 155.964219 263.06107 155.375 
Q 263.06107 154.782969 262.698258 154.444063 
Q 262.336852 154.105156 261.698414 154.105156 
z
M 260.81107 153.728281 
Q 260.240133 153.587656 259.920914 153.196719 
Q 259.603102 152.804375 259.603102 152.241875 
Q 259.603102 151.455781 260.162789 150.99875 
Q 260.723883 150.541719 261.698414 150.541719 
Q 262.67857 150.541719 263.236852 150.99875 
Q 263.795133 151.455781 263.795133 152.241875 
Q 263.795133 152.804375 263.475914 153.196719 
Q 263.158102 153.587656 262.591383 153.728281 
Q 263.232633 153.877344 263.58982 154.313281 
Q 263.948414 154.747813 263.948414 155.375 
Q 263.948414 156.329844 263.366227 156.840313 
Q 262.784039 157.349375 261.698414 157.349375 
Q 260.614195 157.349375 260.030602 156.840313 
Q 259.448414 156.329844 259.448414 155.375 
Q 259.448414 154.747813 259.808414 154.313281 
Q 260.16982 153.877344 260.81107 153.728281 
z
M 260.486227 152.32625 
Q 260.486227 152.835313 260.804039 153.120781 
Q 261.123258 153.40625 261.698414 153.40625 
Q 262.270758 153.40625 262.592789 153.120781 
Q 262.916227 152.835313 262.916227 152.32625 
Q 262.916227 151.815781 262.592789 151.530313 
Q 262.270758 151.244844 261.698414 151.244844 
Q 261.123258 151.244844 260.804039 151.530313 
Q 260.486227 151.815781 260.486227 152.32625 
z
"/>
         </g>
        </g>
       </g>
      </g>
      <defs>
       <clipPath id="p70e052c7b0">
        <rect height="239.04" width="230.4" x="43.2" y="14.4"/>
       </clipPath>
      </defs>
     </g>
    </g>
   </g>
  </g>
 </g>
</svg>
